<?xml version="1.0" encoding="UTF-8" standalone="no"?>
<!-- Created with Inkscape (http://www.inkscape.org/) -->

<svg
   version="1.1"
   id="svg1"
   width="512"
   height="512"
   viewBox="0 0 512 512"
   sodipodi:docname="favicon.svg"
   inkscape:version="1.4 (86a8ad7, 2024-10-11)"
   xmlns:inkscape="http://www.inkscape.org/namespaces/inkscape"
   xmlns:sodipodi="http://sodipodi.sourceforge.net/DTD/sodipodi-0.dtd"
   xmlns="http://www.w3.org/2000/svg"
   xmlns:svg="http://www.w3.org/2000/svg">
  <defs
     id="defs1" />
  <sodipodi:namedview
     id="namedview1"
     pagecolor="#ffffff"
     bordercolor="#000000"
     borderopacity="0.25"
     inkscape:showpageshadow="2"
     inkscape:pageopacity="0.0"
     inkscape:pagecheckerboard="0"
     inkscape:deskcolor="#d1d1d1"
     inkscape:zoom="1.1504296"
     inkscape:cx="200.79456"
     inkscape:cy="218.61399"
     inkscape:window-width="1920"
     inkscape:window-height="1051"
     inkscape:window-x="-9"
     inkscape:window-y="-9"
     inkscape:window-maximized="1"
     inkscape:current-layer="g1" />
  <g
     inkscape:groupmode="layer"
     inkscape:label="Image"
     id="g1">
    <path
       style="fill:#0566b2;fill-opacity:1"
       d="m 241.92732,500.10729 c -3.85,-1.54473 -11.725,-4.95963 -17.5,-7.58868 -5.775,-2.62905 -20.85,-9.39706 -33.5,-15.04002 -56.00239,-24.98174 -82.21657,-36.94182 -92.999996,-42.43076 -5.80026,-2.95242 -7.10826,-4.07728 -7.63168,-6.56311 -0.34743,-1.65 -0.68493,-21.33021 -0.75,-43.7338 l -0.11832,-40.73381 -13.0439,-6.47936 c -7.17415,-3.56365 -14.37415,-7.42658 -16,-8.58429 -5.48883,-3.90839 -4.38603,-6.50289 14.86353,-34.96874 14.18285,-20.97329 14.81232,-21.71542 26.740356,-31.52598 5.74201,-4.72267 10.44001,-9.14895 10.44001,-9.83617 0,-1.32056 -10.65282,-36.9646 -26.939206,-90.13785 -5.39068,-17.6 -10.3301,-34.26068 -10.97648,-37.02373 -0.99276,-4.24376 -0.78291,-8.30155 1.35164,-26.135987 2.55,-21.30554 3.61996,-26.34028 5.59773,-26.34028 2.30675,0 23.423866,25.92195 28.919806,35.499997 1.61171,2.80881 10.15255,27.78838 19.48904,57 l 16.62,52 -0.67531,26.5 c -0.37142,14.575 -0.35316,30.34062 0.0406,35.03471 l 0.71588,8.5347 6.17817,2.2155 c 3.39799,1.21853 6.72416,2.21541 7.39149,2.2153 0.93468,-1.6e-4 1.27917,-13.97462 1.5,-60.8473 0.2313,-49.0942 0.54576,-61.15913 1.62803,-62.46255 0.73775,-0.8885 5.01275,-3.02712 9.5,-4.75248 4.48725,-1.72537 23.68364,-9.1138 42.65864,-16.41875 18.975,-7.30494 35.70495,-13.56054 37.17767,-13.90132 3.24534,-0.75097 6.07051,1.63793 5.62555,4.75684 -0.40981,2.87246 -2.27578,3.70721 -45.26721,20.25063 -20.34394,7.8285 -37.12834,14.6517 -37.29865,15.16265 -0.17032,0.51096 2.10803,2.19485 5.063,3.74198 l 5.37268,2.81296 24.91348,-9.21556 c 13.70238,-5.06855 26.48845,-9.86079 28.41345,-10.64942 6.97191,-2.85624 35.56785,-13.21401 38.27052,-13.86202 5.78924,-1.38806 9.06846,3.62754 4.47948,6.85139 -2.74207,1.92637 -25.15198,10.76551 -54.92204,21.6629 -26.21961,9.59774 -28.82796,10.65333 -28.82796,11.66653 0,0.42341 5.2875,3.3726 11.75,6.55373 l 11.75,5.78389 25.5,-9.63854 c 34.35986,-12.98742 60.99867,-22.49577 63.02462,-22.49577 0.91597,0 2.52265,0.9468 3.57039,2.10401 1.82086,2.01109 1.92909,5.02517 2.45068,68.25 0.30013,36.38029 0.63763,66.20887 0.75,66.28572 0.11237,0.0769 3.46681,-1.06414 7.45431,-2.53553 l 7.25,-2.67528 0.5,-25.46446 0.5,-25.46446 6.9676,-12.5 6.96759,-12.5 0.0324,-13.5 c 0.0323,-13.45327 0.0443,-13.5219 3.46224,-19.82601 3.86593,-7.13034 9.07125,-12.04892 16.7028,-15.78269 6.05925,-2.96451 10.72906,-2.91893 11.13651,0.1087 0.14804,1.1 -3.11599,7.60096 -7.2534,14.44658 l -7.52255,12.44658 3.2534,1.97513 c 1.78937,1.08632 5.94329,3.73199 9.23093,5.87926 3.28764,2.14728 6.35525,3.98251 6.81691,4.07829 0.46166,0.0958 3.84677,-4.2995 7.52247,-9.76732 8.1537,-12.12909 9.81713,-13.42083 13.52588,-10.50353 2.29874,1.8082 2.65721,2.82944 2.65721,7.57018 0,8.30027 -2.74718,18.77066 -6.33256,24.13543 -3.80005,5.68596 -13.90048,12.76508 -19.5829,13.72512 -2.21411,0.37407 -5.14135,1.55772 -6.50496,2.63034 -3.52157,2.77007 -33.80797,53.88394 -31.92774,53.88394 0.45318,0 4.79115,-1.67987 9.63992,-3.73304 l 8.81596,-3.73303 6.1363,-10.01697 c 9.93548,-16.21877 13.73203,-21.51696 15.41852,-21.51696 0.8734,0 9.41856,3.81408 18.98925,8.47572 l 17.40124,8.47573 14.30845,21.77427 c 7.86965,11.97586 15.56419,23.93517 17.09897,26.57626 l 2.79053,4.80198 -2.06576,2.19802 c -1.13616,1.20891 -8.36227,5.32013 -16.05801,9.13603 -9.87403,4.896 -14.15527,7.5449 -14.54608,9 -0.3046,1.1341 -0.55996,18.30848 -0.56747,38.1653 -0.0162,42.74369 -0.38914,47.94139 -3.59068,50.03912 -1.25199,0.82034 -27.39684,12.52281 -58.09966,26.00549 -30.70282,13.48268 -63.02331,27.68121 -71.82331,31.55227 -29.50488,12.97902 -32.41741,13.56963 -44,8.92238 z m 15.58179,-8.12257 h 2.91821 v -64.5 -64.5 h -6 -6 v 63.95031 c 0,59.84876 0.11224,64.01591 1.75,64.9731 0.9625,0.56254 2.3493,0.8099 3.08179,0.54969 0.73248,-0.2602 2.64498,-0.4731 4.25,-0.4731 z m -47.22388,-109.75 c 0.97585,-0.9625 6.88682,-7.6 13.13548,-14.75 6.24866,-7.15 13.59595,-15.3295 16.32731,-18.17666 l 4.96612,-5.17666 -3.39341,-1.43598 c -1.86638,-0.7898 -18.91841,-8.06747 -37.89341,-16.17261 -42.92893,-18.33703 -73.25459,-31.09525 -91.75656,-38.60266 l -14.256556,-5.78478 -2.38252,3.17467 c -4.56241,6.07936 -23.8596,35.75264 -23.4833,36.11028 0.57471,0.54621 14.92516,7.15093 28.37894,13.06125 16.055386,7.05323 41.330196,18.57085 61.499996,28.02528 16.79823,7.87403 46.26216,21.3753 46.79181,21.44143 0.1605,0.02 1.09024,-0.75106 2.0661,-1.71356 z m 118.93389,-11.38281 c 15.78951,-7.22305 36.3582,-16.61197 45.7082,-20.86427 54.81088,-24.92754 61.5,-28.0823 61.5,-29.0049 0,-0.88293 -13.29817,-21.22886 -19.82327,-30.32918 -6.54238,-9.12444 -5.62218,-8.99751 -20.25813,-2.79447 -5.18023,2.1955 -16.8436,7.13567 -25.9186,10.97816 -9.075,3.84248 -27.075,11.55151 -40,17.13117 -12.925,5.57966 -29.8,12.77311 -37.5,15.98543 -15.66591,6.53559 -26.67359,11.53779 -27.74301,12.60721 -0.39131,0.39131 0.68552,2.33422 2.39296,4.31757 6.14941,7.14311 32.00989,35.10609 32.46652,35.10609 0.25692,0 13.38582,-5.90976 29.17533,-13.13281 z m -73.7918,-84.2987 c 0.60066,-4.69974 3,-6.15413 3,-1.81849 0,3.40918 0.66026,4.3176 2.59777,3.57411 0.86131,-0.33052 1.40223,-1.99857 1.40223,-4.32411 0,-4.94109 2.73584,-6.39519 3.19068,-1.69585 0.45329,4.68336 3.22107,4.26188 3.61951,-0.55118 0.20415,-2.46613 0.9733,-4.10191 2.25,-4.78518 1.74971,-0.93642 1.93981,-0.69172 1.93981,2.49703 0,1.94435 0.43417,3.53518 0.96482,3.53518 1.40149,0 3.03518,-3.46323 3.03518,-6.43426 0,-1.61399 0.55642,-2.56574 1.5,-2.56574 1.00795,0 1.5,1.00815 1.5,3.07332 0,2.38665 0.391,2.99923 1.75,2.74169 1.21369,-0.23001 1.84355,-1.45204 2.05525,-3.98754 0.37457,-4.48612 3.19475,-6.21875 3.19475,-1.96275 0,1.54107 0.2961,3.09804 0.65799,3.45994 1.29745,1.29745 3.34201,-1.63087 3.34201,-4.78659 0,-2.46884 0.58674,-3.48437 2.52279,-4.3665 1.61315,-0.735 2.74597,-2.26536 3.14175,-4.24429 0.44462,-2.22309 1.56491,-3.54592 3.97722,-4.69627 3.46469,-1.6522 4.55723,-4.23101 1.7925,-4.23101 -0.86116,0 -2.43616,0.46583 -3.5,1.03518 -1.58835,0.85006 -1.93426,0.70435 -1.93426,-0.81478 0,-1.12968 1.36274,-2.49982 3.5,-3.51901 3.16921,-1.51129 5.21904,-5.5614 2.25,-4.44561 -4.71047,1.77024 -5.75,1.829 -5.75,0.32503 0,-0.85468 1.575,-2.21205 3.5,-3.01636 1.925,-0.80432 3.5,-2.16036 3.5,-3.01342 0,-1.8035 -0.89882,-1.9202 -4.4349,-0.57578 -2.19495,0.83452 -2.5651,0.7014 -2.5651,-0.92245 0,-1.28211 1.13535,-2.2724 3.5,-3.0528 2.47081,-0.81544 3.5,-1.75187 3.5,-3.18454 0,-1.20742 -0.50631,-1.83916 -1.25,-1.55968 -4.71047,1.77024 -5.75,1.829 -5.75,0.32503 0,-0.85468 1.575,-2.21205 3.5,-3.01636 1.925,-0.80432 3.5,-2.16036 3.5,-3.01342 0,-1.8035 -0.89882,-1.9202 -4.4349,-0.57578 -2.19495,0.83452 -2.5651,0.7014 -2.5651,-0.92245 0,-1.28211 1.13535,-2.2724 3.5,-3.0528 2.47081,-0.81544 3.5,-1.75187 3.5,-3.18454 0,-1.54059 -0.42154,-1.8559 -1.75,-1.309 -3.94367,1.62354 -4.78054,1.52071 -5.76384,-0.70826 -0.68477,-1.55225 -1.73966,-2.22088 -3.25,-2.05999 -1.84281,0.19631 -2.23616,-0.25811 -2.23616,-2.58333 0,-1.55185 -0.2961,-3.11764 -0.65799,-3.47954 -1.30665,-1.30664 -3.34201,1.6411 -3.34201,4.84012 0,4.51621 -2.76868,5.54048 -3.19068,1.18039 -0.48711,-5.03275 -3.2381,-4.18476 -3.61983,1.11582 -0.24605,3.41653 -0.66127,4.24519 -2,3.99145 -1.0037,-0.19024 -1.82025,-1.45708 -2.01163,-3.12096 -0.46264,-4.02223 -2.58361,-2.76326 -3.17786,1.88633 -0.34255,2.68017 -1.05109,4.01701 -2.25,4.24515 -1.35929,0.25866 -1.75,-0.35315 -1.75,-2.74032 0,-2.0476 -0.49427,-3.07332 -1.48095,-3.07332 -1.36833,0 -1.97947,1.4365 -2.73012,6.41713 -0.48695,3.23104 -2.78893,3.09309 -2.78893,-0.16713 0,-1.60417 -0.2961,-3.21276 -0.65799,-3.57466 -1.30665,-1.30664 -3.34201,1.6411 -3.34201,4.84012 0,4.51621 -2.76868,5.54048 -3.19068,1.18039 -0.43294,-4.47302 -3.20384,-4.30232 -3.63534,0.22396 -0.21038,2.20671 -1.36323,4.3887 -3.25,6.15121 -1.60819,1.50227 -2.92398,3.66982 -2.92398,4.81677 0,1.43806 -1.08641,2.5393 -3.5,3.54776 -1.925,0.80432 -3.5,2.16036 -3.5,3.01342 0,1.8035 0.89882,1.9202 4.4349,0.57578 2.19495,-0.83452 2.5651,-0.7014 2.5651,0.92245 0,1.28211 -1.13535,2.2724 -3.5,3.0528 -2.47081,0.81544 -3.5,1.75187 -3.5,3.18454 0,1.54059 0.42154,1.8559 1.75,1.309 4.09077,-1.6841 5.25,-1.71139 5.25,-0.12359 0,0.88702 -1.56352,2.25649 -3.5,3.0656 -1.925,0.80432 -3.5,2.16036 -3.5,3.01342 0,1.8035 0.89882,1.9202 4.4349,0.57578 2.15612,-0.81976 2.5651,-0.69235 2.5651,0.79911 0,1.12551 -1.30069,2.2447 -3.5569,3.06055 -2.46429,0.8911 -3.44438,1.79755 -3.19061,2.95089 0.20146,0.91559 1.01456,1.49734 1.8069,1.29279 0.79234,-0.20454 2.22811,-0.59453 3.19061,-0.86663 3.24806,-0.91822 1.84267,2.32392 -1.75,4.03715 -1.925,0.91797 -3.5,2.38164 -3.5,3.2526 0,1.53649 1.01402,1.4844 5.75,-0.29543 0.72711,-0.27325 1.25,0.32759 1.25,1.43634 0,1.27067 -1.16679,2.32802 -3.5,3.17172 -4.73744,1.71308 -4.83265,4.60875 -0.12247,3.72511 2.83946,-0.53268 3.46177,-0.31145 3.90638,1.38871 0.35931,1.37403 1.36031,2.02234 3.12247,2.02234 2.22888,0 2.59362,0.4322 2.59362,3.07332 0,2.38717 0.39071,2.99898 1.75,2.74032 1.19891,-0.22814 1.90745,-1.56498 2.25,-4.24515 z m -2.81978,-11.69307 c 0.21884,-1.45642 1.6976,-2.66493 4.685,-3.8288 2.40086,-0.93536 5.10086,-2.63057 6,-3.76714 2.15992,-2.7303 5.83154,-3.77604 7.72895,-2.20133 2.29474,1.90447 6.90583,-1.89218 6.90583,-5.68607 0,-4.29248 -3.86194,-4.53639 -7.56869,-0.47802 -1.55021,1.69727 -3.44049,3.08594 -4.20063,3.08594 -0.76013,0 -2.47299,1.16429 -3.80637,2.58732 -1.95681,2.08839 -7.81993,5.41268 -9.54643,5.41268 -0.20784,0 -0.37788,-1.50391 -0.37788,-3.34201 0,-3.19893 0.29006,-3.45582 6.77476,-6 3.72612,-1.4619 7.2795,-2.65799 7.89641,-2.65799 1.8211,0 7.32883,-6.88896 7.32883,-9.16676 0,-3.67357 3.82012,-8.54411 8.0192,-10.22425 l 3.9808,-1.5928 v -6.4011 c 0,-6.01132 0.75434,-7.61509 3.58179,-7.61509 0.23001,0 0.41821,8.95186 0.41821,19.89301 0,17.21733 -0.21276,19.97465 -1.58179,20.5 -2.3941,0.9187 -2.41821,0.88609 -2.41821,-3.27057 0,-2.22676 -0.63859,-4.40754 -1.5,-5.12244 -1.9415,-1.6113 -1.91625,-4.72661 0.0543,-6.69715 0.85486,-0.85486 1.41736,-2.73522 1.25,-4.17857 -0.41929,-3.61607 -4.37647,-3.57789 -7.09888,0.0685 -1.89604,2.53953 -1.91641,2.83627 -0.35793,5.21482 0.90889,1.38713 1.65252,3.18074 1.65252,3.98581 0,0.80506 0.64248,2.10623 1.42773,2.89148 0.78525,0.78525 1.7173,2.9713 2.07123,4.85789 0.63352,3.37697 0.56099,3.4639 -4.67773,5.60573 -2.92668,1.19656 -8.92123,3.50039 -13.32123,5.11963 -4.4,1.61924 -9.2689,3.43713 -10.81978,4.03976 -2.58451,1.00426 -2.79311,0.91812 -2.5,-1.03246 z m 20.04895,-14.06292 c 0.61807,-1.85422 2.77083,-2.16176 2.77083,-0.39583 0,0.87083 -0.7125,1.58333 -1.58333,1.58333 -0.87084,0 -1.40521,-0.53438 -1.1875,-1.1875 z m -20.22917,-4.09326 c 0,-2.72699 0.50638,-3.4719 3,-4.41314 2.72239,-1.02759 3,-1.54964 3,-5.64168 0,-4.26905 0.18697,-4.57102 3.50914,-5.66744 4.63367,-1.52925 6.49086,-3.5237 6.49086,-6.97058 0,-2.24621 0.61949,-3.04671 3,-3.87656 2.66978,-0.93069 3,-0.82969 3,0.91756 0,2.9768 -6.85545,12.6795 -9.41208,13.32118 -2.52064,0.63264 -4.83861,4.79455 -3.95409,7.09957 1.46786,3.82519 8.36617,0.22047 8.36617,-4.37176 0,-1.22437 1.76238,-4.82135 3.9164,-7.99329 2.15403,-3.17194 4.06653,-7.01394 4.25,-8.53779 0.24419,-2.02806 1.20464,-3.13487 3.5836,-4.12969 l 3.25,-1.35907 v 4.95982 c 0,4.79699 -0.12311,5.00926 -3.75,6.4656 -4.20534,1.6886 -8.24745,6.84955 -8.25497,10.53991 -0.008,4.04201 -3.95254,7.48778 -11.80224,10.31049 -4.01897,1.44519 -7.50647,2.62763 -7.75,2.62763 -0.24353,0 -0.44279,-1.47634 -0.44279,-3.28076 z m 0,-12.58252 v -6.80051 l 6.56012,-2.60276 6.56011,-2.60277 -0.31011,2.59047 c -0.24046,2.00862 -1.19773,2.89632 -4.26193,3.95218 -4.72803,1.62918 -5.51278,2.68863 -5.53288,7.46968 -0.01,2.30482 -0.56631,3.85445 -1.51531,4.21862 -1.24271,0.47687 -1.5,-0.59085 -1.5,-6.22491 z m 11.22917,4.67578 c 0.61807,-1.85422 2.77083,-2.16176 2.77083,-0.39583 0,0.87083 -0.7125,1.58333 -1.58333,1.58333 -0.87084,0 -1.40521,-0.53438 -1.1875,-1.1875 z m 17.28091,-1.79619 c -0.73755,-1.19337 0.19857,-3.01631 1.54894,-3.01631 1.2168,0 1.22469,2.70662 0.0101,3.45729 -0.512,0.31644 -1.21356,0.11799 -1.55902,-0.44098 z M 99.571864,138.61506 c 10.287826,-4.68831 10.354516,-4.81274 7.335986,-13.68758 -1.37838,-4.05261 -2.86153,-7.72376 -3.29588,-8.15811 -0.86797,-0.86797 -19.184646,5.93574 -19.184646,7.12611 0,0.61018 3.80206,12.30172 5.47607,16.83924 0.66327,1.79782 1.45116,1.62509 9.66847,-2.11966 z m 233.072656,23.10057 -4.2828,-1.02891 0.61592,-5.601 0.61591,-5.601 -4.33312,-2.25278 c -5.44717,-2.83197 -6.22507,-2.81278 -10.24422,0.25278 -1.80272,1.375 -3.66816,2.5 -4.14543,2.5 -0.47727,0 -2.79818,-1.89456 -5.15758,-4.21014 l -4.28982,-4.21014 3.95494,-4.03986 3.95494,-4.03986 -2.72264,-5 -2.72264,-5 h -5.9703 c -5.92727,0 -5.97897,-0.0252 -7.17388,-3.5 -2.10578,-6.12352 -1.69464,-7.81515 2.30564,-9.48658 1.99217,-0.83238 4.42552,-1.51342 5.40745,-1.51342 1.45979,0 1.85923,-1.04846 2.19059,-5.75 0.46021,-6.529757 -0.32303,-7.662057 -6.43926,-9.308987 -3.38304,-0.91096 -3.77946,-1.35603 -3.76725,-4.22955 0.0307,-7.21043 2.61194,-9.89957 7.69163,-8.01302 2.5321,0.9404 16.10475,18.495087 16.73489,21.644697 0.23734,1.18627 0.68765,5.05694 1.00069,8.60149 0.72918,8.25656 3.5404,13.98701 9.39289,19.14672 8.13297,7.17022 11.38369,8.40285 22.16625,8.40514 7.6522,0.002 10.41753,-0.42172 14.21723,-2.17651 5.69179,-2.6286 14.10848,-10.27789 15.79857,-14.35812 1.1943,-2.88329 1.41241,-2.96186 8.22215,-2.96186 6.77275,0 6.97545,0.0716 6.37086,2.25 -0.34344,1.2375 -0.88625,3.22881 -1.20624,4.42512 -0.43453,1.62454 0.46902,3.31513 3.56954,6.6788 l 4.15134,4.50367 -3.67809,4.07121 c -2.02294,2.23916 -4.08466,4.0712 -4.58159,4.0712 -0.49693,0 -2.74389,-1.16178 -4.99323,-2.58172 l -4.08972,-2.58173 -4.92664,3.33173 c -3.82613,2.58748 -4.80674,3.77848 -4.38988,5.33172 0.29522,1.1 0.81457,3.65951 1.1541,5.6878 l 0.61732,3.6878 -5.69201,1.65472 c -3.13061,0.91009 -5.8231,1.50058 -5.98331,1.31219 -0.16022,-0.18838 -1.48249,-2.25501 -2.9384,-4.59251 -2.61959,-4.20585 -2.70724,-4.25 -8.437,-4.25 h -5.78991 l -1.79798,5 c -1.9744,5.49064 -2.40735,5.64625 -10.37991,3.73091 z M 199.7693,138.53253 c -4.12601,-1.79504 -10.8442,-10.37005 -13.07522,-16.68906 l -1.76676,-5.00407 -4.5,0.82266 c -17.78723,3.25174 -28.56359,-2.07453 -28.45074,-14.06192 0.0553,-5.875627 2.35012,-11.065047 8.54457,-19.322507 2.14839,-2.8639 3.90617,-5.69571 3.90617,-6.29291 0,-0.59719 -1.74934,-3.429 -3.88743,-6.2929 -7.59887,-10.17847 -10.2007,-17.87999 -8.14488,-24.10919 1.39287,-4.22044 5.7867,-8.15997 10.57579,-9.4823 3.20916,-0.88609 12.44225,-0.16123 19.04046,1.49482 2.05132,0.51485 2.64131,-0.15113 5.27008,-5.948744 1.69166,-3.730878 4.91705,-8.485388 7.52675,-11.095089 4.2226,-4.222595 4.94897,-4.566595 9.64257,-4.566595 2.79179,0 6.35509,0.661454 7.91845,1.469898 3.75264,1.940568 8.47618,8.017092 11.69159,15.040481 2.51205,5.487039 2.70896,5.659609 5.734,5.025299 7.7725,-1.6298 18.25107,-1.72194 21.91112,-0.19267 4.94435,2.06588 7.71894,6.8094 7.6958,13.15699 -0.0218,5.99043 -2.19929,11.09214 -8.3306,19.51837 -2.51559,3.45715 -4.26958,6.77981 -3.89776,7.38368 0.37182,0.60387 2.61094,3.86762 4.97582,7.25277 5.12098,7.33027 7.27824,12.9881 7.27824,19.088547 0,3.86437 -0.52856,5.02048 -3.78332,8.27525 -3.17788,3.17787 -4.69716,3.8975 -9.49365,4.49678 -3.43748,0.42949 -8.27326,0.22987 -12.14947,-0.50152 -3.54154,-0.66824 -6.88477,-0.93957 -7.42942,-0.60296 -0.54465,0.33661 -1.28638,1.96023 -1.64831,3.60805 -1.08133,4.92328 -7.99559,14.3316 -12.31759,16.7607 -4.49559,2.52666 -8.2744,2.75279 -12.83626,0.76814 z m 10.60386,-9.48983 c 1.51155,-1.61812 4.05459,-5.46081 5.65121,-8.53933 l 2.90295,-5.59729 -2.5,-1.94395 c -1.375,-1.06917 -4.43763,-2.69721 -6.80584,-3.61786 -4.26808,-1.65924 -4.35862,-1.64868 -10.32751,1.20419 -3.31193,1.58295 -6.23019,3.21547 -6.48504,3.62781 -1.14519,1.85297 7.76925,15.5241 10.96257,16.81213 3.28326,1.3243 3.64722,1.21703 6.60166,-1.9457 z m -32.07885,-19.59957 4.36698,-0.67373 -0.69006,-6.09936 c -0.37954,-3.354647 -1.27676,-7.468697 -1.99383,-9.142337 -1.75581,-4.09806 -7.03847,-8.95328 -8.94535,-8.22154 -2.19282,0.84146 -8.22846,9.4589 -10.1756,14.52829 -1.60108,4.168427 -1.58899,4.459187 0.29022,6.976187 3.0601,4.09867 5.35778,4.4514 17.14764,2.63249 z m 71.25704,-1.07065 c 1.03178,-0.93376 1.87597,-2.66464 1.87597,-3.8464 0,-3.00981 -4.40941,-11.524927 -8.29657,-16.021697 l -3.26624,-3.77849 -4.60109,3.87942 c -4.90091,4.1322 -5.8361,6.44696 -5.8361,14.445387 0,5.46464 0.32696,5.7988 6.80028,6.94995 6.10893,1.08636 10.98228,0.49083 13.32375,-1.62817 z m -55.19429,-4.80457 2.42973,-1.34594 -3.17973,-1.64431 -3.17974,-1.644297 v 3.025677 c 0,3.37246 0.42899,3.54809 3.92974,1.60887 z m 27.05495,-2.85887 c 0.0144,-1.673477 -0.16771,-1.681037 -3.16443,-0.13138 l -3.17973,1.64431 2.42301,1.29676 c 2.6446,1.41534 3.89242,0.52122 3.92115,-2.80969 z m -5.73469,-8.276427 7.75,-4.51599 v -9.3908 -9.39079 l -8.99175,-5.14559 -8.99176,-5.14558 -8.52754,4.82043 -8.52754,4.82043 0.2693,9.97158 0.26929,9.97158 7.5,4.26847 c 4.125,2.34766 8.4,4.26483 9.5,4.26036 1.1,-0.004 5.4875,-2.04031 9.75,-4.5241 z m -13.79545,-9.90243 c -1.88982,-1.88982 -2.40161,-3.17541 -1.91568,-4.81211 2.0615,-6.94343 11.46113,-5.73543 11.46113,1.47295 0,2.77027 -1.26688,4.17099 -4.73335,5.23342 -1.65077,0.50594 -2.90603,0.0118 -4.8121,-1.89426 z m -21.45455,-4.54546 c 0,-2.10908 -1.45488,-2.69103 -2.5,-1 -0.7292,1.17988 0.21667,3 1.55902,3 0.51754,0 0.94098,-0.9 0.94098,-2 z m 53,0.5 c 0,-0.825 -0.42344,-1.5 -0.94098,-1.5 -1.26098,0 -2.1641,1.56159 -1.36517,2.36052 1.12619,1.12619 2.30615,0.68589 2.30615,-0.86052 z m -57.2691,-10.53348 c 4.34796,-3.19753 5.08225,-4.99663 5.44412,-13.33867 0.2571,-5.92676 -1.12867,-7.22826 -8.70405,-8.17474 -6.41581,-0.8016 -12.04168,0.7973 -12.78326,3.63308 -0.72379,2.76778 0.7779,7.49346 3.91879,12.33204 2.95839,4.55744 6.41486,8.58177 7.37081,8.58177 0.34578,0 2.48489,-1.36507 4.75359,-3.03348 z m 68.35429,-1.21652 c 8.68243,-11.91201 9.04,-18.42555 1.12061,-20.41319 -2.8906,-0.7255 -15.0051,1.02588 -16.22949,2.34628 -0.41663,0.4493 -0.30716,3.96691 0.24327,7.81691 0.85593,5.98683 1.52079,7.54277 4.59355,10.75 1.97602,2.0625 4.39862,3.75 5.38355,3.75 0.98492,0 3.18476,-1.9125 4.88851,-4.25 z m -49.85163,-10.875 c 2.09896,-1.12332 2.09849,-1.12699 -0.31574,-2.46456 -3.40603,-1.88707 -3.91782,-1.74474 -3.91782,1.08956 0,2.7453 1.04125,3.08348 4.23356,1.375 z m 26.76644,-0.81598 c 0,-2.65428 -1.53068,-3.38056 -4.15955,-1.97363 -2.12554,1.13756 -2.13682,1.22473 -0.32954,2.54625 2.64369,1.93311 4.48909,1.69772 4.48909,-0.57262 z m -8.92931,-8.80902 c 6.49882,-3.29171 6.65112,-4.65445 1.43202,-12.813216 -4.23969,-6.627697 -7.53523,-8.503746 -11.22444,-6.389715 -2.67365,1.532083 -10.52384,13.624891 -10.0027,15.408631 0.36951,1.26476 10.59115,6.46717 12.79512,6.51221 0.86387,0.0176 4.01387,-1.20541 7,-2.71791 z m 122.17814,87.088697 c -1.80898,-0.25906 -3.93593,-1.43553 -4.79485,-2.65215 -5.86955,-8.31399 -7.29008,-11.53205 -8.24869,-18.68655 -1.32208,-9.86722 -1.8873,-11.13218 -9.40808,-21.055197 -8.49892,-11.2136 -10.30096,-14.3385 -12.33795,-21.3951 -4.89955,-16.97323 4.28562,-38.106037 20.36655,-46.858376 5.82927,-3.172687 15.82885,-5.665327 22.67419,-5.652095 25.46442,0.04922 46.11729,23.421901 42.60591,48.216741 -1.24347,8.78051 -3.67715,13.89129 -10.59227,22.24403 -7.35108,8.87935 -10.16711,15.011567 -11.36595,24.750647 -0.77147,6.26724 -1.63062,8.7699 -4.48894,13.07615 -1.94418,2.92902 -4.17152,5.85387 -4.94965,6.49966 -1.53822,1.27661 -14.22263,2.2623 -19.46027,1.51224 z m 16.16938,-4.94569 c 0.86999,-0.33384 1.58179,-1.23384 1.58179,-2 0,-1.09781 -2.11913,-1.39301 -10,-1.39301 -9.72989,0 -11.92767,0.77786 -8.25,2.9199 1.90358,1.10873 14.109,1.45517 16.66821,0.47311 z m 4.64753,-9.42819 c 1.06384,-0.56935 1.93426,-1.91935 1.93426,-3 0,-1.86577 -0.7562,-1.96482 -15,-1.96482 -13.77778,0 -15,0.14667 -15,1.8 0,3.6044 2.023,4.2 14.26574,4.2 6.52616,0 12.73616,-0.46583 13.8,-1.03518 z M 333.92732,92.525723 v -15.95901 l -3.36061,-0.68731 c -4.17493,-0.85387 -5.91886,-2.54204 -6.70944,-6.49492 -0.86553,-4.32766 2.9532,-8.73309 7.57005,-8.73309 3.9077,0 8,4.03557 8,7.8891 0,2.04915 0.48492,2.44423 3,2.44423 2.67662,0 3,-0.32828 3,-3.04545 0,-6.94645 8.60502,-10.44043 13.54545,-5.5 4.94044,4.94043 1.44645,13.54545 -5.5,13.54545 h -3.04545 v 16.5 16.499997 h 3.38871 c 3.1316,0 3.43889,-0.28452 4.05008,-3.75 1.29717,-7.354907 2.81393,-10.395887 9.23696,-18.519247 3.57936,-4.52691 7.59833,-10.36655 8.93103,-12.97698 3.35344,-6.56855 4.0773,-14.85972 1.94888,-22.32286 -8.09022,-28.367802 -43.44945,-36.833341 -63.10868,-15.10919 -7.32598,8.09547 -9.78672,14.69009 -9.20856,24.67828 0.52381,9.04924 3.07686,14.57447 12.35022,26.72798 5.7148,7.48972 9.41136,15.351867 9.41136,20.016877 0,0.95663 1.00009,1.28543 3.25,1.0685 l 3.25,-0.31336 z m 11.5,-0.041 v -16.5 h -3 -3 v 16.5 16.499997 h 3 3 z m -11,-23.37755 c 0,-1.03266 -0.69758,-2.4565 -1.55019,-3.1641 -1.27775,-1.06044 -1.82902,-1.00771 -3.13674,0.30001 -2.14063,2.14063 -0.95821,4.74164 2.15555,4.74164 1.80969,0 2.53138,-0.53529 2.53138,-1.87755 z m 21.5,-1.12245 c 0,-2 -0.5,-2.5 -2.5,-2.5 -2,0 -2.5647,0.56471 -2.82352,2.82352 -0.29428,2.56842 -0.0684,2.79429 2.5,2.5 2.25882,-0.25881 2.82352,-0.82352 2.82352,-2.82352 z"
       id="path1" />
  </g>
</svg>
