<?xml version="1.0" encoding="UTF-8" standalone="no"?>
<!-- Created with Inkscape (http://www.inkscape.org/) -->

<svg
   version="1.1"
   id="svg1"
   width="1024"
   height="1024"
   viewBox="0 0 1024 1024"
   sodipodi:docname="vector-electrónica-tablet.svg"
   inkscape:version="1.4 (86a8ad7, 2024-10-11)"
   xmlns:inkscape="http://www.inkscape.org/namespaces/inkscape"
   xmlns:sodipodi="http://sodipodi.sourceforge.net/DTD/sodipodi-0.dtd"
   xmlns="http://www.w3.org/2000/svg"
   xmlns:svg="http://www.w3.org/2000/svg">
  <defs
     id="defs1" />
  <sodipodi:namedview
     id="namedview1"
     pagecolor="#ffffff"
     bordercolor="#000000"
     borderopacity="0.25"
     inkscape:showpageshadow="2"
     inkscape:pageopacity="0.0"
     inkscape:pagecheckerboard="0"
     inkscape:deskcolor="#d1d1d1"
     inkscape:zoom="0.57521479"
     inkscape:cx="571.96026"
     inkscape:cy="687.56925"
     inkscape:window-width="1920"
     inkscape:window-height="1051"
     inkscape:window-x="-9"
     inkscape:window-y="-9"
     inkscape:window-maximized="1"
     inkscape:current-layer="g1" />
  <g
     inkscape:groupmode="layer"
     inkscape:label="Image"
     id="g1">
    <path
       style="fill:#0084ca;fill-opacity:0.99607843"
       d="m 76.48786,922.56688 c -17.6249,-4.7522 -33.37272,-18.8379 -40.44732,-36.1781 l -3.7527,-9.1981 -0.43825,-336.0299 C 31.36381,168.68427 30.62696,194.1916 42.3845,176.47813 49.28763,166.07811 56.25828,160.37575 69.452,154.33547 l 9.5212,-4.35895 434.05437,0.0904 434.0543,0.0904 9.6107,3.65403 c 13.3392,5.0717 26.5047,17.49362 33.4129,31.5259 l 5.4756,11.12226 0.4301,339.47957 c 0.4769,376.299 1.3502,346.3909 -10.5904,362.6684 -7.0983,9.6764 -17.6606,17.432 -30.5019,22.3969 l -9.5094,3.6766 -430.6388,-0.027 c -335.90837,-0.021 -432.3204,-0.4799 -438.28281,-2.0875 z m 182.40801,-68.7848 v -49.3305 l 6.1898,-7.1124 c 3.4044,-3.9119 23.912,-25.0274 45.5725,-46.9235 21.6604,-21.896 39.5908,-40.0405 39.8452,-40.3211 0.2545,-0.2805 -2.1236,-4.3533 -5.2847,-9.0506 -7.1867,-10.6794 -9.3931,-20.7843 -9.3931,-43.0179 v -17.4778 h -46.6459 -46.6459 l -8.9491,-7.9438 c -4.9221,-4.3691 -29.27394,-27.6985 -54.1153,-51.8431 l -45.16611,-43.8993 -40.55531,-8e-4 -40.55531,-8e-4 v 166.1351 166.1351 l 5.04296,10.0919 c 5.34722,10.7007 12.92274,17.3261 24.55487,21.4752 5.0234,1.7918 24.17858,2.2834 91.23191,2.3414 l 84.87349,0.073 z m -131.80299,-56.0948 c -3.13247,-2.9184 -3.66012,-5.2058 -3.66012,-15.8673 v -12.4573 l -9.33128,0.3977 c -7.59398,0.3237 -9.77353,-0.2067 -11.70669,-2.8486 -3.38705,-4.6289 -2.93513,-12.0816 0.96936,-15.9861 3.20482,-3.2048 5.57462,-3.3448 56.63553,-3.3448 51.3805,0 53.4487,0.1243 57.69724,3.4662 5.20803,4.0966 5.66683,9.6583 1.24702,15.1165 -2.65803,3.2825 -4.51603,3.8428 -11.70669,3.5299 l -8.54721,-0.3719 v 11.7867 c 0,10.5977 -0.44638,12.2004 -4.42516,15.8878 -5.38023,4.9862 -7.24957,5.0869 -12.83737,0.6916 -3.84129,-3.0216 -4.39031,-4.782 -4.8246,-15.4696 l -0.49005,-12.06 -15.46955,-0.4809 -15.46955,-0.4808 v 11.8455 c 0,10.3468 -0.51935,12.3648 -4.10495,15.9504 -4.99867,4.9986 -9.13568,5.2044 -13.97593,0.695 z m -19.54777,-79.7082 c -7.69484,-1.802 -10.15532,-12.923 -4.18096,-18.8973 2.45283,-2.4529 5.57462,-3.3448 11.70669,-3.3448 h 8.36192 v -10.8705 c 0,-8.6406 0.68611,-11.5566 3.34477,-14.2153 8.69485,-8.6948 18.39623,-0.6384 18.39623,15.277 v 9.8088 h 15.81438 15.81438 l 0.49136,-12.0672 c 0.44691,-10.9755 0.88013,-12.2849 4.78821,-14.4724 5.68075,-3.1799 12.18667,-1.4029 14.64886,4.001 1.0775,2.3649 1.95909,8.5971 1.95909,13.8493 v 9.5496 l 7.44016,-0.5917 c 6.19687,-0.4929 8.15311,0.1212 11.70669,3.6748 5.36461,5.3646 5.41454,10.1121 0.16159,15.365 l -4.10494,4.105 -51.50183,-0.194 c -28.32601,-0.1067 -53.00697,-0.5465 -54.8466,-0.9773 z m 586.17066,161.3397 v -23.7938 l -47.663,-47.7671 -47.6629,-47.7672 v -20.4201 -20.4202 h -18.3963 -18.3962 l -0.026,37.2105 c -0.014,20.4658 -0.5785,38.0386 -1.2543,39.0507 -2.2203,3.3252 -8.9956,5.9877 -12.8044,5.0317 -6.7112,-1.6844 -7.6567,-7.2926 -7.6567,-45.4153 v -35.8776 h -20.9048 -20.9048 v 38.37 c 0,37.7546 -0.06,38.4117 -3.7169,40.9734 -5.238,3.6689 -9.1732,3.2444 -13.9191,-1.5015 l -4.105,-4.105 v -36.8684 -36.8685 h -20.9048 -20.9048 v 37.6286 c 0,35.3988 -0.1982,37.8269 -3.3447,40.9734 -4.1548,4.1548 -8.5399,4.2549 -13.4163,0.3062 -3.7067,-3.0015 -3.7486,-3.5013 -3.4385,-40.9734 l 0.3139,-37.9348 h -21.7494 c -17.4321,0 -22.0234,0.4897 -23.1301,2.4673 -0.7594,1.357 -21.1163,22.3207 -45.2375,46.586 l -43.8567,44.1187 v 45.3951 45.3951 h 206.5394 206.5395 z m 255.0385,19.859 c 9.2402,-4.3121 19.955,-15.1244 23.5759,-23.7905 1.9381,-4.6386 2.3463,-26.1974 2.3474,-123.9898 l 0.001,-118.3749 -41.3928,0.4667 -41.3928,0.4667 -17.142,17.0635 -17.1419,17.0634 v 12.9909 12.9908 h 16.5386 c 25.6671,0 24.3198,-2.4979 24.951,46.2583 0.5643,43.5863 0.056,49.3313 -4.7904,54.178 -3.0571,3.0571 -5.9059,3.2515 -47.6457,3.2515 h -44.3942 l -8.3424,-0.085 0.1325,-8.1252 v -43.634 -43.634 l 0.033,-4.6811 c 0.034,-4.8541 9.3697,-3.5288 24.9768,-3.5288 h 16.7998 v -16.637 -16.637 l 8.1201,-9.703 c 4.4661,-5.3367 14.976,-16.2881 23.3554,-24.3364 l 15.2352,-14.6334 h 46.0486 46.0486 v -64.3868 -64.3868 h -38.8446 -38.8447 l -46.9327,46.8268 -46.9327,46.8267 h -55.9572 -55.9572 v 20.4839 20.4839 l 26.6753,0.4622 c 21.8485,0.3786 27.2198,0.9551 29.6848,3.1859 3.992,3.6127 3.824,11.425 -0.3352,15.5843 -3.0661,3.066 -5.5747,3.3447 -30.103,3.3447 h -26.7581 l -0.037,22.9953 c -0.04,25.2239 -2.115,33.0469 -11.3504,42.799 -9.0202,9.5247 -15.8777,11.6989 -39.3973,12.4909 l -21.5177,0.7245 0.7142,14.938 0.7142,14.9379 47.5616,47.5794 47.5617,47.5793 0.5259,29.26 0.5259,29.26 112.36,-0.016 112.36,-0.016 z m -71.4558,-153.6874 0.4567,-29.6848 h -30.067 -30.0669 l -0.4927,29.4102 c -0.2709,16.1756 -0.2481,29.6529 0.051,29.9494 0.2989,0.2966 13.8452,0.4202 30.103,0.2747 l 29.5595,-0.2647 z m -541.8396,-148.006 0.4696,-20.4867 h -30.7314 c -28.4349,0 -30.9538,-0.2458 -33.7082,-3.2893 -4.1343,-4.5684 -3.7796,-11.7461 0.7623,-15.4239 3.2972,-2.6699 7.2751,-3.0277 33.6567,-3.0277 h 29.9177 v -20.9048 -20.9048 h -31.5706 c -34.8239,0 -35.8823,-0.3063 -35.8823,-10.3841 0,-3.4129 1.331,-6.2663 3.8889,-8.3376 3.5227,-2.8526 6.6581,-3.1135 33.3083,-2.7722 l 29.4195,0.3767 0.4695,-20.3805 0.4696,-20.3806 h -43.0152 -43.0153 l -31.45729,-31.2993 -31.45732,-31.2994 v -30.5788 -30.5789 h -14.21527 -14.21526 v 30.61 30.61 l -19.80549,19.5615 -19.8055,19.5616 h -32.8746 -32.8746 v 43.4819 43.482 h 45.06522 45.06522 l 39.7048,38.0468 c 52.90749,50.698 64.37209,61.3802 68.34229,63.678 2.3362,1.3521 15.4471,1.8139 43.482,1.5313 l 40.1372,-0.4044 z m 132.7773,29.8264 c 2.0091,-1.0701 7.3356,-18.8131 8.4561,-20.2726 5.7409,-7.4772 -18.0791,-23.594 -28.0613,-23.594 -11.9852,0 -21.6044,28.5317 -13.0388,37.0973 4.4867,4.4867 26.9934,9.7788 32.644,6.7693 z m 59.478,-6.0554 c 5.041,-4.6964 1.1845,-29.7394 -8.6362,-33.8122 -12.7008,-5.2671 -28.4427,5.0242 -28.4427,18.7457 0,11.4716 29.0012,22.592 37.0789,15.0665 z m 64.3968,0.5397 c 8.9352,-7.0284 -4.7402,-37.1216 -15.9994,-37.1216 -6.8814,0 -20.2125,8.3449 -22.2635,14.2284 -2.1591,6.1937 -0.9268,20.8533 4.428,24.604 5.1685,3.6202 28.5518,2.4448 33.8349,-1.7108 z m -123.2191,-59.7869 c 4.4853,-4.4853 7.2575,-20.2697 4.3994,-26.5426 -1.9816,-4.3492 -23.8577,-2.257 -29.3302,-2.257 -5.4517,0 -15.5472,15.7 -15.5472,22.3155 0,11.3957 32.2275,14.7346 40.478,6.4841 z m 64.0324,3.5686 c 6.9104,-6.9104 -1.8103,-32.8474 -10.1957,-38.3417 -7.883,-5.1652 -33.9372,11.0572 -33.9372,20.8921 0,11.2086 36.4034,25.1791 44.1329,17.4496 z m 60.6445,-0.3341 c 7.5111,-7.0563 14.7143,-32.3622 4.2621,-34.9855 -5.3866,-1.352 -45.157,-4.301 -48.4193,2.0076 -2.1929,4.2404 3.8427,24.7404 5.5123,28.7711 1.1129,2.6867 20.7591,5.2895 22.2482,6.1595 4.7173,2.7563 12.352,1.8471 16.3967,-1.9527 z m 244.8198,-55.2508 c 24.8285,-24.8957 47.1749,-46.344 49.6587,-47.6629 3.5685,-1.8949 13.1392,-2.398 45.6124,-2.398 h 41.0964 l -0.458,-129.1917 -0.458,-129.19167 -4.5162,-7.68212 c -2.4839,-4.22517 -7.1755,-9.71047 -10.4258,-12.18956 -11.9191,-9.09116 -14.5529,-9.39504 -81.4304,-9.39504 h -61.6679 v 27.32821 27.32818 l 8.9844,2.0106 c 10.8248,2.4225 21.4514,8.919 29.8261,18.2341 8.3918,9.334 12.4746,17.8426 14.9137,31.0801 5.1095,27.7302 -9.0273,55.8139 -34.6239,68.7829 -9.0394,4.58 -11.3594,5.0172 -26.626,5.0172 -14.8661,0 -17.766,-0.5118 -26.1051,-4.6071 -9.6679,-4.7479 -23.513,-18.1219 -28.5208,-27.5504 l -2.7819,-5.2377 -20.1058,0.3014 -20.1058,0.3013 -29.9848,30.9391 -29.9848,30.9392 7.6207,1.999 c 10.5533,2.7682 20.1993,10.0015 26.1299,19.5941 3.9876,6.4497 5.1474,10.4631 5.6636,19.5988 l 0.6491,11.4881 h 26.5694 c 24.3396,0 26.8502,0.2808 29.9142,3.3448 4.1593,4.1592 4.3273,11.9715 0.3353,15.5843 -2.465,2.2308 -7.8363,2.8072 -29.6849,3.1859 l -26.6752,0.4622 v 19.2324 19.2325 l 27.3146,0.8362 c 24.5571,0.7517 27.5538,1.1639 29.6848,4.0825 2.93,4.0129 3.0633,11.0723 0.2797,14.806 -1.7833,2.3919 -6.1451,2.8689 -29.6848,3.2463 l -27.5943,0.4423 -0.3031,20.4867 -0.3031,20.4868 h 51.3224 51.3224 z m -357.1062,-7.4453 c 7.5206,-8.2725 -28.2117,-45.667 -39.4178,-45.667 -12.1422,0 -20.9064,52.1889 -12.4111,59.9178 7.1729,6.5258 45.5398,-7.3329 51.8289,-14.2508 z m 59.9787,1.2123 c 2.9567,-7.7768 18.6432,-97.1484 -33.6616,-46.7935 -3.4813,3.3514 -17.7938,4.2817 -21.1172,7.6052 -6.8719,6.8718 7.5969,47.3956 17.522,49.496 4.8232,1.0207 35.4696,-5.607 37.2568,-10.3077 z m 53.7556,-12.7389 c 4.4032,-4.4032 -1.1607,-24.9973 -5.5968,-29.7591 -5.0778,-5.4504 -26.705,7.1977 -30.4711,12.9456 -3.6911,5.6333 -5.4392,27.327 -1.6233,31.5435 4.1191,4.5516 38.0666,9.4806 42.6085,4.9391 z m -258.537,-70.676 c 2.886,-24.5549 20.3227,-42.3599 41.4838,-42.3599 h 8.0336 v -34.6541 -34.6541 l -36.7925,-36.9254 -36.7924,-36.9254 V 203.55291 172.28079 H 200.13836 c -83.9474,0 -114.0105,0.51857 -119.15736,2.05538 -9.38844,2.80331 -23.546,16.73898 -25.94559,25.53896 -1.22172,4.48039 -1.8272,39.68875 -1.83344,106.61445 l -0.009,99.925 h 27.9775 27.97749 l 13.83211,-13.7603 13.8321,-13.7602 v -25.5408 -25.5408 h -14.95663 c -13.55991,0 -15.19974,-0.3471 -17.56003,-3.7169 -6.0949,-8.7016 -0.61579,-18.0241 10.59338,-18.0241 h 6.50726 l 0.68885,-24.6676 c 0.59402,-21.272 1.22593,-25.8831 4.59036,-33.4969 4.79512,-10.8516 17.24442,-22.4706 28.00445,-26.137 17.09099,-5.8234 37.79368,-1.9031 50.16369,9.4991 13.04594,12.0254 14.54325,16.5677 15.54735,47.1661 l 0.87671,26.7162 7.28601,1.2395 c 9.4191,1.6024 11.9464,3.8526 11.9464,10.6364 0,8.9631 -3.2695,10.7852 -19.35187,10.7852 h -14.09581 v 24.6487 24.6486 l 26.32048,26.3591 26.3204,26.359 h 37.8361 37.8361 z m 118.0851,-80.6394 c 0,-34.4517 0.3028,-38.6535 3.0278,-42.0187 3.6778,-4.5419 10.8555,-4.8966 15.4239,-0.7622 3.0919,2.7981 3.2893,5.32 3.2893,42.0186 v 39.0418 h 20.9048 20.9048 v -38.0927 c 0,-43.0903 0.5817,-45.5265 10.8705,-45.5265 10.2888,0 10.8705,2.4362 10.8705,45.5265 v 38.0927 h 20.0686 20.0686 l 0.026,-38.8829 c 0.014,-21.3856 0.5785,-39.711 1.2543,-40.723 4.3017,-6.4423 15.0543,-5.974 18.6871,0.8139 1.1001,2.0557 1.774,17.6505 1.774,41.0535 v 37.7385 l 9.6162,-0.044 9.6162,-0.044 27.9479,-29.6411 c 15.3713,-16.3026 33.1682,-35.0973 39.5486,-41.7659 l 11.6007,-12.1248 h 23.5839 23.5839 v -8.0372 c 0,-23.6302 19.0224,-50.443 39.7129,-55.9769 l 7.1139,-1.9026 v -28.08369 -28.08367 l -229.5347,0.002 -229.5347,0.002 0.1161,27.79579 0.1162,27.79577 36.3036,35.3351 36.3036,35.335 -0.045,39.7191 -0.045,39.7192 h 23.4134 23.4134 z m 370.4331,-13.3397 c 8.6024,-3.9178 18.5174,-14.9383 20.7842,-23.1016 2.4714,-8.9001 2.2297,-23.0121 -0.5064,-29.5604 -3.4105,-8.1624 -12.661,-17.9196 -20.2635,-21.3734 -8.3303,-3.7844 -23.8499,-4.0353 -32.2614,-0.5216 -7.9092,3.3038 -14.7483,9.7936 -19.2931,18.3075 -5.0746,9.5063 -5.0343,29.0105 0.08,38.6725 4.0213,7.5973 11.9444,14.9929 19.6851,18.3744 7.3754,3.222 23.8581,2.8084 31.7753,-0.7974 z m -626.30783,-41.6799 c 0,-18.8528 -0.4458,-22.2707 -3.76286,-28.8486 -6.94219,-13.7668 -26.15615,-19.1002 -37.71635,-10.4693 -10.10916,7.5476 -11.13586,10.6078 -12.03707,35.8777 -0.45991,12.8957 -0.52262,23.7572 -0.13937,24.1367 0.38325,0.3796 12.61256,0.6901 27.17624,0.6901 h 26.47941 z"
       id="path1"
       sodipodi:nodetypes="cscssscccsscssscsccccssssscccsscccccsscccsscssssssscsssscccsssssscssscccscsscssscsscccccccccssscccscscccccsssscssscccccccsccccccccsssscccccsscccsscccccccccccccssssccssccccccccccccccsssccccsssscccsssscccccccccccccccccccccsscccscssssssssssssssssssssssssscsssscccssscccssssssscccccssscsssscccsssscccccssssssscsscssscccscccccccsssccccccccscscssccscssscccccccccssscccssscccccsscccsscccsscccccccccccccccsssssssccsssscscs" />
    <ellipse
       style="fill:#f7bf74;fill-opacity:0.988235;stroke-width:0.993659"
       id="path39"
       cx="171.92201"
       cy="265.94241"
       rx="27.006001"
       ry="26.12245" />
    <rect
       style="fill:#f7bf74;fill-opacity:0.988235;stroke-width:0.888417"
       id="rect40"
       width="54.088837"
       height="44.561829"
       x="144.91597"
       y="262.79239"
       ry="0" />
    <ellipse
       style="fill:#f7bf74;fill-opacity:0.988235;stroke-width:0.95239"
       id="path41"
       cx="807.81152"
       cy="288.60757"
       rx="41.334934"
       ry="41.488594" />
    <rect
       style="fill:#5bb87a;fill-opacity:1;stroke-width:1.01081"
       id="rect42"
       width="61.281456"
       height="60.629524"
       x="816.86877"
       y="715.16766" />
    <path
       id="path38"
       style="baseline-shift:baseline;display:inline;overflow:visible;vector-effect:none;fill:#053992;fill-opacity:1;enable-background:accumulate;stop-color:#000000"
       d="m 378.36922,378.0376 c -23.4954,0 -42.41211,18.9167 -42.41211,42.4121 v 256.3066 c 0,23.4954 18.91671,42.4102 42.41211,42.4102 h 270.4434 c 23.4954,0 42.4101,-18.9148 42.4101,-42.4102 V 420.4497 c 0,-23.4954 -18.9147,-42.4121 -42.4101,-42.4121 z m 1.48437,22.1211 h 266.35153 c 1.6127,0 3.1864,0.1615 4.7051,0.4707 1.5187,0.3092 2.983,0.7659 4.377,1.3535 1.3939,0.5876 2.7166,1.3072 3.955,2.1426 2.477,1.6706 4.6126,3.8062 6.2832,6.2832 0.8354,1.2385 1.555,2.5611 2.1426,3.9551 0.5877,1.3939 1.0444,2.8582 1.3535,4.3769 0.3092,1.5187 0.4707,3.0925 0.4707,4.7051 v 252.4434 c 0,1.6126 -0.1615,3.1864 -0.4707,4.705 -0.3091,1.5187 -0.7658,2.983 -1.3535,4.377 -0.5876,1.3939 -1.3072,2.7166 -2.1426,3.9551 -1.6706,2.4769 -3.8062,4.6125 -6.2832,6.2832 -1.2384,0.8353 -2.5611,1.5549 -3.955,2.1425 -1.394,0.5877 -2.8583,1.0444 -4.377,1.3536 -1.5187,0.3091 -3.0924,0.4707 -4.7051,0.4707 H 379.85359 c -1.61265,0 -3.18635,-0.1616 -4.70508,-0.4707 -1.51872,-0.3092 -2.9829,-0.7659 -4.37695,-1.3536 -1.39405,-0.5876 -2.71843,-1.3072 -3.95703,-2.1425 -2.47721,-1.6707 -4.61232,-3.8063 -6.2832,-6.2832 -0.83545,-1.2385 -1.55486,-2.5612 -2.14258,-3.9551 -0.58772,-1.394 -1.04428,-2.8583 -1.35352,-4.377 -0.30924,-1.5186 -0.4707,-3.0924 -0.4707,-4.705 V 423.4458 c 0,-1.6126 0.16146,-3.1864 0.4707,-4.7051 0.30924,-1.5187 0.7658,-2.983 1.35352,-4.3769 0.58772,-1.394 1.30713,-2.7166 2.14258,-3.9551 1.67088,-2.477 3.80599,-4.6126 6.2832,-6.2832 1.2386,-0.8354 2.56298,-1.555 3.95703,-2.1426 1.39405,-0.5876 2.85823,-1.0443 4.37695,-1.3535 1.51873,-0.3092 3.09243,-0.4707 4.70508,-0.4707 z" />
    <path
       id="path39-2"
       style="baseline-shift:baseline;display:inline;overflow:visible;vector-effect:none;fill:#0084ca;fill-opacity:0.99607843;stroke-width:1.00122;enable-background:accumulate;stop-color:#000000"
       d="m 379.79575,399.8884 c -12.91387,0 -23.31197,10.4011 -23.31197,23.3209 v 252.8104 c 0,12.9198 10.3981,23.3209 23.31197,23.3209 h 266.61307 c 12.9137,0 23.31,-10.4012 23.3099,-23.3209 V 423.2093 c 0,-12.9198 -10.3962,-23.3209 -23.3099,-23.3209 z m 133.68586,74.6611 a 14.900363,14.689753 0 0 1 14.90132,14.6893 14.900363,14.689753 0 0 1 -14.90132,14.6893 14.900363,14.689753 0 0 1 -14.89941,-14.6893 14.900363,14.689753 0 0 1 14.89941,-14.6893 z m -57.80091,0.094 a 14.900363,14.689753 0 0 1 14.90132,14.6892 14.900363,14.689753 0 0 1 -14.90132,14.6893 14.900363,14.689753 0 0 1 -14.89931,-14.6893 14.900363,14.689753 0 0 1 14.89931,-14.6892 z m 117.81089,0.5672 a 14.900363,14.689753 0 0 1 14.89942,14.6912 14.900363,14.689753 0 0 1 -14.89942,14.6894 14.900363,14.689753 0 0 1 -14.90132,-14.6894 14.900363,14.689753 0 0 1 14.90132,-14.6912 z m -118.87833,57.4114 a 14.900363,14.689753 0 0 1 14.89942,14.6894 14.900363,14.689753 0 0 1 -14.89942,14.6892 14.900363,14.689753 0 0 1 -14.90132,-14.6892 14.900363,14.689753 0 0 1 14.90132,-14.6894 z m 60.05892,2.003 a 14.900363,14.689753 0 0 1 14.89942,14.6893 14.900363,14.689753 0 0 1 -14.89942,14.6892 14.900363,14.689753 0 0 1 -14.90132,-14.6892 14.900363,14.689753 0 0 1 14.90132,-14.6893 z m 58.05696,0 a 14.900363,14.689753 0 0 1 14.89942,14.6893 14.900363,14.689753 0 0 1 -14.89942,14.6892 14.900363,14.689753 0 0 1 -14.90132,-14.6892 14.900363,14.689753 0 0 1 14.90132,-14.6893 z m -118.55181,56.2124 a 14.900363,14.689753 0 0 1 14.90132,14.6893 14.900363,14.689753 0 0 1 -14.90132,14.6893 14.900363,14.689753 0 0 1 -14.90132,-14.6893 14.900363,14.689753 0 0 1 14.90132,-14.6893 z m 116.94083,1.0895 a 14.900363,14.689753 0 0 1 14.90142,14.6892 14.900363,14.689753 0 0 1 -14.90142,14.6913 14.900363,14.689753 0 0 1 -14.89931,-14.6913 14.900363,14.689753 0 0 1 14.89931,-14.6892 z m -57.75196,0.043 a 14.900363,14.689753 0 0 1 14.89942,14.6893 14.900363,14.689753 0 0 1 -14.89942,14.6893 14.900363,14.689753 0 0 1 -14.90132,-14.6893 14.900363,14.689753 0 0 1 14.90132,-14.6893 z" />
  </g>
</svg>
