<svg xmlns="http://www.w3.org/2000/svg" xmlns:xlink="http://www.w3.org/1999/xlink" width="208" zoomAndPan="magnify" viewBox="0 0 156 155.999997" height="208" preserveAspectRatio="xMidYMid meet" version="1.0"><path fill="#013494" d="M 97.515625 111.871094 C 93.929688 110.320312 92.128906 108.457031 91.167969 105.292969 C 90.765625 103.972656 90.765625 97.660156 91.167969 96.335938 C 92.273438 92.707031 95.191406 90.117188 98.839844 89.523438 C 100.644531 89.234375 103.199219 89.273438 104.839844 89.621094 C 108.847656 90.46875 111.738281 93.574219 112.285156 97.613281 C 112.5625 99.660156 112.402344 104.347656 112.015625 105.582031 C 111.265625 107.96875 109.261719 110.214844 106.859375 111.359375 C 105.519531 112 105.488281 112.007812 101.773438 112.050781 C 99.453125 112.078125 97.839844 112.007812 97.515625 111.871094 Z M 103.457031 107.867188 C 104.78125 107.472656 106.101562 106.339844 106.816406 104.988281 C 107.355469 103.964844 107.375 103.796875 107.378906 100.710938 C 107.378906 97.730469 107.34375 97.429688 106.878906 96.492188 C 105.789062 94.304688 103.949219 93.152344 101.566406 93.167969 C 99.183594 93.183594 97.527344 94.253906 96.398438 96.507812 C 95.890625 97.523438 95.855469 97.773438 95.855469 100.585938 C 95.855469 104.011719 96.125 104.972656 97.476562 106.375 C 99.09375 108.050781 101.125 108.558594 103.457031 107.867188 Z M 2.417969 111.621094 C 2.417969 111.390625 4.359375 106.671875 5.417969 104.339844 C 5.570312 103.996094 5.996094 102.972656 6.359375 102.058594 C 6.726562 101.148438 7.195312 100.027344 7.402344 99.574219 C 7.613281 99.117188 8.269531 97.578125 8.859375 96.152344 C 9.453125 94.730469 10.207031 92.941406 10.539062 92.183594 C 10.871094 91.421875 11.140625 90.710938 11.140625 90.605469 C 11.140625 90.496094 11.332031 90.160156 11.570312 89.863281 C 11.960938 89.367188 12.132812 89.316406 13.40625 89.316406 C 15.816406 89.316406 17.320312 89.539062 17.441406 89.914062 C 17.585938 90.375 19.597656 95.289062 19.953125 96.050781 C 20.113281 96.390625 20.378906 97.042969 20.546875 97.5 C 20.996094 98.722656 22.539062 102.574219 22.871094 103.296875 C 23.03125 103.644531 23.578125 104.949219 24.085938 106.203125 C 24.59375 107.457031 25.292969 109.175781 25.644531 110.019531 C 25.992188 110.863281 26.230469 111.632812 26.171875 111.730469 C 25.992188 112.019531 21.398438 111.941406 21.148438 111.644531 C 21.03125 111.5 20.515625 110.359375 20.007812 109.105469 L 19.078125 106.824219 L 9.5625 106.714844 L 8.664062 109.050781 C 8.167969 110.332031 7.671875 111.5 7.558594 111.644531 C 7.25 112.03125 2.417969 112.007812 2.417969 111.621094 Z M 17.367188 102.480469 C 17.367188 102.425781 17.140625 101.886719 16.863281 101.28125 C 16.585938 100.675781 16.222656 99.8125 16.054688 99.359375 C 15.351562 97.449219 14.597656 95.625 14.449219 95.457031 C 14.289062 95.277344 13.214844 97.382812 13.214844 97.878906 C 13.214844 98.023438 13.136719 98.230469 13.035156 98.339844 C 12.9375 98.449219 12.597656 99.234375 12.28125 100.089844 C 11.964844 100.945312 11.625 101.734375 11.527344 101.84375 C 11.429688 101.949219 11.347656 102.160156 11.347656 102.308594 C 11.347656 102.515625 12.027344 102.578125 14.359375 102.578125 C 16.011719 102.578125 17.367188 102.535156 17.367188 102.480469 Z M 35.226562 111.757812 C 32.445312 111.257812 30.191406 109.683594 28.8125 107.277344 C 27.886719 105.667969 27.683594 104.660156 27.597656 101.261719 C 27.53125 98.648438 27.585938 97.917969 27.964844 96.394531 C 28.898438 92.613281 31.300781 90.167969 34.699219 89.542969 C 36.117188 89.28125 44.75 89.238281 45.148438 89.492188 C 45.34375 89.613281 45.398438 90.171875 45.355469 91.507812 L 45.296875 93.355469 L 40.726562 93.484375 C 38.214844 93.550781 35.925781 93.683594 35.640625 93.773438 C 34.324219 94.191406 33.265625 95.425781 32.773438 97.109375 C 32.230469 98.972656 32.640625 103.550781 33.53125 105.554688 C 33.738281 106.027344 34.257812 106.714844 34.679688 107.085938 L 35.449219 107.757812 L 40.164062 107.761719 C 42.757812 107.761719 45 107.839844 45.148438 107.933594 C 45.34375 108.058594 45.398438 108.613281 45.355469 109.949219 L 45.296875 111.796875 L 40.519531 111.824219 C 37.894531 111.839844 35.511719 111.808594 35.226562 111.757812 Z M 54.847656 111.804688 C 54.734375 111.769531 54.089844 111.578125 53.417969 111.378906 C 51.082031 110.6875 49.125 108.582031 48.253906 105.816406 C 47.84375 104.519531 47.789062 103.890625 47.789062 100.710938 C 47.789062 97.425781 47.835938 96.949219 48.285156 95.636719 C 49.167969 93.066406 50.890625 91.070312 52.867188 90.332031 C 53.5 90.097656 54.996094 89.773438 56.195312 89.613281 C 58.5625 89.300781 64.441406 89.214844 64.875 89.492188 C 65.070312 89.613281 65.125 90.171875 65.082031 91.507812 L 65.023438 93.355469 L 60.140625 93.460938 C 56.839844 93.53125 55.117188 93.644531 54.816406 93.816406 C 53.65625 94.480469 52.542969 96.773438 52.703125 98.171875 L 52.769531 98.742188 L 58.894531 98.847656 L 65.023438 98.953125 L 65.023438 102.679688 L 58.941406 102.734375 C 53.726562 102.78125 52.84375 102.835938 52.738281 103.105469 C 52.550781 103.597656 53.089844 105.285156 53.75 106.253906 C 54.734375 107.707031 54.949219 107.757812 60.078125 107.761719 C 62.570312 107.761719 64.726562 107.839844 64.875 107.933594 C 65.070312 108.058594 65.125 108.613281 65.082031 109.949219 L 65.023438 111.796875 L 60.039062 111.835938 C 57.296875 111.855469 54.960938 111.84375 54.847656 111.804688 Z M 69.035156 111.644531 C 68.886719 111.152344 68.996094 89.394531 69.148438 89.148438 C 69.394531 88.753906 82.175781 88.804688 83.726562 89.207031 C 85.871094 89.765625 87.085938 90.71875 88.089844 92.632812 C 88.375 93.171875 88.472656 93.828125 88.476562 95.222656 C 88.484375 97.332031 88.109375 98.324219 86.769531 99.71875 L 86.027344 100.488281 L 86.867188 101.398438 C 88.171875 102.8125 88.484375 103.640625 88.484375 105.699219 C 88.484375 107.785156 88.054688 108.832031 86.640625 110.222656 C 85.015625 111.8125 84.46875 111.902344 76.261719 111.902344 C 70.722656 111.902344 69.097656 111.84375 69.035156 111.644531 Z M 82.65625 107.148438 C 83.871094 106.011719 83.730469 103.957031 82.378906 103.050781 C 81.707031 102.597656 81.5 102.578125 77.65625 102.578125 L 73.636719 102.578125 L 73.636719 105.148438 C 73.636719 106.652344 73.722656 107.753906 73.84375 107.792969 C 73.957031 107.832031 75.863281 107.816406 78.082031 107.757812 C 82.007812 107.65625 82.136719 107.640625 82.65625 107.148438 Z M 81.929688 98.484375 C 83.464844 97.703125 83.964844 95.871094 83.007812 94.53125 C 82.328125 93.578125 81.507812 93.429688 77.375 93.5 L 73.742188 93.5625 L 73.683594 96.035156 C 73.640625 97.871094 73.691406 98.546875 73.890625 98.671875 C 74.039062 98.765625 75.746094 98.84375 77.6875 98.84375 C 80.640625 98.847656 81.332031 98.789062 81.929688 98.484375 Z M 120.898438 111.570312 C 120.824219 111.378906 120.769531 107.25 120.777344 102.394531 L 120.789062 93.5625 L 117.246094 93.507812 L 113.699219 93.449219 L 113.816406 89.417969 L 132.710938 89.417969 L 132.710938 93.355469 L 129.132812 93.414062 L 125.550781 93.46875 L 125.5 102.632812 L 125.445312 111.796875 L 123.238281 111.855469 C 121.335938 111.90625 121.011719 111.867188 120.898438 111.570312 Z M 59.589844 81.386719 C 59.46875 81.191406 59.65625 80.589844 60.25 79.265625 C 60.640625 78.398438 61.566406 76.292969 63.402344 72.117188 C 63.578125 71.71875 63.929688 70.925781 64.183594 70.355469 C 64.601562 69.414062 65.1875 68.082031 66.328125 65.484375 C 66.554688 64.972656 67.042969 63.855469 67.414062 63 C 67.785156 62.144531 68.300781 60.980469 68.558594 60.410156 C 69.066406 59.277344 69.273438 58.808594 71.027344 54.816406 C 71.679688 53.332031 72.296875 51.933594 72.398438 51.707031 C 72.554688 51.355469 74.277344 47.457031 75.507812 44.660156 C 75.710938 44.207031 76.171875 43.132812 76.535156 42.277344 C 77.6875 39.582031 78.230469 38.546875 78.492188 38.546875 C 78.632812 38.546875 78.871094 38.898438 79.023438 39.324219 C 79.179688 39.753906 79.625 40.800781 80.015625 41.65625 C 80.40625 42.511719 80.851562 43.492188 81.003906 43.832031 C 81.152344 44.175781 81.507812 44.96875 81.789062 45.59375 C 82.375 46.886719 83.023438 48.332031 83.703125 49.839844 C 86.292969 55.601562 86.851562 56.84375 87.339844 57.921875 C 87.648438 58.605469 88.0625 59.539062 88.253906 59.996094 C 88.449219 60.449219 88.683594 60.964844 88.777344 61.132812 C 88.921875 61.402344 90.039062 61.453125 96.539062 61.5 L 104.128906 61.554688 L 104.605469 60.886719 C 105.867188 59.121094 107.640625 58.304688 109.792969 58.5 C 112.410156 58.734375 114.496094 60.851562 114.875 63.65625 C 115.15625 65.738281 113.257812 68.640625 111.152344 69.347656 C 108.964844 70.078125 106.363281 69.460938 105.089844 67.910156 C 104.792969 67.546875 104.414062 67.085938 104.253906 66.886719 C 103.984375 66.554688 103.410156 66.523438 97.738281 66.523438 C 94.320312 66.523438 91.476562 66.59375 91.425781 66.675781 C 91.371094 66.761719 92.042969 68.425781 92.917969 70.371094 C 93.792969 72.320312 94.683594 74.324219 94.902344 74.828125 C 95.3125 75.765625 95.933594 77.144531 97.078125 79.644531 C 97.433594 80.421875 97.726562 81.136719 97.726562 81.238281 C 97.726562 81.496094 92.320312 81.59375 92 81.339844 C 91.855469 81.222656 91.15625 79.824219 90.449219 78.230469 C 89.738281 76.632812 88.796875 74.554688 88.355469 73.605469 C 87.914062 72.660156 87.550781 71.847656 87.550781 71.800781 C 87.550781 71.75 87.257812 71.082031 86.902344 70.308594 C 86.546875 69.535156 86.035156 68.40625 85.765625 67.800781 L 85.273438 66.695312 L 84.59375 67.171875 C 84.222656 67.433594 83.027344 68.3125 81.945312 69.121094 C 80.859375 69.933594 78.476562 71.699219 76.648438 73.046875 C 71.726562 76.679688 70.667969 77.460938 67.929688 79.492188 L 65.4375 81.339844 L 62.5625 81.441406 C 60.980469 81.5 59.640625 81.472656 59.589844 81.386719 Z M 74.097656 68.25 C 77.738281 65.582031 80.628906 63.4375 82.753906 61.832031 C 83.027344 61.625 83.011719 61.484375 82.613281 60.691406 C 82.191406 59.839844 81.503906 58.339844 80.511719 56.109375 C 80.273438 55.570312 79.898438 54.730469 79.683594 54.246094 C 79.464844 53.761719 79.144531 53.015625 78.964844 52.585938 C 78.789062 52.160156 78.558594 51.808594 78.453125 51.808594 C 78.347656 51.808594 77.8125 52.8125 77.269531 54.039062 C 76.722656 55.261719 76.066406 56.730469 75.8125 57.300781 C 75.039062 59.019531 74.550781 60.125 73.84375 61.757812 C 73.46875 62.609375 72.957031 63.777344 72.699219 64.347656 C 72.441406 64.917969 72.03125 65.824219 71.789062 66.367188 C 71.542969 66.90625 71.261719 67.558594 71.160156 67.816406 C 71.058594 68.074219 70.644531 69.007812 70.238281 69.890625 C 69.828125 70.773438 69.539062 71.496094 69.585938 71.496094 C 69.636719 71.496094 71.667969 70.035156 74.097656 68.25 Z M 110.410156 66.410156 C 111.203125 66 111.84375 64.957031 111.84375 64.078125 C 111.84375 62.214844 109.789062 60.785156 108.25 61.574219 C 106.796875 62.320312 106.222656 63.675781 106.773438 65.050781 C 107.363281 66.523438 109 67.136719 110.410156 66.410156 Z M 118.078125 78.632812 C 116.792969 78.039062 116.097656 77.460938 115.660156 76.625 L 115.363281 76.054688 L 106.984375 76.054688 C 100.523438 76.054688 98.5625 75.996094 98.414062 75.796875 C 98.304688 75.652344 98.042969 75.117188 97.832031 74.605469 C 97.617188 74.089844 97.222656 73.167969 96.949219 72.554688 C 96.679688 71.9375 96.507812 71.308594 96.566406 71.15625 C 96.652344 70.925781 98.339844 70.875 106.003906 70.875 L 115.332031 70.875 L 115.746094 70.171875 C 116.503906 68.894531 118.613281 67.769531 120.269531 67.765625 C 122.488281 67.761719 124.714844 69.367188 125.519531 71.554688 C 126.078125 73.0625 126.078125 73.867188 125.523438 75.347656 C 124.347656 78.480469 120.96875 79.972656 118.078125 78.632812 Z M 122.109375 75.355469 C 122.753906 74.75 122.847656 74.53125 122.847656 73.6875 C 122.847656 71.925781 121.878906 70.875 120.253906 70.875 C 118.710938 70.875 117.65625 71.925781 117.65625 73.46875 C 117.65625 75.058594 118.667969 76.050781 120.289062 76.054688 C 121.226562 76.054688 121.460938 75.964844 122.109375 75.355469 Z M 39.027344 76.449219 C 37.910156 76.183594 36.242188 74.703125 35.625 73.433594 C 34.636719 71.390625 35.136719 68.675781 36.804688 67.054688 C 38.066406 65.832031 38.921875 65.484375 40.667969 65.492188 C 42.816406 65.496094 43.710938 65.957031 45.453125 67.941406 L 46.027344 68.59375 L 53.914062 68.59375 C 61.945312 68.59375 62.253906 68.625 61.628906 69.328125 C 61.53125 69.4375 61.332031 69.851562 61.183594 70.253906 C 61.03125 70.652344 60.648438 71.558594 60.324219 72.273438 L 59.738281 73.566406 L 45.878906 73.566406 L 45 74.605469 C 44.519531 75.179688 43.734375 75.84375 43.261719 76.085938 C 42.269531 76.589844 40.328125 76.757812 39.027344 76.449219 Z M 41.890625 73.453125 C 42.738281 73.015625 43.320312 71.992188 43.324219 70.933594 C 43.324219 70.253906 43.183594 69.898438 42.683594 69.332031 C 41.246094 67.699219 38.753906 68.308594 38.109375 70.453125 C 37.914062 71.109375 37.941406 71.339844 38.324219 72.089844 C 39.09375 73.589844 40.546875 74.144531 41.890625 73.453125 Z M 31.59375 60.046875 C 30.480469 59.75 28.554688 57.824219 28.210938 56.65625 C 27.039062 52.691406 29.546875 49.058594 33.460938 49.046875 C 35.378906 49.042969 36.722656 49.769531 38.285156 51.660156 L 38.753906 52.222656 L 53.910156 52.222656 C 62.257812 52.222656 69.070312 52.304688 69.070312 52.402344 C 69.070312 52.566406 68.484375 53.9375 67.394531 56.316406 L 66.992188 57.199219 L 38.746094 57.199219 L 37.554688 58.40625 C 35.832031 60.15625 33.96875 60.671875 31.59375 60.046875 Z M 34.996094 56.796875 C 35.867188 56.179688 36.304688 54.96875 36.003906 54 C 35.417969 52.082031 33.253906 51.390625 31.8125 52.65625 C 29.230469 54.917969 32.199219 58.785156 34.996094 56.796875 Z M 121.136719 60.003906 C 120.078125 59.601562 119 58.746094 118.476562 57.902344 L 118.039062 57.199219 L 104.171875 57.199219 C 92.929688 57.199219 90.257812 57.144531 90.074219 56.925781 C 89.808594 56.605469 88.171875 52.742188 88.171875 52.433594 C 88.171875 52.296875 93.195312 52.222656 102.980469 52.222656 L 117.785156 52.222656 L 118.746094 51.113281 C 120.359375 49.25 122.4375 48.632812 124.820312 49.3125 C 126.90625 49.90625 128.664062 52.390625 128.664062 54.742188 C 128.664062 56.632812 127.179688 58.945312 125.421875 59.792969 C 124.390625 60.289062 122.179688 60.398438 121.136719 60.003906 Z M 124.457031 56.871094 C 125.082031 56.464844 125.753906 55.367188 125.753906 54.757812 C 125.757812 53.257812 124.46875 52.019531 122.90625 52.019531 C 122.1875 52.015625 121.90625 52.144531 121.316406 52.730469 C 120.121094 53.921875 120.078125 55.4375 121.207031 56.5625 C 122.101562 57.457031 123.378906 57.578125 124.457031 56.871094 Z M 124.457031 56.871094 " fill-opacity="1" fill-rule="nonzero"/><path fill="#013494" d="M 142.332031 111.574219 C 142.257812 111.382812 142.207031 107.253906 142.210938 102.398438 L 142.226562 93.566406 L 138.679688 93.507812 L 135.132812 93.453125 L 135.191406 91.4375 L 135.253906 89.421875 L 154.148438 89.421875 L 154.148438 93.359375 L 150.566406 93.414062 L 146.988281 93.472656 L 146.878906 111.800781 L 144.671875 111.859375 C 142.769531 111.910156 142.445312 111.871094 142.332031 111.574219 Z M 142.332031 111.574219 " fill-opacity="1" fill-rule="nonzero"/></svg>