<svg xmlns="http://www.w3.org/2000/svg" xmlns:xlink="http://www.w3.org/1999/xlink" width="1920" zoomAndPan="magnify" viewBox="0 0 1440 449.999984" height="600" preserveAspectRatio="xMidYMid meet" version="1.0"><defs><clipPath id="19ee59f5b7"><path d="M 88 393 L 347 393 L 347 447.75 L 88 447.75 Z M 88 393 " clip-rule="nonzero"/></clipPath><clipPath id="274fc178ae"><path d="M 1204 393 L 1345 393 L 1345 447.75 L 1204 447.75 Z M 1204 393 " clip-rule="nonzero"/></clipPath><clipPath id="4f9ac8f0b7"><path d="M 801 434 L 911 434 L 911 447.75 L 801 447.75 Z M 801 434 " clip-rule="nonzero"/></clipPath></defs><rect x="-144" width="1728" fill="#ffffff" y="-44.999998" height="539.99998" fill-opacity="1"/><rect x="-144" width="1728" fill="#ffffff" y="-44.999998" height="539.99998" fill-opacity="1"/><path fill="#013494" d="M 781.511719 337.421875 C 770.222656 332.539062 764.554688 326.652344 761.527344 316.679688 C 760.261719 312.515625 760.265625 292.613281 761.53125 288.445312 C 765.003906 277 774.183594 268.832031 785.675781 266.96875 C 791.355469 266.046875 799.390625 266.171875 804.558594 267.269531 C 817.164062 269.9375 826.269531 279.730469 827.992188 292.46875 C 828.863281 298.917969 828.359375 313.707031 827.140625 317.59375 C 824.777344 325.117188 818.464844 332.203125 810.914062 335.816406 C 806.695312 337.835938 806.59375 337.847656 794.90625 337.988281 C 787.597656 338.074219 782.523438 337.859375 781.511719 337.421875 Z M 800.207031 324.796875 C 804.371094 323.558594 808.53125 319.988281 810.773438 315.722656 C 812.464844 312.5 812.535156 311.972656 812.542969 302.242188 C 812.550781 292.84375 812.4375 291.886719 810.972656 288.941406 C 807.546875 282.039062 801.75 278.402344 794.253906 278.453125 C 786.753906 278.503906 781.539062 281.882812 777.984375 288.988281 C 776.386719 292.191406 776.28125 292.972656 776.28125 301.839844 C 776.28125 312.644531 777.128906 315.679688 781.386719 320.097656 C 786.476562 325.382812 792.859375 326.976562 800.207031 324.796875 Z M 482.222656 336.636719 C 482.222656 335.902344 488.335938 321.027344 491.65625 313.675781 C 492.144531 312.597656 493.480469 309.363281 494.628906 306.488281 C 495.777344 303.613281 497.253906 300.085938 497.910156 298.648438 C 498.566406 297.210938 500.632812 292.359375 502.496094 287.867188 C 504.363281 283.375 506.738281 277.742188 507.777344 275.34375 C 508.816406 272.949219 509.667969 270.710938 509.667969 270.371094 C 509.667969 270.03125 510.277344 268.976562 511.023438 268.027344 C 512.246094 266.472656 512.800781 266.308594 516.808594 266.308594 C 524.382812 266.308594 529.125 267.011719 529.5 268.191406 C 529.960938 269.652344 536.292969 285.136719 537.410156 287.542969 C 537.910156 288.621094 538.75 290.675781 539.277344 292.113281 C 540.683594 295.964844 545.550781 308.113281 546.59375 310.394531 C 547.09375 311.480469 548.808594 315.601562 550.40625 319.554688 C 552.007812 323.507812 554.214844 328.921875 555.316406 331.585938 C 556.414062 334.25 557.164062 336.675781 556.976562 336.976562 C 556.414062 337.890625 541.949219 337.644531 541.171875 336.703125 C 540.800781 336.253906 539.179688 332.652344 537.574219 328.703125 L 534.652344 321.515625 L 504.707031 321.164062 L 501.875 328.527344 C 500.316406 332.574219 498.753906 336.253906 498.394531 336.703125 C 497.425781 337.921875 482.222656 337.859375 482.222656 336.636719 Z M 529.273438 307.8125 C 529.273438 307.644531 528.558594 305.945312 527.683594 304.035156 C 526.808594 302.125 525.667969 299.398438 525.140625 297.972656 C 522.925781 291.957031 520.558594 286.195312 520.085938 285.667969 C 519.578125 285.101562 516.203125 291.746094 516.203125 293.308594 C 516.203125 293.765625 515.949219 294.417969 515.636719 294.761719 C 515.328125 295.101562 514.257812 297.585938 513.261719 300.28125 C 512.265625 302.976562 511.199219 305.460938 510.886719 305.800781 C 510.578125 306.144531 510.320312 306.804688 510.320312 307.273438 C 510.320312 307.929688 512.457031 308.121094 519.796875 308.121094 C 525.007812 308.121094 529.273438 307.984375 529.273438 307.8125 Z M 585.46875 337.0625 C 576.726562 335.496094 569.625 330.527344 565.28125 322.941406 C 562.378906 317.871094 561.738281 314.683594 561.46875 303.976562 C 561.261719 295.726562 561.433594 293.429688 562.617188 288.621094 C 565.550781 276.703125 573.113281 269 583.820312 267.019531 C 588.277344 266.195312 615.445312 266.066406 616.699219 266.863281 C 617.3125 267.25 617.492188 269.003906 617.355469 273.222656 L 617.164062 279.046875 L 602.785156 279.445312 C 594.878906 279.664062 587.675781 280.078125 586.777344 280.363281 C 582.640625 281.675781 579.296875 285.570312 577.753906 290.882812 C 576.050781 296.757812 577.339844 311.1875 580.136719 317.507812 C 580.792969 318.992188 582.421875 321.164062 583.75 322.332031 L 586.167969 324.453125 L 601.011719 324.464844 C 609.175781 324.46875 616.234375 324.714844 616.699219 325.011719 C 617.3125 325.398438 617.492188 327.152344 617.355469 331.371094 L 617.164062 337.195312 L 602.132812 337.273438 C 593.867188 337.320312 586.367188 337.222656 585.46875 337.0625 Z M 647.222656 337.21875 C 646.863281 337.105469 644.839844 336.496094 642.730469 335.871094 C 635.367188 333.691406 629.210938 327.050781 626.46875 318.328125 C 625.1875 314.25 625.003906 312.261719 625.003906 302.242188 C 625.003906 291.882812 625.152344 290.378906 626.570312 286.234375 C 629.34375 278.140625 634.773438 271.84375 640.988281 269.519531 C 642.980469 268.773438 647.695312 267.75 651.46875 267.246094 C 658.910156 266.257812 677.410156 265.996094 678.78125 266.863281 C 679.390625 267.25 679.570312 269.003906 679.433594 273.222656 L 679.242188 279.046875 L 663.886719 279.375 C 653.5 279.59375 648.078125 279.960938 647.128906 280.503906 C 643.476562 282.597656 639.972656 289.824219 640.480469 294.230469 L 640.6875 296.035156 L 659.964844 296.359375 L 679.242188 296.6875 L 679.242188 308.449219 L 660.105469 308.621094 C 643.695312 308.769531 640.910156 308.9375 640.585938 309.785156 C 639.988281 311.339844 641.695312 316.65625 643.769531 319.71875 C 646.871094 324.292969 647.550781 324.453125 663.691406 324.464844 C 671.523438 324.46875 678.316406 324.714844 678.78125 325.007812 C 679.390625 325.398438 679.570312 327.152344 679.433594 331.371094 L 679.242188 337.195312 L 663.558594 337.3125 C 654.933594 337.375 647.582031 337.335938 647.222656 337.21875 Z M 691.878906 336.703125 C 691.410156 335.152344 691.753906 266.554688 692.234375 265.78125 C 693.003906 264.535156 733.234375 264.699219 738.101562 265.964844 C 744.863281 267.726562 748.683594 270.730469 751.839844 276.761719 C 752.734375 278.46875 753.042969 280.53125 753.058594 284.929688 C 753.085938 291.589844 751.902344 294.707031 747.679688 299.113281 L 745.355469 301.535156 L 748 304.402344 C 752.105469 308.855469 753.085938 311.46875 753.085938 317.964844 C 753.085938 324.535156 751.734375 327.847656 747.273438 332.222656 C 742.160156 337.242188 740.441406 337.519531 714.617188 337.519531 C 697.191406 337.519531 692.070312 337.335938 691.878906 336.703125 Z M 734.742188 322.535156 C 738.5625 318.945312 738.125 312.476562 733.875 309.613281 C 731.75 308.1875 731.097656 308.121094 719.007812 308.121094 L 706.363281 308.121094 L 706.363281 316.234375 C 706.363281 320.96875 706.628906 324.4375 707.003906 324.5625 C 707.359375 324.683594 713.363281 324.632812 720.351562 324.453125 C 732.695312 324.136719 733.101562 324.082031 734.742188 322.535156 Z M 732.453125 295.21875 C 737.289062 292.75 738.859375 286.980469 735.84375 282.746094 C 733.710938 279.753906 731.125 279.277344 718.125 279.503906 L 706.6875 279.699219 L 706.503906 287.488281 C 706.367188 293.28125 706.53125 295.414062 707.15625 295.808594 C 707.617188 296.101562 712.992188 296.34375 719.105469 296.351562 C 728.402344 296.359375 730.578125 296.171875 732.453125 295.21875 Z M 855.089844 336.476562 C 854.859375 335.875 854.691406 322.855469 854.714844 307.542969 L 854.753906 279.703125 L 832.433594 279.34375 L 832.808594 266.632812 L 892.273438 266.632812 L 892.273438 279.046875 L 869.742188 279.40625 L 869.570312 308.300781 L 869.402344 337.195312 L 862.453125 337.378906 C 856.464844 337.539062 855.449219 337.414062 855.089844 336.476562 Z M 662.144531 241.3125 C 661.765625 240.691406 662.351562 238.796875 664.222656 234.621094 C 665.453125 231.878906 668.375 225.246094 674.148438 212.082031 C 674.699219 210.824219 675.804688 208.324219 676.605469 206.527344 C 677.921875 203.558594 679.769531 199.363281 683.355469 191.175781 C 684.0625 189.558594 685.601562 186.03125 686.769531 183.335938 C 687.941406 180.640625 689.558594 176.964844 690.367188 175.167969 C 691.976562 171.597656 692.625 170.125 698.148438 157.527344 C 700.195312 152.855469 702.132812 148.445312 702.453125 147.726562 C 702.949219 146.617188 708.367188 134.324219 712.246094 125.515625 C 712.878906 124.078125 714.335938 120.695312 715.484375 118 C 719.105469 109.496094 720.808594 106.242188 721.632812 106.242188 C 722.074219 106.242188 722.832031 107.34375 723.3125 108.691406 C 723.796875 110.039062 725.199219 113.347656 726.433594 116.042969 C 727.664062 118.734375 729.0625 121.824219 729.535156 122.902344 C 730.011719 123.980469 731.125 126.476562 732.015625 128.453125 C 733.851562 132.535156 735.894531 137.085938 738.03125 141.847656 C 746.179688 160.011719 747.941406 163.929688 749.480469 167.328125 C 750.457031 169.484375 751.753906 172.421875 752.363281 173.859375 C 752.972656 175.296875 753.710938 176.914062 754.003906 177.453125 C 754.457031 178.292969 757.980469 178.460938 778.425781 178.605469 L 802.320312 178.777344 L 803.816406 176.675781 C 807.78125 171.105469 813.371094 168.527344 820.136719 169.140625 C 828.375 169.886719 834.949219 176.566406 836.136719 185.398438 C 837.023438 191.976562 831.050781 201.121094 824.417969 203.347656 C 817.542969 205.65625 809.34375 203.707031 805.347656 198.816406 C 804.40625 197.667969 803.21875 196.214844 802.707031 195.585938 C 801.863281 194.542969 800.058594 194.441406 782.207031 194.441406 C 771.445312 194.441406 762.5 194.660156 762.335938 194.929688 C 762.171875 195.199219 764.285156 200.441406 767.035156 206.582031 C 769.785156 212.71875 772.597656 219.039062 773.285156 220.628906 C 774.566406 223.582031 776.527344 227.933594 780.128906 235.808594 C 781.246094 238.261719 782.164062 240.523438 782.164062 240.835938 C 782.164062 241.65625 765.15625 241.953125 764.140625 241.15625 C 763.6875 240.796875 761.492188 236.386719 759.261719 231.355469 C 757.035156 226.324219 754.070312 219.765625 752.675781 216.777344 C 751.285156 213.792969 750.144531 211.226562 750.144531 211.078125 C 750.144531 210.929688 749.226562 208.816406 748.109375 206.378906 C 746.988281 203.945312 745.378906 200.386719 744.527344 198.472656 L 742.980469 194.988281 L 740.84375 196.488281 C 739.667969 197.316406 735.914062 200.082031 732.5 202.640625 C 729.085938 205.195312 721.585938 210.761719 715.835938 215.015625 C 700.34375 226.464844 697.007812 228.933594 688.390625 235.332031 L 680.550781 241.15625 L 671.5 241.480469 C 666.523438 241.660156 662.3125 241.585938 662.144531 241.3125 Z M 707.808594 199.894531 C 719.265625 191.472656 728.355469 184.714844 735.050781 179.652344 C 735.910156 179.003906 735.855469 178.5625 734.613281 176.0625 C 733.273438 173.367188 731.109375 168.644531 727.992188 161.609375 C 727.238281 159.90625 726.0625 157.257812 725.378906 155.730469 C 724.699219 154.203125 723.683594 151.851562 723.125 150.503906 C 722.566406 149.15625 721.839844 148.054688 721.507812 148.054688 C 721.175781 148.054688 719.5 151.214844 717.785156 155.078125 C 716.066406 158.941406 714.003906 163.570312 713.199219 165.367188 C 710.773438 170.78125 709.238281 174.265625 707.003906 179.414062 C 705.832031 182.109375 704.214844 185.785156 703.40625 187.582031 C 702.59375 189.378906 701.304688 192.242188 700.539062 193.949219 C 699.769531 195.65625 698.882812 197.710938 698.5625 198.523438 C 698.242188 199.332031 696.933594 202.273438 695.652344 205.058594 C 694.375 207.84375 693.453125 210.121094 693.613281 210.121094 C 693.769531 210.121094 700.160156 205.519531 707.808594 199.894531 Z M 822.085938 194.082031 C 824.574219 192.796875 826.59375 189.507812 826.597656 186.730469 C 826.601562 180.859375 820.132812 176.347656 815.285156 178.84375 C 810.714844 181.195312 808.902344 185.464844 810.636719 189.796875 C 812.5 194.449219 817.648438 196.375 822.085938 194.082031 Z M 846.210938 232.628906 C 842.175781 230.757812 839.980469 228.925781 838.609375 226.292969 L 837.675781 224.496094 L 811.304688 224.496094 C 790.972656 224.496094 784.796875 224.308594 784.328125 223.679688 C 783.992188 223.230469 783.171875 221.539062 782.5 219.921875 C 781.828125 218.304688 780.582031 215.394531 779.726562 213.457031 C 778.875 211.519531 778.328125 209.535156 778.515625 209.046875 C 778.792969 208.320312 784.097656 208.160156 808.21875 208.160156 L 837.578125 208.160156 L 838.882812 205.953125 C 841.265625 201.917969 847.90625 198.375 853.109375 198.363281 C 860.097656 198.351562 867.101562 203.410156 869.640625 210.308594 C 871.394531 215.0625 871.394531 217.601562 869.648438 222.269531 C 865.953125 232.148438 855.3125 236.847656 846.210938 232.628906 Z M 858.898438 222.292969 C 860.929688 220.378906 861.234375 219.695312 861.234375 217.035156 C 861.234375 211.476562 858.183594 208.160156 853.0625 208.160156 C 848.207031 208.160156 844.894531 211.476562 844.894531 216.339844 C 844.894531 221.355469 848.078125 224.488281 853.179688 224.492188 C 856.128906 224.492188 856.867188 224.210938 858.898438 222.292969 Z M 597.433594 225.738281 C 593.921875 224.902344 588.671875 220.238281 586.734375 216.238281 C 583.613281 209.796875 585.195312 201.234375 590.445312 196.125 C 594.410156 192.265625 597.105469 191.171875 602.597656 191.1875 C 609.355469 191.210938 612.167969 192.652344 617.660156 198.917969 L 619.460938 200.972656 L 644.289062 200.972656 C 669.5625 200.972656 670.535156 201.066406 668.566406 203.292969 C 668.261719 203.636719 667.628906 204.945312 667.160156 206.199219 C 666.6875 207.457031 665.472656 210.324219 664.460938 212.570312 L 662.621094 216.65625 L 619 216.65625 L 616.238281 219.933594 C 614.714844 221.734375 612.253906 223.832031 610.761719 224.59375 C 607.632812 226.1875 601.523438 226.714844 597.433594 225.738281 Z M 606.441406 216.296875 C 609.117188 214.914062 610.949219 211.683594 610.953125 208.347656 C 610.953125 206.203125 610.511719 205.085938 608.945312 203.304688 C 604.421875 198.152344 596.570312 200.078125 594.546875 206.832031 C 593.925781 208.90625 594.023438 209.632812 595.226562 211.996094 C 597.640625 216.722656 602.222656 218.476562 606.441406 216.296875 Z M 574.042969 174.019531 C 570.535156 173.09375 564.472656 167.011719 563.390625 163.332031 C 559.710938 150.832031 567.601562 139.382812 579.914062 139.347656 C 585.953125 139.328125 590.1875 141.625 595.105469 147.585938 L 596.570312 149.359375 L 644.277344 149.359375 C 670.542969 149.359375 691.984375 149.613281 691.984375 149.925781 C 691.984375 150.433594 690.136719 154.757812 686.710938 162.265625 L 685.445312 165.042969 L 596.546875 165.042969 L 592.804688 168.851562 C 587.382812 174.371094 581.511719 175.988281 574.042969 174.019531 Z M 584.75 163.78125 C 587.488281 161.832031 588.863281 158.011719 587.925781 154.953125 C 586.074219 148.917969 579.269531 146.734375 574.726562 150.722656 C 566.597656 157.855469 575.953125 170.046875 584.75 163.78125 Z M 855.84375 173.882812 C 852.515625 172.613281 849.117188 169.929688 847.46875 167.257812 L 846.097656 165.042969 L 802.449219 165.042969 C 767.074219 165.042969 758.664062 164.878906 758.082031 164.179688 C 757.246094 163.171875 752.105469 150.988281 752.105469 150.019531 C 752.105469 149.582031 767.910156 149.359375 798.703125 149.359375 L 845.300781 149.359375 L 848.324219 145.859375 C 853.402344 139.980469 859.945312 138.035156 867.441406 140.179688 C 873.996094 142.054688 879.53125 149.886719 879.53125 157.296875 C 879.53125 163.257812 874.859375 170.546875 869.324219 173.222656 C 866.082031 174.792969 859.125 175.132812 855.84375 173.882812 Z M 866.292969 164.015625 C 868.257812 162.730469 870.375 159.269531 870.378906 157.34375 C 870.386719 152.617188 866.335938 148.714844 861.417969 148.710938 C 859.148438 148.707031 858.265625 149.101562 856.414062 150.957031 C 852.652344 154.714844 852.515625 159.488281 856.0625 163.039062 C 858.878906 165.855469 862.902344 166.238281 866.292969 164.015625 Z M 866.292969 164.015625 " fill-opacity="1" fill-rule="nonzero"/><path fill="#013494" d="M 922.550781 336.480469 C 922.320312 335.882812 922.148438 322.863281 922.171875 307.550781 L 922.214844 279.707031 L 911.054688 279.53125 L 899.894531 279.351562 L 900.078125 272.996094 L 900.265625 266.640625 L 959.730469 266.640625 L 959.730469 279.054688 L 937.199219 279.414062 L 937.03125 308.308594 L 936.859375 337.203125 L 929.914062 337.386719 C 923.925781 337.546875 922.910156 337.421875 922.550781 336.480469 Z M 922.550781 336.480469 " fill-opacity="1" fill-rule="nonzero"/><path fill="#1c75bc" d="M 1289.847656 14.800781 L 143.269531 14.800781 C 116.503906 14.800781 94.730469 36.566406 94.730469 63.339844 L 94.730469 393.339844 C 94.730469 393.761719 94.730469 394.203125 94.746094 394.625 C 95.433594 420.804688 116.941406 441.878906 143.269531 441.878906 L 1289.847656 441.878906 C 1316.609375 441.878906 1338.382812 420.113281 1338.382812 393.339844 L 1338.382812 63.339844 C 1338.398438 36.566406 1316.625 14.800781 1289.847656 14.800781 Z M 1337.097656 393.355469 C 1337.097656 419.40625 1315.902344 440.59375 1289.863281 440.59375 L 143.269531 440.59375 C 117.648438 440.59375 96.738281 420.113281 96.046875 394.640625 C 96.03125 394.21875 96.03125 393.777344 96.03125 393.355469 L 96.03125 63.339844 C 96.03125 37.289062 117.226562 16.101562 143.269531 16.101562 L 1289.847656 16.101562 C 1315.886719 16.101562 1337.082031 37.289062 1337.082031 63.339844 L 1337.082031 393.355469 Z M 1337.097656 393.355469 " fill-opacity="1" fill-rule="nonzero"/><path fill="#1c75bc" d="M 530.449219 440.59375 C 529.742188 414.414062 508.25 393.339844 481.925781 393.339844 L 94.730469 393.339844 L 94.730469 393.355469 C 94.730469 393.777344 94.730469 394.21875 94.746094 394.640625 L 481.925781 394.640625 C 507.527344 394.640625 528.441406 415.136719 529.148438 440.59375 C 529.164062 441.015625 529.164062 441.457031 529.164062 441.894531 L 530.464844 441.894531 C 530.464844 441.472656 530.464844 441.015625 530.449219 440.59375 Z M 530.449219 440.59375 " fill-opacity="1" fill-rule="nonzero"/><g clip-path="url(#19ee59f5b7)"><path fill="#1c75bc" d="M 143.269531 434.738281 L 346.113281 434.738281 L 346.113281 447.765625 L 143.269531 447.765625 C 113.273438 447.765625 88.863281 423.347656 88.863281 393.339844 L 101.882812 393.339844 C 101.898438 416.171875 120.457031 434.738281 143.269531 434.738281 Z M 143.269531 434.738281 " fill-opacity="1" fill-rule="nonzero"/></g><g clip-path="url(#274fc178ae)"><path fill="#1c75bc" d="M 1344.25 393.339844 C 1344.25 423.347656 1319.839844 447.765625 1289.847656 447.765625 L 1204.046875 447.765625 L 1204.046875 434.738281 L 1289.847656 434.738281 C 1312.671875 434.738281 1331.230469 416.171875 1331.230469 393.339844 Z M 1344.25 393.339844 " fill-opacity="1" fill-rule="nonzero"/></g><path fill="#1c75bc" d="M 1289.847656 21.957031 L 1087 21.957031 L 1087 8.929688 L 1289.847656 8.929688 C 1319.839844 8.929688 1344.25 33.351562 1344.25 63.355469 L 1331.230469 63.355469 C 1331.230469 40.523438 1312.671875 21.957031 1289.847656 21.957031 Z M 1289.847656 21.957031 " fill-opacity="1" fill-rule="nonzero"/><path fill="#1c75bc" d="M 88.863281 63.355469 C 88.863281 33.351562 113.273438 8.929688 143.269531 8.929688 L 229.066406 8.929688 L 229.066406 21.957031 L 143.269531 21.957031 C 120.441406 21.957031 101.882812 40.523438 101.882812 63.355469 Z M 88.863281 63.355469 " fill-opacity="1" fill-rule="nonzero"/><path fill="#1c75bc" d="M 465.972656 9.574219 L 718.566406 9.574219 L 718.566406 22.597656 L 465.972656 22.597656 Z M 465.972656 9.574219 " fill-opacity="1" fill-rule="nonzero"/><path fill="#1c75bc" d="M 136.773438 74.1875 L 389.367188 74.1875 L 389.367188 87.210938 L 136.773438 87.210938 Z M 136.773438 74.1875 " fill-opacity="1" fill-rule="nonzero"/><path fill="#1c75bc" d="M 876.011719 74.1875 L 984.367188 74.1875 L 984.367188 87.210938 L 876.011719 87.210938 Z M 876.011719 74.1875 " fill-opacity="1" fill-rule="nonzero"/><g clip-path="url(#4f9ac8f0b7)"><path fill="#1c75bc" d="M 801.914062 434.082031 L 910.273438 434.082031 L 910.273438 447.105469 L 801.914062 447.105469 Z M 801.914062 434.082031 " fill-opacity="1" fill-rule="nonzero"/></g><path fill="#1c75bc" d="M 88.21875 254.683594 L 101.238281 254.683594 L 101.238281 333.386719 L 88.21875 333.386719 Z M 88.21875 254.683594 " fill-opacity="1" fill-rule="nonzero"/><path fill="#1c75bc" d="M 88.21875 191.355469 L 101.238281 191.355469 L 101.238281 220.265625 L 88.21875 220.265625 Z M 88.21875 191.355469 " fill-opacity="1" fill-rule="nonzero"/><path fill="#1c75bc" d="M 1331.230469 245.972656 L 1344.25 245.972656 L 1344.25 357.746094 L 1331.230469 357.746094 Z M 1331.230469 245.972656 " fill-opacity="1" fill-rule="nonzero"/><path fill="#1c75bc" d="M 1347.71875 136.191406 C 1347.71875 136.890625 1347.652344 137.582031 1347.515625 138.269531 C 1347.378906 138.953125 1347.175781 139.617188 1346.910156 140.265625 C 1346.640625 140.910156 1346.3125 141.523438 1345.925781 142.105469 C 1345.539062 142.683594 1345.097656 143.222656 1344.605469 143.714844 C 1344.109375 144.210938 1343.574219 144.652344 1342.992188 145.039062 C 1342.410156 145.429688 1341.796875 145.753906 1341.152344 146.023438 C 1340.507812 146.289062 1339.84375 146.492188 1339.15625 146.628906 C 1338.472656 146.765625 1337.78125 146.832031 1337.082031 146.832031 C 1336.382812 146.832031 1335.691406 146.765625 1335.007812 146.628906 C 1334.320312 146.492188 1333.65625 146.289062 1333.011719 146.023438 C 1332.367188 145.753906 1331.753906 145.429688 1331.171875 145.039062 C 1330.59375 144.652344 1330.054688 144.210938 1329.5625 143.714844 C 1329.066406 143.222656 1328.625 142.683594 1328.238281 142.105469 C 1327.851562 141.523438 1327.523438 140.910156 1327.253906 140.265625 C 1326.988281 139.617188 1326.785156 138.953125 1326.648438 138.269531 C 1326.515625 137.582031 1326.445312 136.890625 1326.445312 136.191406 C 1326.445312 135.492188 1326.515625 134.800781 1326.648438 134.117188 C 1326.785156 133.429688 1326.988281 132.765625 1327.253906 132.121094 C 1327.523438 131.476562 1327.851562 130.863281 1328.238281 130.28125 C 1328.625 129.699219 1329.066406 129.164062 1329.5625 128.667969 C 1330.054688 128.175781 1330.59375 127.734375 1331.171875 127.34375 C 1331.753906 126.957031 1332.367188 126.628906 1333.011719 126.363281 C 1333.65625 126.09375 1334.320312 125.894531 1335.007812 125.757812 C 1335.691406 125.621094 1336.382812 125.550781 1337.082031 125.550781 C 1337.78125 125.550781 1338.472656 125.621094 1339.15625 125.757812 C 1339.84375 125.894531 1340.507812 126.09375 1341.152344 126.363281 C 1341.796875 126.628906 1342.410156 126.957031 1342.992188 127.34375 C 1343.574219 127.734375 1344.109375 128.175781 1344.605469 128.667969 C 1345.097656 129.164062 1345.539062 129.699219 1345.925781 130.28125 C 1346.3125 130.863281 1346.640625 131.476562 1346.910156 132.121094 C 1347.175781 132.765625 1347.378906 133.429688 1347.515625 134.117188 C 1347.652344 134.800781 1347.71875 135.492188 1347.71875 136.191406 Z M 1347.71875 136.191406 " fill-opacity="1" fill-rule="nonzero"/><path fill="#1c75bc" d="M 1337.082031 150.992188 C 1328.925781 150.992188 1322.304688 144.351562 1322.304688 136.207031 C 1322.304688 128.046875 1328.941406 121.425781 1337.082031 121.425781 C 1345.242188 121.425781 1351.859375 128.0625 1351.859375 136.207031 C 1351.875 144.351562 1345.242188 150.992188 1337.082031 150.992188 Z M 1337.082031 122.710938 C 1329.644531 122.710938 1323.605469 128.769531 1323.605469 136.191406 C 1323.605469 143.617188 1329.660156 149.671875 1337.082031 149.671875 C 1344.519531 149.671875 1350.558594 143.617188 1350.558594 136.191406 C 1350.558594 128.769531 1344.519531 122.710938 1337.082031 122.710938 Z M 1337.082031 122.710938 " fill-opacity="1" fill-rule="nonzero"/><path fill="#1c75bc" d="M 1233.777344 80.699219 C 1233.777344 81.398438 1233.707031 82.089844 1233.570312 82.773438 C 1233.4375 83.460938 1233.234375 84.125 1232.964844 84.769531 C 1232.699219 85.414062 1232.371094 86.027344 1231.984375 86.609375 C 1231.597656 87.191406 1231.15625 87.730469 1230.660156 88.222656 C 1230.167969 88.714844 1229.628906 89.15625 1229.050781 89.546875 C 1228.46875 89.933594 1227.855469 90.261719 1227.210938 90.527344 C 1226.566406 90.796875 1225.898438 91 1225.214844 91.132812 C 1224.53125 91.269531 1223.839844 91.339844 1223.140625 91.339844 C 1222.441406 91.339844 1221.75 91.269531 1221.066406 91.132812 C 1220.378906 91 1219.714844 90.796875 1219.070312 90.527344 C 1218.425781 90.261719 1217.8125 89.933594 1217.230469 89.546875 C 1216.648438 89.15625 1216.113281 88.714844 1215.617188 88.222656 C 1215.125 87.730469 1214.683594 87.191406 1214.296875 86.609375 C 1213.90625 86.027344 1213.582031 85.414062 1213.3125 84.769531 C 1213.046875 84.125 1212.84375 83.460938 1212.707031 82.773438 C 1212.570312 82.089844 1212.503906 81.398438 1212.503906 80.699219 C 1212.503906 80 1212.570312 79.308594 1212.707031 78.621094 C 1212.84375 77.9375 1213.046875 77.273438 1213.3125 76.625 C 1213.582031 75.980469 1213.90625 75.367188 1214.296875 74.785156 C 1214.683594 74.207031 1215.125 73.667969 1215.617188 73.175781 C 1216.113281 72.679688 1216.648438 72.238281 1217.230469 71.851562 C 1217.8125 71.464844 1218.425781 71.136719 1219.070312 70.867188 C 1219.714844 70.601562 1220.378906 70.398438 1221.066406 70.261719 C 1221.75 70.125 1222.441406 70.058594 1223.140625 70.058594 C 1223.839844 70.058594 1224.53125 70.125 1225.214844 70.261719 C 1225.898438 70.398438 1226.566406 70.601562 1227.210938 70.867188 C 1227.855469 71.136719 1228.46875 71.464844 1229.050781 71.851562 C 1229.628906 72.238281 1230.167969 72.679688 1230.660156 73.175781 C 1231.15625 73.667969 1231.597656 74.207031 1231.984375 74.785156 C 1232.371094 75.367188 1232.699219 75.980469 1232.964844 76.625 C 1233.234375 77.273438 1233.4375 77.9375 1233.570312 78.621094 C 1233.707031 79.308594 1233.777344 80 1233.777344 80.699219 Z M 1233.777344 80.699219 " fill-opacity="1" fill-rule="nonzero"/><path fill="#1c75bc" d="M 1223.140625 95.480469 C 1214.980469 95.480469 1208.363281 88.84375 1208.363281 80.699219 C 1208.363281 72.554688 1214.996094 65.914062 1223.140625 65.914062 C 1231.28125 65.914062 1237.917969 72.554688 1237.917969 80.699219 C 1237.917969 88.84375 1231.28125 95.480469 1223.140625 95.480469 Z M 1223.140625 67.21875 C 1215.703125 67.21875 1209.664062 73.273438 1209.664062 80.699219 C 1209.664062 88.121094 1215.71875 94.179688 1223.140625 94.179688 C 1230.5625 94.179688 1236.617188 88.121094 1236.617188 80.699219 C 1236.617188 73.273438 1230.574219 67.21875 1223.140625 67.21875 Z M 1223.140625 67.21875 " fill-opacity="1" fill-rule="nonzero"/><path fill="#1c75bc" d="M 842.734375 14.785156 C 842.734375 15.480469 842.667969 16.175781 842.53125 16.859375 C 842.394531 17.542969 842.195312 18.210938 841.925781 18.855469 C 841.660156 19.5 841.332031 20.113281 840.941406 20.695312 C 840.554688 21.277344 840.113281 21.8125 839.621094 22.308594 C 839.125 22.800781 838.589844 23.242188 838.007812 23.632812 C 837.429688 24.019531 836.816406 24.347656 836.167969 24.613281 C 835.523438 24.882812 834.859375 25.082031 834.175781 25.21875 C 833.488281 25.355469 832.796875 25.425781 832.097656 25.425781 C 831.402344 25.425781 830.710938 25.355469 830.023438 25.21875 C 829.339844 25.082031 828.675781 24.882812 828.027344 24.613281 C 827.382812 24.347656 826.769531 24.019531 826.191406 23.632812 C 825.609375 23.242188 825.070312 22.800781 824.578125 22.308594 C 824.085938 21.8125 823.644531 21.277344 823.253906 20.695312 C 822.867188 20.113281 822.539062 19.5 822.273438 18.855469 C 822.003906 18.210938 821.804688 17.542969 821.667969 16.859375 C 821.53125 16.175781 821.460938 15.480469 821.460938 14.785156 C 821.460938 14.085938 821.53125 13.394531 821.667969 12.707031 C 821.804688 12.023438 822.003906 11.355469 822.273438 10.710938 C 822.539062 10.066406 822.867188 9.453125 823.253906 8.871094 C 823.644531 8.292969 824.085938 7.753906 824.578125 7.257812 C 825.070312 6.765625 825.609375 6.324219 826.191406 5.9375 C 826.769531 5.546875 827.382812 5.21875 828.027344 4.953125 C 828.675781 4.6875 829.339844 4.484375 830.023438 4.347656 C 830.710938 4.210938 831.402344 4.144531 832.097656 4.144531 C 832.796875 4.144531 833.488281 4.210938 834.175781 4.347656 C 834.859375 4.484375 835.523438 4.6875 836.167969 4.953125 C 836.816406 5.21875 837.429688 5.546875 838.007812 5.9375 C 838.589844 6.324219 839.125 6.765625 839.621094 7.257812 C 840.113281 7.753906 840.554688 8.292969 840.941406 8.871094 C 841.332031 9.453125 841.660156 10.066406 841.925781 10.710938 C 842.195312 11.355469 842.394531 12.023438 842.53125 12.707031 C 842.667969 13.394531 842.734375 14.085938 842.734375 14.785156 Z M 842.734375 14.785156 " fill-opacity="1" fill-rule="nonzero"/><path fill="#1c75bc" d="M 832.097656 29.582031 C 823.941406 29.582031 817.320312 22.945312 817.320312 14.800781 C 817.320312 6.652344 823.957031 0 832.097656 0 C 840.257812 0 846.878906 6.636719 846.878906 14.785156 C 846.878906 22.929688 840.257812 29.582031 832.097656 29.582031 Z M 832.097656 1.300781 C 824.664062 1.300781 818.625 7.359375 818.625 14.785156 C 818.625 22.207031 824.679688 28.265625 832.097656 28.265625 C 839.535156 28.265625 845.574219 22.207031 845.574219 14.785156 C 845.574219 7.359375 839.535156 1.300781 832.097656 1.300781 Z M 832.097656 1.300781 " fill-opacity="1" fill-rule="nonzero"/><path fill="#1c75bc" d="M 105.726562 350.761719 L 117.039062 350.761719 L 117.039062 387.359375 L 105.726562 387.359375 Z M 105.726562 350.761719 " fill-opacity="1" fill-rule="nonzero"/><path fill="#1c75bc" d="M 119.4375 350.761719 L 130.308594 350.761719 L 130.308594 387.359375 L 119.4375 387.359375 Z M 119.4375 350.761719 " fill-opacity="0.962" fill-rule="nonzero"/><path fill="#1c75bc" d="M 133.148438 350.761719 L 143.582031 350.761719 L 143.582031 387.359375 L 133.148438 387.359375 Z M 133.148438 350.761719 " fill-opacity="0.923" fill-rule="nonzero"/><path fill="#1c75bc" d="M 146.859375 350.761719 L 156.871094 350.761719 L 156.871094 387.359375 L 146.859375 387.359375 Z M 146.859375 350.761719 " fill-opacity="0.885" fill-rule="nonzero"/><path fill="#1c75bc" d="M 160.570312 350.761719 L 170.140625 350.761719 L 170.140625 387.359375 L 160.570312 387.359375 Z M 160.570312 350.761719 " fill-opacity="0.846" fill-rule="nonzero"/><path fill="#1c75bc" d="M 174.28125 350.761719 L 183.414062 350.761719 L 183.414062 387.359375 L 174.28125 387.359375 Z M 174.28125 350.761719 " fill-opacity="0.808" fill-rule="nonzero"/><path fill="#1c75bc" d="M 187.996094 350.761719 L 196.6875 350.761719 L 196.6875 387.359375 L 187.996094 387.359375 Z M 187.996094 350.761719 " fill-opacity="0.769" fill-rule="nonzero"/><path fill="#1c75bc" d="M 201.707031 350.761719 L 209.972656 350.761719 L 209.972656 387.359375 L 201.707031 387.359375 Z M 201.707031 350.761719 " fill-opacity="0.731" fill-rule="nonzero"/><path fill="#1c75bc" d="M 215.417969 350.761719 L 223.246094 350.761719 L 223.246094 387.359375 L 215.417969 387.359375 Z M 215.417969 350.761719 " fill-opacity="0.692" fill-rule="nonzero"/><path fill="#1c75bc" d="M 229.128906 350.761719 L 236.519531 350.761719 L 236.519531 387.359375 L 229.128906 387.359375 Z M 229.128906 350.761719 " fill-opacity="0.654" fill-rule="nonzero"/><path fill="#1c75bc" d="M 242.839844 350.761719 L 249.804688 350.761719 L 249.804688 387.359375 L 242.839844 387.359375 Z M 242.839844 350.761719 " fill-opacity="0.615" fill-rule="nonzero"/><path fill="#1c75bc" d="M 256.550781 350.761719 L 263.078125 350.761719 L 263.078125 387.359375 L 256.550781 387.359375 Z M 256.550781 350.761719 " fill-opacity="0.577" fill-rule="nonzero"/><path fill="#1c75bc" d="M 270.261719 350.761719 L 276.347656 350.761719 L 276.347656 387.359375 L 270.261719 387.359375 Z M 270.261719 350.761719 " fill-opacity="0.538" fill-rule="nonzero"/><path fill="#1c75bc" d="M 283.972656 350.761719 L 289.621094 350.761719 L 289.621094 387.359375 L 283.972656 387.359375 Z M 283.972656 350.761719 " fill-opacity="0.5" fill-rule="nonzero"/><path fill="#1c75bc" d="M 548.960938 419.894531 L 1300.984375 419.894531 L 1300.984375 421.195312 L 548.960938 421.195312 Z M 548.960938 419.894531 " fill-opacity="1" fill-rule="nonzero"/><path fill="#1c75bc" d="M 94.730469 80.054688 L 1337.097656 80.054688 L 1337.097656 81.359375 L 94.730469 81.359375 Z M 94.730469 80.054688 " fill-opacity="1" fill-rule="nonzero"/></svg>