<svg xmlns="http://www.w3.org/2000/svg" xmlns:xlink="http://www.w3.org/1999/xlink" width="2560" zoomAndPan="magnify" viewBox="0 0 1920 1079.999946" height="1440" preserveAspectRatio="xMidYMid meet" version="1.0"><defs><clipPath id="b5e5681986"><path d="M 0 140.125 L 939.75 140.125 L 939.75 1079.875 L 0 1079.875 Z M 0 140.125 " clip-rule="nonzero"/></clipPath><clipPath id="e2aaacffbf"><path d="M 1102.03125 0 L 1920 0 L 1920 819 L 1102.03125 819 Z M 1102.03125 0 " clip-rule="nonzero"/></clipPath><clipPath id="854611af78"><path d="M 0.03125 0.328125 L 817.988281 0.328125 L 817.988281 819 L 0.03125 819 Z M 0.03125 0.328125 " clip-rule="nonzero"/></clipPath><clipPath id="140e6eb50f"><rect x="0" width="818" y="0" height="819"/></clipPath></defs><rect x="-192" width="2304" fill="#ffffff" y="-107.999995" height="1295.999935" fill-opacity="1"/><rect x="-192" width="2304" fill="#ffffff" y="-107.999995" height="1295.999935" fill-opacity="1"/><path fill="#013494" d="M 1097.03125 757.730469 C 1070.644531 746.3125 1057.390625 732.550781 1050.308594 709.226562 C 1047.355469 699.488281 1047.359375 652.949219 1050.320312 643.199219 C 1058.441406 616.4375 1079.910156 597.339844 1106.769531 592.980469 C 1120.050781 590.824219 1138.84375 591.121094 1150.917969 593.679688 C 1180.390625 599.925781 1201.679688 622.828125 1205.703125 652.613281 C 1207.738281 667.695312 1206.566406 702.273438 1203.710938 711.367188 C 1198.191406 728.953125 1183.4375 745.527344 1165.785156 753.976562 C 1155.917969 758.695312 1155.675781 758.730469 1128.351562 759.054688 C 1111.265625 759.257812 1099.40625 758.757812 1097.035156 757.730469 Z M 1140.746094 728.207031 C 1150.484375 725.316406 1160.207031 716.964844 1165.445312 706.992188 C 1169.410156 699.453125 1169.570312 698.21875 1169.585938 675.464844 C 1169.601562 653.492188 1169.335938 651.25 1165.917969 644.359375 C 1157.910156 628.222656 1144.355469 619.71875 1126.824219 619.839844 C 1109.296875 619.957031 1097.101562 627.855469 1088.792969 644.476562 C 1085.054688 651.960938 1084.8125 653.789062 1084.8125 674.523438 C 1084.8125 699.792969 1086.792969 706.886719 1096.742188 717.222656 C 1108.644531 729.582031 1123.570312 733.308594 1140.746094 728.207031 Z M 397.3125 755.890625 C 397.3125 754.183594 411.605469 719.394531 419.371094 702.199219 C 420.507812 699.679688 423.636719 692.117188 426.316406 685.394531 C 429 678.671875 432.449219 670.421875 433.988281 667.0625 C 435.527344 663.699219 440.351562 652.355469 444.714844 641.851562 C 449.074219 631.347656 454.632812 618.171875 457.0625 612.570312 C 459.488281 606.964844 461.476562 601.730469 461.476562 600.933594 C 461.476562 600.140625 462.902344 597.675781 464.644531 595.460938 C 467.507812 591.820312 468.796875 591.4375 478.167969 591.4375 C 495.882812 591.4375 506.96875 593.082031 507.84375 595.84375 C 508.921875 599.253906 523.722656 635.464844 526.335938 641.089844 C 527.507812 643.609375 529.472656 648.421875 530.699219 651.785156 C 533.996094 660.792969 545.367188 689.199219 547.8125 694.53125 C 548.976562 697.066406 552.988281 706.707031 556.726562 715.949219 C 560.460938 725.191406 565.625 737.851562 568.199219 744.082031 C 570.769531 750.3125 572.519531 755.984375 572.085938 756.6875 C 570.761719 758.828125 536.949219 758.25 535.132812 756.054688 C 534.261719 755.003906 530.476562 746.582031 526.71875 737.339844 L 519.886719 720.535156 L 484.882812 720.125 L 449.875 719.714844 L 443.257812 736.929688 C 439.617188 746.398438 435.957031 755.003906 435.121094 756.054688 C 432.855469 758.90625 397.3125 758.753906 397.3125 755.890625 Z M 507.3125 688.496094 C 507.3125 688.101562 505.640625 684.125 503.597656 679.660156 C 501.554688 675.195312 498.878906 668.8125 497.652344 665.480469 C 492.46875 651.410156 486.9375 637.941406 485.832031 636.707031 C 484.648438 635.382812 476.753906 650.917969 476.753906 654.578125 C 476.753906 655.644531 476.160156 657.171875 475.433594 657.972656 C 474.707031 658.769531 472.207031 664.578125 469.878906 670.878906 C 467.554688 677.183594 465.054688 682.992188 464.328125 683.789062 C 463.601562 684.589844 463.003906 686.136719 463.003906 687.226562 C 463.003906 688.765625 468 689.214844 485.15625 689.214844 C 497.34375 689.214844 507.3125 688.890625 507.3125 688.496094 Z M 638.699219 756.890625 C 618.253906 753.226562 601.652344 741.613281 591.5 723.875 C 584.714844 712.007812 583.214844 704.558594 582.585938 679.519531 C 582.101562 660.234375 582.503906 654.859375 585.269531 643.617188 C 592.132812 615.742188 609.808594 597.726562 634.839844 593.101562 C 645.257812 591.175781 708.777344 590.871094 711.714844 592.734375 C 713.144531 593.640625 713.566406 597.742188 713.242188 607.605469 L 712.796875 621.226562 L 679.1875 622.15625 C 660.699219 622.667969 643.855469 623.632812 641.753906 624.300781 C 632.082031 627.371094 624.269531 636.484375 620.664062 648.90625 C 616.675781 662.644531 619.691406 696.386719 626.230469 711.167969 C 627.765625 714.636719 631.566406 719.710938 634.679688 722.441406 L 640.332031 727.410156 L 675.039062 727.433594 C 694.125 727.445312 710.628906 728.019531 711.714844 728.707031 C 713.144531 729.613281 713.566406 733.714844 713.242188 743.578125 L 712.796875 757.199219 L 677.65625 757.386719 C 658.332031 757.492188 640.800781 757.265625 638.699219 756.890625 Z M 783.074219 757.257812 C 782.234375 756.988281 777.507812 755.570312 772.570312 754.109375 C 755.355469 749.007812 740.96875 733.480469 734.550781 713.082031 C 731.554688 703.542969 731.128906 698.898438 731.128906 675.464844 C 731.128906 651.242188 731.476562 647.722656 734.792969 638.035156 C 741.277344 619.101562 753.96875 604.382812 768.496094 598.941406 C 773.152344 597.199219 784.183594 594.808594 793.003906 593.632812 C 810.402344 591.316406 853.65625 590.707031 856.851562 592.734375 C 858.28125 593.640625 858.703125 597.742188 858.382812 607.605469 L 857.9375 621.226562 L 822.03125 621.992188 C 797.75 622.507812 785.070312 623.363281 782.859375 624.632812 C 774.3125 629.527344 766.128906 646.429688 767.3125 656.730469 L 767.796875 660.949219 L 812.867188 661.714844 L 857.9375 662.476562 L 857.9375 689.976562 L 813.191406 690.382812 C 774.824219 690.730469 768.320312 691.117188 767.554688 693.109375 C 766.164062 696.734375 770.152344 709.175781 775 716.328125 C 782.25 727.027344 783.835938 727.40625 821.574219 727.429688 C 839.894531 727.445312 855.769531 728.019531 856.851562 728.707031 C 858.28125 729.613281 858.703125 733.710938 858.382812 743.578125 L 857.9375 757.199219 L 821.269531 757.476562 C 801.101562 757.625 783.914062 757.527344 783.074219 757.257812 Z M 887.480469 756.054688 C 886.386719 752.421875 887.191406 592.015625 888.3125 590.199219 C 890.109375 587.289062 984.164062 587.671875 995.550781 590.636719 C 1011.351562 594.753906 1020.285156 601.777344 1027.664062 615.878906 C 1029.753906 619.878906 1030.476562 624.699219 1030.519531 634.976562 C 1030.582031 650.550781 1027.816406 657.847656 1017.941406 668.144531 L 1012.503906 673.816406 L 1018.683594 680.519531 C 1028.285156 690.933594 1030.574219 697.046875 1030.574219 712.238281 C 1030.574219 727.601562 1027.421875 735.34375 1016.992188 745.578125 C 1005.035156 757.3125 1001.015625 757.964844 940.636719 757.964844 C 899.894531 757.964844 887.925781 757.535156 887.480469 756.054688 Z M 987.695312 722.925781 C 996.625 714.527344 995.605469 699.398438 985.660156 692.707031 C 980.699219 689.367188 979.171875 689.214844 950.90625 689.214844 L 921.339844 689.214844 L 921.339844 708.183594 C 921.339844 719.261719 921.964844 727.367188 922.84375 727.664062 C 923.667969 727.941406 937.710938 727.828125 954.042969 727.410156 C 982.90625 726.664062 983.851562 726.539062 987.695312 722.925781 Z M 982.339844 659.039062 C 993.648438 653.273438 997.316406 639.78125 990.265625 629.878906 C 985.277344 622.875 979.230469 621.765625 948.839844 622.292969 L 922.101562 622.753906 L 921.667969 640.96875 C 921.347656 654.511719 921.738281 659.5 923.199219 660.421875 C 924.277344 661.105469 936.84375 661.675781 951.128906 661.6875 C 972.871094 661.707031 977.957031 661.273438 982.339844 659.039062 Z M 1269.058594 755.515625 C 1268.523438 754.117188 1268.125 723.671875 1268.179688 687.863281 L 1268.273438 622.753906 L 1242.183594 622.335938 L 1216.089844 621.917969 L 1216.964844 592.199219 L 1355.992188 592.199219 L 1355.992188 621.226562 L 1329.652344 621.644531 L 1303.316406 622.0625 L 1302.917969 689.632812 L 1302.519531 757.199219 L 1286.277344 757.632812 C 1272.277344 758.003906 1269.902344 757.710938 1269.058594 755.515625 Z M 817.964844 532.984375 C 817.070312 531.53125 818.445312 527.101562 822.824219 517.339844 C 825.695312 510.929688 832.523438 495.417969 846.027344 464.632812 C 847.316406 461.691406 849.898438 455.847656 851.765625 451.644531 C 854.851562 444.707031 859.167969 434.886719 867.550781 415.742188 C 869.207031 411.960938 872.800781 403.710938 875.535156 397.410156 C 878.269531 391.105469 882.054688 382.511719 883.945312 378.3125 C 887.707031 369.960938 889.222656 366.519531 902.136719 337.0625 C 906.925781 326.136719 911.457031 315.824219 912.203125 314.144531 C 913.363281 311.546875 926.027344 282.804688 935.09375 262.203125 C 936.574219 258.839844 939.980469 250.933594 942.664062 244.632812 C 951.136719 224.742188 955.117188 217.132812 957.046875 217.132812 C 958.078125 217.132812 959.84375 219.710938 960.96875 222.859375 C 962.097656 226.011719 965.378906 233.746094 968.261719 240.046875 C 971.144531 246.351562 974.410156 253.570312 975.519531 256.089844 C 976.628906 258.609375 979.238281 264.453125 981.316406 269.078125 C 985.613281 278.621094 990.390625 289.257812 995.386719 300.394531 C 1014.433594 342.867188 1018.550781 352.03125 1022.148438 359.980469 C 1024.429688 365.019531 1027.460938 371.894531 1028.890625 375.257812 C 1030.316406 378.617188 1032.042969 382.398438 1032.722656 383.660156 C 1033.785156 385.621094 1042.019531 386.007812 1089.824219 386.351562 L 1145.6875 386.753906 L 1149.1875 381.835938 C 1158.457031 368.816406 1171.523438 362.785156 1187.34375 364.222656 C 1206.605469 365.96875 1221.972656 381.582031 1224.75 402.234375 C 1226.824219 417.613281 1212.863281 438.996094 1197.347656 444.207031 C 1181.273438 449.605469 1162.113281 445.054688 1152.761719 433.617188 C 1150.5625 430.929688 1147.789062 427.527344 1146.59375 426.054688 C 1144.613281 423.617188 1140.398438 423.382812 1098.664062 423.382812 C 1073.5 423.382812 1052.589844 423.898438 1052.207031 424.527344 C 1051.820312 425.15625 1056.761719 437.417969 1063.191406 451.769531 C 1069.621094 466.125 1076.195312 480.90625 1077.804688 484.617188 C 1080.800781 491.527344 1085.382812 501.699219 1093.800781 520.121094 C 1096.417969 525.851562 1098.5625 531.140625 1098.5625 531.875 C 1098.5625 533.789062 1058.796875 534.488281 1056.429688 532.617188 C 1055.363281 531.777344 1050.230469 521.464844 1045.019531 509.699219 C 1039.8125 497.9375 1032.882812 482.597656 1029.625 475.617188 C 1026.367188 468.636719 1023.699219 462.636719 1023.699219 462.289062 C 1023.699219 461.9375 1021.558594 456.996094 1018.941406 451.300781 C 1016.328125 445.609375 1012.558594 437.285156 1010.570312 432.804688 L 1006.953125 424.660156 L 1001.957031 428.171875 C 999.210938 430.101562 990.433594 436.574219 982.449219 442.550781 C 974.46875 448.527344 956.9375 461.550781 943.492188 471.488281 C 907.269531 498.265625 899.46875 504.042969 879.324219 519.003906 L 860.992188 532.617188 L 839.835938 533.382812 C 828.199219 533.800781 818.355469 533.625 817.964844 532.984375 Z M 924.722656 436.132812 C 951.503906 416.4375 972.761719 400.640625 988.414062 388.800781 C 990.417969 387.285156 990.292969 386.246094 987.386719 380.398438 C 984.253906 374.101562 979.195312 363.054688 971.914062 346.609375 C 970.144531 342.621094 967.394531 336.433594 965.800781 332.859375 C 964.210938 329.289062 961.835938 323.789062 960.535156 320.636719 C 959.230469 317.488281 957.527344 314.910156 956.75 314.910156 C 955.976562 314.910156 952.058594 322.300781 948.042969 331.332031 C 944.027344 340.367188 939.207031 351.195312 937.324219 355.394531 C 931.65625 368.050781 928.0625 376.203125 922.835938 388.242188 C 920.101562 394.542969 916.316406 403.136719 914.425781 407.339844 C 912.535156 411.542969 909.519531 418.242188 907.722656 422.230469 C 905.929688 426.21875 903.851562 431.03125 903.105469 432.925781 C 902.359375 434.816406 899.300781 441.695312 896.304688 448.207031 C 893.308594 454.71875 891.164062 460.046875 891.53125 460.046875 C 891.902344 460.046875 906.835938 449.285156 924.722656 436.132812 Z M 1191.898438 422.542969 C 1197.71875 419.535156 1202.4375 411.84375 1202.445312 405.355469 C 1202.460938 391.621094 1187.332031 381.066406 1175.996094 386.90625 C 1165.3125 392.410156 1161.078125 402.390625 1165.128906 412.519531 C 1169.480469 423.394531 1181.527344 427.90625 1191.898438 422.542969 Z M 1248.304688 512.679688 C 1238.867188 508.300781 1233.734375 504.023438 1230.527344 497.859375 L 1228.34375 493.660156 L 1166.695312 493.660156 C 1119.152344 493.660156 1104.71875 493.222656 1103.621094 491.75 C 1102.835938 490.699219 1100.914062 486.746094 1099.347656 482.964844 C 1097.78125 479.183594 1094.863281 472.382812 1092.867188 467.851562 C 1090.871094 463.316406 1089.59375 458.675781 1090.03125 457.539062 C 1090.683594 455.835938 1103.085938 455.464844 1159.472656 455.464844 L 1228.121094 455.464844 L 1231.167969 450.300781 C 1236.734375 440.863281 1252.265625 432.578125 1264.429688 432.554688 C 1280.773438 432.527344 1297.144531 444.355469 1303.082031 460.488281 C 1307.175781 471.605469 1307.179688 477.542969 1303.097656 488.453125 C 1294.457031 511.554688 1269.585938 522.546875 1248.304688 512.679688 Z M 1277.964844 488.511719 C 1282.710938 484.035156 1283.421875 482.4375 1283.421875 476.214844 C 1283.421875 463.214844 1276.289062 455.464844 1264.324219 455.464844 C 1252.972656 455.464844 1245.226562 463.21875 1245.226562 474.585938 C 1245.226562 486.316406 1252.667969 493.640625 1264.597656 493.652344 C 1271.488281 493.65625 1273.214844 492.996094 1277.964844 488.511719 Z M 666.664062 496.566406 C 658.460938 494.613281 646.179688 483.703125 641.652344 474.351562 C 634.359375 459.285156 638.054688 439.269531 650.332031 427.320312 C 659.605469 418.296875 665.902344 415.738281 678.742188 415.777344 C 694.539062 415.824219 701.121094 419.203125 713.953125 433.851562 L 718.167969 438.660156 L 776.210938 438.660156 C 835.308594 438.660156 837.574219 438.875 832.972656 444.082031 C 832.265625 444.882812 830.789062 447.941406 829.6875 450.882812 C 828.582031 453.820312 825.746094 460.523438 823.378906 465.777344 L 819.078125 475.324219 L 717.09375 475.324219 L 710.628906 482.992188 C 707.074219 487.207031 701.316406 492.113281 697.832031 493.890625 C 690.519531 497.621094 676.234375 498.847656 666.664062 496.566406 Z M 687.730469 474.488281 C 693.988281 471.253906 698.269531 463.703125 698.277344 455.898438 C 698.28125 450.882812 697.246094 448.277344 693.582031 444.105469 C 683.007812 432.0625 664.65625 436.5625 659.921875 452.359375 C 658.46875 457.207031 658.695312 458.902344 661.515625 464.429688 C 667.152344 475.480469 677.863281 479.589844 687.730469 474.488281 Z M 611.988281 375.625 C 603.785156 373.460938 589.609375 359.238281 587.078125 350.636719 C 578.480469 321.410156 596.921875 294.632812 625.714844 294.546875 C 639.832031 294.503906 649.726562 299.871094 661.222656 313.808594 L 664.652344 317.964844 L 776.191406 317.964844 C 837.59375 317.964844 887.726562 318.558594 887.726562 319.28125 C 887.726562 320.472656 883.40625 330.582031 875.398438 348.136719 L 872.433594 354.632812 L 664.597656 354.632812 L 655.847656 363.539062 C 643.175781 376.449219 629.445312 380.234375 611.988281 375.625 Z M 637.011719 351.6875 C 643.421875 347.125 646.636719 338.195312 644.441406 331.042969 C 640.105469 316.925781 624.199219 311.824219 613.582031 321.144531 C 594.582031 337.828125 616.445312 366.332031 637.011719 351.6875 Z M 1270.824219 375.308594 C 1263.039062 372.34375 1255.097656 366.0625 1251.238281 359.816406 L 1248.035156 354.632812 L 1145.984375 354.632812 C 1063.28125 354.632812 1043.617188 354.25 1042.261719 352.613281 C 1040.308594 350.261719 1028.28125 321.773438 1028.28125 319.5 C 1028.28125 318.484375 1065.238281 317.964844 1137.226562 317.964844 L 1246.171875 317.964844 L 1253.242188 309.777344 C 1265.113281 296.027344 1280.40625 291.484375 1297.9375 296.496094 C 1313.265625 300.878906 1326.199219 319.195312 1326.199219 336.519531 C 1326.199219 350.460938 1315.28125 367.503906 1302.339844 373.765625 C 1294.753906 377.4375 1278.492188 378.234375 1270.824219 375.308594 Z M 1295.253906 352.234375 C 1299.84375 349.230469 1304.796875 341.132812 1304.804688 336.632812 C 1304.824219 325.578125 1295.351562 316.453125 1283.855469 316.441406 C 1278.546875 316.4375 1276.488281 317.363281 1272.15625 321.695312 C 1263.363281 330.488281 1263.039062 341.652344 1271.335938 349.949219 C 1277.921875 356.535156 1287.320312 357.433594 1295.253906 352.234375 Z M 1295.253906 352.234375 " fill-opacity="1" fill-rule="nonzero"/><path fill="#013494" d="M 1426.777344 755.535156 C 1426.242188 754.132812 1425.84375 723.691406 1425.898438 687.878906 L 1425.992188 622.773438 L 1399.898438 622.355469 L 1373.808594 621.9375 L 1374.246094 607.078125 L 1374.679688 592.21875 L 1513.710938 592.21875 L 1513.710938 621.246094 L 1461.03125 622.082031 L 1460.636719 689.648438 L 1460.238281 757.21875 L 1443.996094 757.648438 C 1429.996094 758.019531 1427.621094 757.730469 1426.777344 755.535156 Z M 1426.777344 755.535156 " fill-opacity="1" fill-rule="nonzero"/><g clip-path="url(#b5e5681986)"><path fill="#013494" d="M 58.011719 946.46875 C 58.011719 939.574219 52.390625 933.953125 45.496094 933.953125 C 38.605469 933.953125 32.984375 939.574219 32.984375 946.46875 C 32.984375 952.640625 37.480469 957.792969 43.375 958.8125 L 43.375 1022.847656 C 43.375 1023.550781 43.675781 1024.101562 44.097656 1024.460938 L 89.171875 1069.535156 C 89.679688 1070.042969 90.296875 1070.214844 90.847656 1070.148438 L 343.28125 1070.148438 C 343.980469 1070.148438 344.53125 1069.851562 344.894531 1069.429688 L 422.125 992.199219 L 643.058594 992.199219 C 644.015625 995.847656 647.34375 998.5625 651.269531 998.5625 C 655.933594 998.5625 659.753906 994.746094 659.753906 990.078125 C 659.753906 985.410156 655.933594 981.59375 651.269531 981.59375 C 647.324219 981.59375 643.992188 984.308594 643.058594 987.957031 L 421.488281 987.957031 C 421.042969 987.914062 420.554688 988 420.085938 988.296875 C 419.960938 988.382812 419.855469 988.464844 419.746094 988.570312 L 342.410156 1065.90625 L 91.546875 1065.90625 L 47.621094 1021.980469 L 47.621094 958.835938 C 53.515625 957.792969 58.011719 952.640625 58.011719 946.46875 M 516.386719 969.164062 C 523.28125 969.164062 528.902344 963.542969 528.902344 956.648438 C 528.902344 949.753906 523.28125 944.132812 516.386719 944.132812 C 510.214844 944.132812 505.058594 948.632812 504.042969 954.527344 L 335.644531 954.527344 C 335.050781 954.527344 334.523438 954.761719 334.140625 955.144531 L 259.03125 1030.253906 L 122.726562 1030.253906 L 87.390625 994.894531 L 87.390625 892.675781 L 222.761719 768.929688 C 223.289062 768.464844 223.503906 767.828125 223.460938 767.234375 L 223.460938 595.785156 C 227.109375 594.828125 229.824219 591.5 229.824219 587.574219 C 229.824219 582.910156 226.003906 579.089844 221.339844 579.089844 C 216.671875 579.089844 212.855469 582.910156 212.855469 587.574219 C 212.855469 591.519531 215.570312 594.851562 219.21875 595.785156 L 219.21875 766.425781 L 83.976562 890.046875 C 83.679688 890.28125 83.421875 890.617188 83.253906 891.085938 C 83.191406 891.296875 83.148438 891.488281 83.148438 891.722656 L 83.148438 995.53125 C 83.085938 995.976562 83.191406 996.460938 83.488281 996.949219 C 83.570312 997.078125 83.65625 997.183594 83.761719 997.289062 L 120.351562 1033.878906 C 120.734375 1034.261719 121.265625 1034.496094 121.859375 1034.496094 L 259.710938 1034.496094 C 260.15625 1034.558594 260.644531 1034.453125 261.109375 1034.15625 C 261.238281 1034.070312 261.34375 1033.984375 261.449219 1033.878906 L 336.558594 958.769531 L 504.0625 958.769531 C 505.058594 964.667969 510.214844 969.164062 516.386719 969.164062 Z M 190.941406 674.390625 C 196.945312 677.871094 204.539062 675.769531 208.039062 669.8125 C 211.476562 663.808594 209.4375 656.171875 203.457031 652.714844 C 198.089844 649.617188 191.429688 650.953125 187.589844 655.558594 L 180.929688 651.695312 L 180.929688 564.792969 C 184.578125 563.839844 187.292969 560.507812 187.292969 556.585938 C 187.292969 551.917969 183.476562 548.101562 178.808594 548.101562 C 174.144531 548.101562 170.324219 551.917969 170.324219 556.585938 C 170.324219 560.53125 173.039062 563.859375 176.6875 564.792969 L 176.6875 652.777344 C 176.625 653.371094 176.835938 653.988281 177.367188 654.496094 C 177.472656 654.601562 177.601562 654.6875 177.75 654.773438 L 185.46875 659.226562 C 183.414062 664.824219 185.578125 671.273438 190.941406 674.390625 Z M 120.160156 980.828125 C 120.160156 987.722656 125.78125 993.34375 132.675781 993.34375 C 139.570312 993.34375 145.191406 987.722656 145.191406 980.828125 C 145.191406 974.65625 140.695312 969.503906 134.796875 968.484375 L 134.796875 906.613281 L 274.175781 767.234375 C 274.683594 766.722656 274.855469 766.109375 274.789062 765.558594 L 274.789062 711.597656 C 278.4375 710.640625 281.152344 707.3125 281.152344 703.386719 C 281.152344 698.722656 277.335938 694.902344 272.667969 694.902344 C 268.003906 694.902344 264.183594 698.722656 264.183594 703.386719 C 264.183594 707.332031 266.898438 710.664062 270.546875 711.597656 L 270.546875 764.859375 L 131.277344 904.128906 C 131.019531 904.363281 130.789062 904.683594 130.640625 905.085938 C 130.574219 905.296875 130.535156 905.488281 130.535156 905.722656 L 130.535156 968.464844 C 124.65625 969.503906 120.160156 974.65625 120.160156 980.828125 Z M 54.046875 765.027344 C 54.046875 771.921875 59.667969 777.542969 66.5625 777.542969 C 73.453125 777.542969 79.074219 771.921875 79.074219 765.027344 C 79.074219 758.855469 74.578125 753.699219 68.683594 752.683594 L 68.683594 156.710938 C 72.332031 155.757812 75.046875 152.425781 75.046875 148.503906 C 75.046875 143.835938 71.226562 140.019531 66.5625 140.019531 C 61.894531 140.019531 58.078125 143.835938 58.078125 148.503906 C 58.078125 152.449219 60.792969 155.777344 64.441406 156.710938 L 64.441406 752.683594 C 58.5625 753.699219 54.046875 758.855469 54.046875 765.027344 Z M 440.8125 1016.507812 C 433.917969 1016.507812 428.296875 1022.128906 428.296875 1029.023438 C 428.296875 1035.914062 433.917969 1041.535156 440.8125 1041.535156 C 446.984375 1041.535156 452.136719 1037.039062 453.15625 1031.144531 L 923.066406 1031.144531 C 924.023438 1034.792969 927.351562 1037.507812 931.277344 1037.507812 C 935.941406 1037.507812 939.761719 1033.6875 939.761719 1029.023438 C 939.761719 1024.355469 935.941406 1020.539062 931.277344 1020.539062 C 927.332031 1020.539062 924 1023.253906 923.066406 1026.902344 L 453.15625 1026.902344 C 452.136719 1021.023438 447.003906 1016.507812 440.8125 1016.507812 Z M 639.855469 870.59375 C 636.355469 864.613281 628.785156 862.554688 622.761719 866.015625 C 619.429688 867.964844 617.308594 871.210938 616.695312 874.730469 L 451.566406 874.730469 C 450.972656 874.667969 450.355469 874.878906 449.847656 875.410156 C 449.742188 875.515625 449.632812 875.644531 449.570312 875.792969 L 426.707031 915.394531 L 323.492188 915.394531 C 323.046875 915.351562 322.558594 915.4375 322.070312 915.734375 C 321.941406 915.816406 321.835938 915.902344 321.730469 916.007812 L 246.304688 991.4375 L 180.570312 991.4375 L 180.570312 928.246094 C 186.46875 927.230469 190.964844 922.097656 190.964844 915.902344 C 190.964844 909.007812 185.34375 903.386719 178.449219 903.386719 C 171.554688 903.386719 165.933594 909.007812 165.933594 915.902344 C 165.933594 922.074219 170.433594 927.230469 176.328125 928.246094 L 176.328125 993.558594 C 176.328125 994.871094 177.367188 995.65625 178.449219 995.679688 L 247.175781 995.679688 C 247.875 995.679688 248.425781 995.382812 248.785156 994.957031 L 324.128906 919.636719 L 427.933594 919.636719 C 428.804688 919.636719 429.421875 919.191406 429.757812 918.574219 L 452.625 878.996094 L 616.671875 878.996094 C 616.90625 880.417969 617.414062 881.816406 618.179688 883.132812 C 621.316406 888.496094 627.722656 890.683594 633.34375 888.605469 L 663.972656 941.675781 C 664.375 942.417969 665.097656 942.734375 665.796875 942.734375 L 781.144531 942.734375 C 782.097656 946.382812 785.429688 949.097656 789.351562 949.097656 C 794.019531 949.097656 797.835938 945.28125 797.835938 940.613281 C 797.835938 935.945312 794.019531 932.128906 789.351562 932.128906 C 785.40625 932.128906 782.078125 934.84375 781.144531 938.492188 L 667.027344 938.492188 L 636.992188 886.484375 C 641.617188 882.621094 642.953125 875.984375 639.855469 870.59375 Z M -0.105469 1067.371094 C -0.105469 1074.265625 5.515625 1079.886719 12.410156 1079.886719 C 19.300781 1079.886719 24.921875 1074.265625 24.921875 1067.371094 C 24.921875 1061.199219 20.425781 1056.042969 14.53125 1055.027344 L 14.53125 876.152344 L 122.113281 783.695312 C 122.644531 783.226562 122.875 782.613281 122.855469 782.039062 L 122.855469 528.628906 C 125.292969 528.203125 127.648438 527.039062 129.578125 525.148438 C 133.96875 520.675781 134.414062 514.015625 130.9375 509.09375 L 194.0625 445.96875 C 194.570312 445.460938 194.738281 444.84375 194.675781 444.292969 L 194.675781 335.523438 C 198.324219 334.566406 201.039062 331.238281 201.039062 327.3125 C 201.039062 322.648438 197.222656 318.828125 192.554688 318.828125 C 187.886719 318.828125 184.070312 322.648438 184.070312 327.3125 C 184.070312 331.257812 186.785156 334.589844 190.433594 335.523438 L 190.433594 443.59375 L 127.925781 506.101562 C 123.003906 502.625 116.320312 503.089844 111.867188 507.460938 C 106.988281 512.445312 106.988281 520.164062 111.867188 525.171875 C 113.796875 527.058594 116.152344 528.226562 118.589844 528.648438 L 118.589844 781.148438 L 11.136719 873.480469 C 10.796875 873.714844 10.542969 874.074219 10.371094 874.5625 C 10.308594 874.773438 10.265625 874.964844 10.265625 875.199219 L 10.265625 1055.046875 C 4.390625 1056.042969 -0.105469 1061.199219 -0.105469 1067.371094 Z M -0.105469 1067.371094 " fill-opacity="1" fill-rule="nonzero"/></g><g clip-path="url(#e2aaacffbf)"><g transform="matrix(1, 0, 0, 1, 1102, -0.000000000000003846)"><g clip-path="url(#140e6eb50f)"><g clip-path="url(#854611af78)"><path fill="#013494" d="M 755.699219 269.671875 C 755.734375 277.25 761.808594 283.324219 769.390625 283.359375 C 776.972656 283.324219 783.046875 277.25 783.078125 269.671875 C 783.046875 263.269531 778.714844 257.949219 772.8125 256.425781 L 772.8125 77.363281 C 772.8125 72.058594 771.5625 67.40625 768.910156 62.820312 L 741.035156 14.546875 C 735.664062 5.273438 726.542969 0.0351562 715.847656 0 L 461.816406 0 C 451.121094 0.0351562 441.984375 5.273438 436.628906 14.546875 L 418.40625 46.117188 C 414.332031 53.167969 407.296875 57.273438 399.136719 57.242188 L 104.996094 57.242188 C 103.472656 51.335938 98.152344 47.007812 91.753906 46.972656 C 84.171875 47.007812 78.097656 53.082031 78.0625 60.664062 C 78.097656 68.242188 84.171875 74.320312 91.753906 74.351562 C 98.152344 74.320312 103.472656 69.988281 104.996094 64.085938 L 399.121094 64.085938 C 409.8125 64.050781 418.953125 58.816406 424.308594 49.539062 L 442.550781 17.96875 C 446.621094 10.917969 453.65625 6.8125 461.816406 6.847656 L 715.847656 6.847656 C 724.007812 6.8125 731.042969 10.917969 735.113281 17.96875 L 762.992188 66.242188 C 765.042969 69.816406 765.96875 73.242188 765.96875 77.363281 L 765.96875 256.425781 C 760.046875 257.949219 755.734375 263.269531 755.699219 269.671875 M 13.722656 111.28125 C 6.140625 111.316406 0.0664062 117.390625 0.03125 124.96875 C 0.0664062 132.550781 6.140625 138.625 13.722656 138.660156 C 20.121094 138.625 25.441406 134.296875 26.964844 128.394531 L 417.222656 128.394531 C 427.917969 128.359375 437.058594 123.121094 442.414062 113.847656 L 473.335938 60.285156 C 477.40625 53.238281 484.441406 49.128906 492.601562 49.164062 L 698.632812 49.164062 C 700.15625 55.066406 705.476562 59.398438 711.875 59.429688 C 719.457031 59.398438 725.53125 53.320312 725.566406 45.742188 C 725.53125 38.160156 719.457031 32.085938 711.875 32.050781 C 705.476562 32.085938 700.15625 36.414062 698.632812 42.320312 L 492.601562 42.320312 C 481.90625 42.351562 472.769531 47.589844 467.414062 56.863281 L 436.492188 110.425781 C 432.417969 117.476562 425.386719 121.582031 417.222656 121.546875 L 26.964844 121.546875 C 25.441406 115.644531 20.121094 111.316406 13.722656 111.28125 Z M 541.457031 69.117188 C 533.875 69.152344 527.800781 75.226562 527.769531 82.804688 C 527.800781 90.386719 533.875 96.460938 541.457031 96.496094 C 547.855469 96.460938 553.179688 92.132812 554.703125 86.230469 L 635.472656 86.230469 C 643.632812 86.195312 650.667969 90.300781 654.738281 97.351562 L 674.847656 132.175781 C 676.898438 135.75 677.824219 139.171875 677.824219 143.296875 L 677.824219 443.855469 C 677.859375 451.878906 680.664062 458.742188 686.34375 464.421875 L 745.160156 523.238281 C 749.472656 527.550781 751.714844 532.871094 751.679688 538.960938 L 751.679688 722.558594 C 745.777344 724.082031 741.445312 729.402344 741.410156 735.804688 C 741.445312 743.382812 747.519531 749.457031 755.101562 749.492188 C 762.683594 749.457031 768.757812 743.382812 768.792969 735.804688 C 768.757812 729.402344 764.425781 724.082031 758.523438 722.558594 L 758.523438 538.960938 C 758.488281 530.9375 755.683594 524.074219 750.003906 518.394531 L 691.1875 459.578125 C 686.875 455.269531 684.632812 449.945312 684.667969 443.855469 L 684.667969 143.316406 C 684.667969 138.011719 683.417969 133.355469 680.765625 128.769531 L 660.660156 93.945312 C 655.285156 84.671875 646.167969 79.433594 635.472656 79.402344 L 554.703125 79.402344 C 553.179688 73.480469 547.855469 69.152344 541.457031 69.117188 Z M 622.226562 569.472656 C 622.261719 577.054688 628.335938 583.128906 635.917969 583.164062 C 643.496094 583.128906 649.570312 577.054688 649.605469 569.472656 C 649.570312 563.074219 645.242188 557.75 639.339844 556.230469 L 639.339844 196.464844 C 639.339844 191.160156 638.089844 186.503906 635.4375 181.917969 L 612.042969 141.414062 C 606.671875 132.140625 597.550781 126.902344 586.855469 126.871094 L 525.476562 126.871094 C 514.78125 126.902344 505.640625 132.140625 500.285156 141.414062 L 482.351562 172.492188 C 476.484375 170.863281 470.03125 173.328125 466.832031 178.839844 C 463.066406 185.445312 465.292969 193.710938 471.84375 197.542969 C 478.382812 201.308594 486.765625 199.066406 490.550781 192.527344 C 493.714844 186.96875 492.636719 180.207031 488.273438 175.929688 L 506.222656 144.855469 C 510.296875 137.804688 517.328125 133.699219 525.492188 133.730469 L 586.871094 133.730469 C 595.035156 133.699219 602.070312 137.804688 606.140625 144.855469 L 629.535156 185.359375 C 631.585938 188.933594 632.511719 192.359375 632.511719 196.480469 L 632.511719 556.230469 C 626.574219 557.769531 622.261719 563.074219 622.226562 569.472656 Z M 790.609375 805.621094 C 790.644531 813.199219 796.71875 819.277344 804.300781 819.308594 C 811.878906 819.277344 817.953125 813.199219 817.988281 805.621094 C 817.953125 799.21875 813.625 793.898438 807.722656 792.375 L 807.722656 469.761719 C 807.6875 462.761719 805.617188 456.859375 801.203125 451.417969 L 732.597656 367.003906 C 729.28125 362.878906 727.566406 358.292969 727.621094 352.972656 L 727.621094 137.136719 C 733.523438 135.613281 737.851562 130.292969 737.886719 123.890625 C 737.851562 116.3125 731.777344 110.238281 724.195312 110.203125 C 716.617188 110.238281 710.542969 116.3125 710.507812 123.890625 C 710.542969 130.292969 714.871094 135.613281 720.773438 137.136719 L 720.773438 352.972656 C 720.808594 359.96875 722.878906 365.875 727.292969 371.316406 L 795.898438 455.730469 C 799.214844 459.855469 800.929688 464.441406 800.875 469.761719 L 800.875 792.375 C 794.972656 793.898438 790.644531 799.21875 790.609375 805.621094 Z M 790.609375 805.621094 " fill-opacity="1" fill-rule="nonzero"/></g></g></g></g></svg>