<svg xmlns="http://www.w3.org/2000/svg" xmlns:xlink="http://www.w3.org/1999/xlink" width="1920" zoomAndPan="magnify" viewBox="0 0 1440 449.999984" height="600" preserveAspectRatio="xMidYMid meet" version="1.0"><defs><clipPath id="0d0bcdb7cc"><path d="M 344 325 L 498 325 L 498 358.082031 L 344 358.082031 Z M 344 325 " clip-rule="nonzero"/></clipPath><clipPath id="1d2ceafac1"><path d="M 1008 325 L 1092 325 L 1092 358.082031 L 1008 358.082031 Z M 1008 325 " clip-rule="nonzero"/></clipPath><clipPath id="fa75c295b1"><path d="M 1078 164 L 1096.554688 164 L 1096.554688 182 L 1078 182 Z M 1078 164 " clip-rule="nonzero"/></clipPath><clipPath id="45f3c0ee41"><path d="M 777 91.832031 L 796 91.832031 L 796 110 L 777 110 Z M 777 91.832031 " clip-rule="nonzero"/></clipPath></defs><rect x="-144" width="1728" fill="#ffffff" y="-44.999998" height="539.99998" fill-opacity="1"/><rect x="-144" width="1728" fill="#ffffff" y="-44.999998" height="539.99998" fill-opacity="1"/><path fill="#013494" d="M 759.980469 297.773438 C 752.652344 294.605469 748.96875 290.789062 747.003906 284.316406 C 746.183594 281.613281 746.183594 268.703125 747.003906 265.996094 C 749.261719 258.570312 755.222656 253.273438 762.683594 252.0625 C 766.371094 251.464844 771.589844 251.546875 774.945312 252.257812 C 783.128906 253.992188 789.042969 260.347656 790.160156 268.609375 C 790.726562 272.792969 790.398438 282.386719 789.605469 284.910156 C 788.074219 289.789062 783.976562 294.390625 779.074219 296.734375 C 776.332031 298.042969 776.265625 298.050781 768.679688 298.140625 C 763.933594 298.199219 760.640625 298.058594 759.980469 297.773438 Z M 772.121094 289.582031 C 774.824219 288.78125 777.523438 286.464844 778.980469 283.699219 C 780.082031 281.605469 780.125 281.261719 780.128906 274.949219 C 780.132812 268.851562 780.058594 268.230469 779.109375 266.320312 C 776.886719 261.84375 773.121094 259.484375 768.253906 259.515625 C 763.386719 259.546875 760 261.742188 757.691406 266.351562 C 756.652344 268.429688 756.585938 268.933594 756.585938 274.6875 C 756.585938 281.699219 757.136719 283.667969 759.898438 286.535156 C 763.203125 289.964844 767.347656 291 772.121094 289.582031 Z M 565.648438 297.265625 C 565.648438 296.789062 569.617188 287.136719 571.773438 282.367188 C 572.089844 281.667969 572.957031 279.570312 573.703125 277.703125 C 574.449219 275.839844 575.40625 273.550781 575.832031 272.617188 C 576.261719 271.6875 577.601562 268.539062 578.8125 265.625 C 580.023438 262.710938 581.566406 259.054688 582.242188 257.5 C 582.917969 255.945312 583.46875 254.492188 583.46875 254.269531 C 583.46875 254.050781 583.863281 253.367188 584.347656 252.753906 C 585.144531 251.742188 585.5 251.636719 588.105469 251.636719 C 593.023438 251.636719 596.101562 252.09375 596.34375 252.859375 C 596.644531 253.804688 600.753906 263.851562 601.480469 265.414062 C 601.808594 266.113281 602.351562 267.445312 602.695312 268.378906 C 603.609375 270.878906 606.765625 278.761719 607.445312 280.238281 C 607.769531 280.945312 608.882812 283.617188 609.921875 286.183594 C 610.960938 288.746094 612.394531 292.257812 613.109375 293.988281 C 613.820312 295.714844 614.308594 297.289062 614.1875 297.484375 C 613.820312 298.078125 604.429688 297.917969 603.925781 297.308594 C 603.683594 297.019531 602.632812 294.679688 601.585938 292.117188 L 599.691406 287.453125 L 580.246094 287.226562 L 578.410156 292.003906 C 577.398438 294.628906 576.378906 297.019531 576.148438 297.308594 C 575.519531 298.101562 565.648438 298.058594 565.648438 297.265625 Z M 596.199219 278.566406 C 596.199219 278.457031 595.734375 277.351562 595.167969 276.113281 C 594.597656 274.875 593.855469 273.105469 593.515625 272.179688 C 592.074219 268.277344 590.539062 264.539062 590.234375 264.195312 C 589.902344 263.828125 587.710938 268.140625 587.710938 269.15625 C 587.710938 269.449219 587.546875 269.875 587.34375 270.097656 C 587.140625 270.316406 586.449219 271.929688 585.800781 273.679688 C 585.15625 275.425781 584.460938 277.039062 584.261719 277.257812 C 584.058594 277.480469 583.894531 277.910156 583.894531 278.214844 C 583.894531 278.640625 585.28125 278.765625 590.046875 278.765625 C 593.429688 278.765625 596.199219 278.675781 596.199219 278.566406 Z M 632.6875 297.542969 C 627.007812 296.523438 622.398438 293.300781 619.578125 288.378906 C 617.695312 285.089844 617.277344 283.023438 617.105469 276.074219 C 616.96875 270.722656 617.082031 269.234375 617.847656 266.113281 C 619.753906 258.378906 624.664062 253.382812 631.617188 252.097656 C 634.507812 251.5625 652.152344 251.480469 652.964844 251.996094 C 653.363281 252.246094 653.480469 253.386719 653.390625 256.121094 L 653.265625 259.902344 L 643.933594 260.160156 C 638.796875 260.300781 634.121094 260.570312 633.535156 260.753906 C 630.851562 261.605469 628.679688 264.132812 627.679688 267.582031 C 626.570312 271.394531 627.410156 280.753906 629.226562 284.855469 C 629.652344 285.820312 630.707031 287.226562 631.570312 287.984375 L 633.140625 289.363281 L 642.78125 289.367188 C 648.082031 289.371094 652.664062 289.53125 652.964844 289.722656 C 653.363281 289.972656 653.480469 291.109375 653.390625 293.847656 L 653.265625 297.628906 L 643.507812 297.679688 C 638.140625 297.707031 633.269531 297.644531 632.6875 297.542969 Z M 672.785156 297.644531 C 672.550781 297.570312 671.238281 297.175781 669.867188 296.769531 C 665.085938 295.355469 661.089844 291.046875 659.308594 285.386719 C 658.476562 282.742188 658.359375 281.449219 658.359375 274.949219 C 658.359375 268.230469 658.453125 267.253906 659.375 264.5625 C 661.175781 259.3125 664.699219 255.226562 668.734375 253.71875 C 670.027344 253.234375 673.09375 252.570312 675.542969 252.246094 C 680.375 251.601562 692.386719 251.433594 693.273438 251.996094 C 693.671875 252.246094 693.789062 253.386719 693.699219 256.121094 L 693.574219 259.902344 L 683.605469 260.113281 C 676.859375 260.257812 673.339844 260.492188 672.722656 260.847656 C 670.351562 262.203125 668.078125 266.894531 668.40625 269.753906 L 668.542969 270.921875 L 681.058594 271.132812 L 693.574219 271.347656 L 693.574219 278.976562 L 681.148438 279.089844 C 670.492188 279.183594 668.6875 279.292969 668.476562 279.84375 C 668.089844 280.851562 669.195312 284.304688 670.542969 286.289062 C 672.554688 289.253906 672.996094 289.359375 683.476562 289.367188 C 688.566406 289.371094 692.972656 289.53125 693.273438 289.722656 C 693.671875 289.972656 693.789062 291.109375 693.699219 293.847656 L 693.574219 297.628906 L 683.390625 297.703125 C 677.792969 297.746094 673.019531 297.71875 672.785156 297.644531 Z M 701.78125 297.308594 C 701.476562 296.300781 701.699219 251.796875 702.011719 251.292969 C 702.511719 250.484375 728.632812 250.589844 731.796875 251.414062 C 736.183594 252.554688 738.664062 254.503906 740.714844 258.417969 C 741.292969 259.527344 741.496094 260.863281 741.507812 263.714844 C 741.523438 268.039062 740.753906 270.0625 738.011719 272.917969 L 736.503906 274.492188 L 738.21875 276.351562 C 740.886719 279.242188 741.523438 280.9375 741.523438 285.152344 C 741.523438 289.414062 740.644531 291.5625 737.75 294.402344 C 734.429688 297.660156 733.3125 297.839844 716.542969 297.839844 C 705.230469 297.839844 701.90625 297.71875 701.78125 297.308594 Z M 729.613281 288.117188 C 732.09375 285.789062 731.808594 281.589844 729.046875 279.734375 C 727.671875 278.808594 727.246094 278.765625 719.394531 278.765625 L 711.183594 278.765625 L 711.183594 284.027344 C 711.183594 287.101562 711.359375 289.351562 711.601562 289.433594 C 711.832031 289.511719 715.730469 289.476562 720.265625 289.363281 C 728.285156 289.15625 728.546875 289.121094 729.613281 288.117188 Z M 728.125 270.390625 C 731.265625 268.792969 732.285156 265.050781 730.328125 262.300781 C 728.941406 260.359375 727.261719 260.050781 718.820312 260.195312 L 711.398438 260.324219 L 711.277344 265.378906 C 711.1875 269.136719 711.296875 270.519531 711.699219 270.777344 C 712 270.964844 715.492188 271.125 719.457031 271.128906 C 725.496094 271.132812 726.910156 271.011719 728.125 270.390625 Z M 807.757812 297.160156 C 807.605469 296.773438 807.496094 288.324219 807.511719 278.390625 L 807.539062 260.324219 L 800.292969 260.210938 L 793.042969 260.09375 L 793.167969 255.972656 L 793.289062 251.847656 L 831.898438 251.847656 L 831.898438 259.902344 L 824.585938 260.019531 L 817.269531 260.132812 L 817.160156 278.878906 L 817.046875 297.628906 L 812.539062 297.746094 C 808.648438 297.851562 807.988281 297.769531 807.757812 297.160156 Z M 682.476562 235.417969 C 682.226562 235.015625 682.609375 233.785156 683.824219 231.078125 C 684.621094 229.300781 686.519531 224.996094 690.269531 216.453125 C 690.625 215.636719 691.34375 214.015625 691.863281 212.851562 C 692.71875 210.925781 693.917969 208.203125 696.246094 202.890625 C 696.707031 201.839844 697.703125 199.550781 698.464844 197.804688 C 699.222656 196.054688 700.273438 193.671875 700.800781 192.503906 C 701.84375 190.1875 702.265625 189.230469 705.851562 181.058594 C 707.179688 178.027344 708.4375 175.167969 708.648438 174.703125 C 708.96875 173.980469 712.488281 166.007812 715.003906 160.289062 C 715.414062 159.355469 716.363281 157.164062 717.105469 155.414062 C 719.460938 149.894531 720.566406 147.785156 721.101562 147.785156 C 721.386719 147.785156 721.878906 148.5 722.191406 149.375 C 722.503906 150.25 723.414062 152.394531 724.214844 154.144531 C 725.015625 155.890625 725.921875 157.894531 726.230469 158.59375 C 726.539062 159.292969 727.265625 160.914062 727.84375 162.195312 C 729.035156 164.84375 730.363281 167.796875 731.75 170.886719 C 737.039062 182.671875 738.183594 185.210938 739.183594 187.417969 C 739.816406 188.816406 740.65625 190.722656 741.054688 191.65625 C 741.449219 192.589844 741.929688 193.636719 742.117188 193.988281 C 742.414062 194.53125 744.699219 194.640625 757.976562 194.734375 L 773.492188 194.847656 L 774.464844 193.480469 C 777.039062 189.871094 780.667969 188.195312 785.0625 188.59375 C 790.410156 189.078125 794.679688 193.414062 795.449219 199.140625 C 796.027344 203.410156 792.148438 209.339844 787.839844 210.789062 C 783.375 212.285156 778.054688 211.023438 775.457031 207.847656 C 774.847656 207.101562 774.074219 206.160156 773.742188 205.75 C 773.195312 205.074219 772.023438 205.007812 760.433594 205.007812 C 753.445312 205.007812 747.636719 205.152344 747.53125 205.328125 C 747.421875 205.5 748.796875 208.902344 750.582031 212.886719 C 752.367188 216.867188 754.191406 220.96875 754.640625 222 C 755.472656 223.914062 756.746094 226.738281 759.082031 231.847656 C 759.808594 233.4375 760.402344 234.90625 760.402344 235.109375 C 760.402344 235.640625 749.359375 235.835938 748.703125 235.316406 C 748.40625 235.082031 746.980469 232.222656 745.535156 228.957031 C 744.085938 225.695312 742.164062 221.4375 741.257812 219.5 C 740.351562 217.566406 739.613281 215.902344 739.613281 215.804688 C 739.613281 215.707031 739.019531 214.335938 738.292969 212.753906 C 737.566406 211.175781 736.519531 208.867188 735.964844 207.625 L 734.960938 205.363281 L 733.574219 206.339844 C 732.8125 206.875 730.375 208.667969 728.15625 210.328125 C 725.941406 211.984375 721.070312 215.597656 717.335938 218.355469 C 707.277344 225.785156 705.109375 227.386719 699.515625 231.539062 L 694.425781 235.316406 L 688.546875 235.527344 C 685.316406 235.644531 682.582031 235.59375 682.472656 235.417969 Z M 712.125 208.546875 C 719.5625 203.082031 725.464844 198.699219 729.8125 195.414062 C 730.371094 194.992188 730.335938 194.707031 729.527344 193.082031 C 728.65625 191.335938 727.253906 188.269531 725.230469 183.707031 C 724.738281 182.601562 723.976562 180.882812 723.53125 179.894531 C 723.089844 178.902344 722.433594 177.378906 722.070312 176.503906 C 721.707031 175.628906 721.234375 174.914062 721.019531 174.914062 C 720.804688 174.914062 719.714844 176.964844 718.601562 179.46875 C 717.484375 181.976562 716.144531 184.980469 715.625 186.144531 C 714.050781 189.65625 713.050781 191.917969 711.601562 195.257812 C 710.839844 197.007812 709.789062 199.390625 709.265625 200.558594 C 708.738281 201.722656 707.902344 203.582031 707.402344 204.691406 C 706.90625 205.796875 706.328125 207.132812 706.121094 207.65625 C 705.914062 208.183594 705.0625 210.089844 704.230469 211.898438 C 703.398438 213.703125 702.804688 215.183594 702.90625 215.183594 C 703.007812 215.183594 707.15625 212.195312 712.125 208.546875 Z M 786.328125 204.777344 C 787.941406 203.941406 789.253906 201.808594 789.253906 200.007812 C 789.257812 196.195312 785.058594 193.269531 781.910156 194.890625 C 778.941406 196.414062 777.765625 199.183594 778.890625 201.996094 C 780.101562 205.011719 783.445312 206.265625 786.328125 204.777344 Z M 801.992188 229.785156 C 799.371094 228.570312 797.945312 227.382812 797.054688 225.671875 L 796.449219 224.507812 L 779.328125 224.507812 C 766.125 224.507812 762.113281 224.386719 761.808594 223.976562 C 761.589844 223.6875 761.058594 222.589844 760.621094 221.539062 C 760.1875 220.492188 759.378906 218.605469 758.824219 217.347656 C 758.269531 216.089844 757.914062 214.800781 758.035156 214.484375 C 758.214844 214.011719 761.660156 213.910156 777.320312 213.910156 L 796.386719 213.910156 L 797.230469 212.476562 C 798.777344 209.859375 803.089844 207.5625 806.46875 207.554688 C 811.007812 207.546875 815.554688 210.828125 817.207031 215.304688 C 818.34375 218.390625 818.34375 220.035156 817.210938 223.0625 C 814.808594 229.472656 807.902344 232.523438 801.992188 229.785156 Z M 810.230469 223.078125 C 811.546875 221.835938 811.746094 221.394531 811.746094 219.667969 C 811.746094 216.0625 809.765625 213.910156 806.441406 213.910156 C 803.289062 213.910156 801.136719 216.0625 801.136719 219.214844 C 801.136719 222.46875 803.203125 224.503906 806.515625 224.503906 C 808.429688 224.507812 808.910156 224.324219 810.230469 223.078125 Z M 640.453125 225.316406 C 638.175781 224.773438 634.765625 221.746094 633.507812 219.152344 C 631.484375 214.972656 632.507812 209.417969 635.917969 206.101562 C 638.492188 203.597656 640.242188 202.886719 643.808594 202.898438 C 648.195312 202.910156 650.023438 203.847656 653.589844 207.914062 L 654.757812 209.246094 L 670.878906 209.246094 C 687.292969 209.246094 687.921875 209.308594 686.644531 210.753906 C 686.445312 210.972656 686.035156 211.824219 685.730469 212.640625 C 685.421875 213.453125 684.636719 215.316406 683.976562 216.773438 L 682.785156 219.421875 L 654.460938 219.421875 L 652.664062 221.546875 C 651.675781 222.71875 650.078125 224.078125 649.109375 224.570312 C 647.078125 225.605469 643.113281 225.949219 640.453125 225.316406 Z M 646.304688 219.1875 C 648.042969 218.289062 649.230469 216.195312 649.234375 214.03125 C 649.234375 212.640625 648.949219 211.917969 647.929688 210.757812 C 644.992188 207.417969 639.894531 208.667969 638.582031 213.046875 C 638.179688 214.394531 638.242188 214.863281 639.023438 216.398438 C 640.589844 219.464844 643.566406 220.605469 646.304688 219.1875 Z M 625.269531 191.757812 C 622.992188 191.160156 619.054688 187.210938 618.351562 184.824219 C 615.964844 176.714844 621.085938 169.289062 629.082031 169.261719 C 633.003906 169.25 635.75 170.742188 638.945312 174.609375 L 639.894531 175.761719 L 670.871094 175.761719 C 687.925781 175.761719 701.851562 175.925781 701.851562 176.125 C 701.851562 176.457031 700.648438 179.261719 698.425781 184.132812 L 697.601562 185.933594 L 639.878906 185.933594 L 637.449219 188.40625 C 633.929688 191.988281 630.117188 193.039062 625.269531 191.757812 Z M 632.21875 185.117188 C 634 183.851562 634.890625 181.375 634.28125 179.390625 C 633.078125 175.472656 628.660156 174.058594 625.710938 176.644531 C 620.433594 181.273438 626.507812 189.179688 632.21875 185.117188 Z M 808.246094 191.671875 C 806.082031 190.847656 803.878906 189.105469 802.804688 187.371094 L 801.917969 185.933594 L 773.574219 185.933594 C 750.605469 185.933594 745.144531 185.828125 744.765625 185.375 C 744.226562 184.722656 740.886719 176.816406 740.886719 176.1875 C 740.886719 175.90625 751.148438 175.761719 771.144531 175.761719 L 801.398438 175.761719 L 803.363281 173.488281 C 806.660156 169.675781 810.90625 168.414062 815.777344 169.804688 C 820.03125 171.019531 823.625 176.101562 823.625 180.910156 C 823.625 184.777344 820.59375 189.503906 817 191.242188 C 814.890625 192.261719 810.375 192.484375 808.246094 191.671875 Z M 815.03125 185.269531 C 816.304688 184.433594 817.679688 182.1875 817.683594 180.941406 C 817.6875 177.875 815.058594 175.339844 811.863281 175.339844 C 810.390625 175.335938 809.820312 175.59375 808.617188 176.796875 C 806.171875 179.234375 806.082031 182.332031 808.386719 184.636719 C 810.21875 186.460938 812.828125 186.710938 815.03125 185.269531 Z M 815.03125 185.269531 " fill-opacity="1" fill-rule="nonzero"/><path fill="#013494" d="M 851.558594 297.164062 C 851.410156 296.777344 851.300781 288.328125 851.3125 278.394531 L 851.339844 260.332031 L 836.847656 260.097656 L 836.96875 255.976562 L 837.089844 251.851562 L 875.703125 251.851562 L 875.703125 259.90625 L 868.386719 260.023438 L 861.070312 260.136719 L 860.960938 278.886719 L 860.851562 297.632812 L 856.339844 297.75 C 852.453125 297.855469 851.792969 297.773438 851.558594 297.164062 Z M 851.558594 297.164062 " fill-opacity="1" fill-rule="nonzero"/><path fill="#1c75bc" d="M 1059.160156 100.632812 L 376.785156 100.632812 C 360.855469 100.632812 347.898438 113.578125 347.898438 129.496094 L 347.898438 325.726562 C 347.898438 325.980469 347.898438 326.242188 347.90625 326.492188 C 348.316406 342.058594 361.117188 354.59375 376.785156 354.59375 L 1059.160156 354.59375 C 1075.089844 354.59375 1088.046875 341.648438 1088.046875 325.726562 L 1088.046875 129.496094 C 1088.058594 113.578125 1075.097656 100.632812 1059.160156 100.632812 Z M 1087.28125 325.738281 C 1087.28125 341.230469 1074.667969 353.828125 1059.171875 353.828125 L 376.785156 353.828125 C 361.539062 353.828125 349.09375 341.648438 348.683594 326.503906 C 348.671875 326.25 348.671875 325.988281 348.671875 325.738281 L 348.671875 129.496094 C 348.671875 114.007812 361.285156 101.40625 376.785156 101.40625 L 1059.160156 101.40625 C 1074.660156 101.40625 1087.273438 114.007812 1087.273438 129.496094 L 1087.273438 325.738281 Z M 1087.28125 325.738281 " fill-opacity="1" fill-rule="nonzero"/><path fill="#1c75bc" d="M 607.214844 353.828125 C 606.792969 338.261719 594 325.726562 578.335938 325.726562 L 347.898438 325.726562 L 347.898438 325.738281 C 347.898438 325.988281 347.898438 326.25 347.90625 326.503906 L 578.335938 326.503906 C 593.574219 326.503906 606.019531 338.691406 606.4375 353.828125 C 606.449219 354.078125 606.449219 354.339844 606.449219 354.601562 L 607.222656 354.601562 C 607.222656 354.351562 607.222656 354.078125 607.214844 353.828125 Z M 607.214844 353.828125 " fill-opacity="1" fill-rule="nonzero"/><g clip-path="url(#0d0bcdb7cc)"><path fill="#1c75bc" d="M 376.785156 350.347656 L 497.507812 350.347656 L 497.507812 358.09375 L 376.785156 358.09375 C 358.933594 358.09375 344.40625 343.570312 344.40625 325.726562 L 352.15625 325.726562 C 352.164062 339.304688 363.210938 350.347656 376.785156 350.347656 Z M 376.785156 350.347656 " fill-opacity="1" fill-rule="nonzero"/></g><g clip-path="url(#1d2ceafac1)"><path fill="#1c75bc" d="M 1091.539062 325.726562 C 1091.539062 343.570312 1077.011719 358.09375 1059.160156 358.09375 L 1008.097656 358.09375 L 1008.097656 350.347656 L 1059.160156 350.347656 C 1072.746094 350.347656 1083.789062 339.304688 1083.789062 325.726562 Z M 1091.539062 325.726562 " fill-opacity="1" fill-rule="nonzero"/></g><path fill="#1c75bc" d="M 1059.160156 104.886719 L 938.4375 104.886719 L 938.4375 97.144531 L 1059.160156 97.144531 C 1077.011719 97.144531 1091.539062 111.664062 1091.539062 129.507812 L 1083.789062 129.507812 C 1083.789062 115.929688 1072.746094 104.886719 1059.160156 104.886719 Z M 1059.160156 104.886719 " fill-opacity="1" fill-rule="nonzero"/><path fill="#1c75bc" d="M 344.40625 129.507812 C 344.40625 111.664062 358.933594 97.144531 376.785156 97.144531 L 427.847656 97.144531 L 427.847656 104.886719 L 376.785156 104.886719 C 363.199219 104.886719 352.15625 115.929688 352.15625 129.507812 Z M 344.40625 129.507812 " fill-opacity="1" fill-rule="nonzero"/><path fill="#1c75bc" d="M 568.839844 97.527344 L 719.167969 97.527344 L 719.167969 105.269531 L 568.839844 105.269531 Z M 568.839844 97.527344 " fill-opacity="1" fill-rule="nonzero"/><path fill="#1c75bc" d="M 372.921875 135.945312 L 523.25 135.945312 L 523.25 143.691406 L 372.921875 143.691406 Z M 372.921875 135.945312 " fill-opacity="1" fill-rule="nonzero"/><path fill="#1c75bc" d="M 812.871094 135.945312 L 877.359375 135.945312 L 877.359375 143.691406 L 812.871094 143.691406 Z M 812.871094 135.945312 " fill-opacity="1" fill-rule="nonzero"/><path fill="#1c75bc" d="M 768.773438 349.953125 L 833.261719 349.953125 L 833.261719 357.699219 L 768.773438 357.699219 Z M 768.773438 349.953125 " fill-opacity="1" fill-rule="nonzero"/><path fill="#1c75bc" d="M 344.023438 243.277344 L 351.773438 243.277344 L 351.773438 290.078125 L 344.023438 290.078125 Z M 344.023438 243.277344 " fill-opacity="1" fill-rule="nonzero"/><path fill="#1c75bc" d="M 344.023438 205.621094 L 351.773438 205.621094 L 351.773438 222.8125 L 344.023438 222.8125 Z M 344.023438 205.621094 " fill-opacity="1" fill-rule="nonzero"/><path fill="#1c75bc" d="M 1083.789062 238.097656 L 1091.539062 238.097656 L 1091.539062 304.5625 L 1083.789062 304.5625 Z M 1083.789062 238.097656 " fill-opacity="1" fill-rule="nonzero"/><path fill="#1c75bc" d="M 1093.605469 172.816406 C 1093.605469 173.234375 1093.5625 173.644531 1093.480469 174.050781 C 1093.402344 174.460938 1093.28125 174.855469 1093.121094 175.238281 C 1092.960938 175.625 1092.769531 175.988281 1092.535156 176.332031 C 1092.304688 176.679688 1092.042969 177 1091.75 177.292969 C 1091.457031 177.585938 1091.136719 177.847656 1090.789062 178.078125 C 1090.445312 178.308594 1090.078125 178.503906 1089.695312 178.664062 C 1089.3125 178.824219 1088.914062 178.941406 1088.507812 179.023438 C 1088.101562 179.105469 1087.6875 179.144531 1087.273438 179.144531 C 1086.859375 179.144531 1086.445312 179.105469 1086.039062 179.023438 C 1085.628906 178.941406 1085.234375 178.824219 1084.851562 178.664062 C 1084.46875 178.503906 1084.101562 178.308594 1083.757812 178.078125 C 1083.410156 177.847656 1083.089844 177.585938 1082.796875 177.292969 C 1082.503906 177 1082.242188 176.679688 1082.011719 176.332031 C 1081.777344 175.988281 1081.585938 175.625 1081.425781 175.238281 C 1081.265625 174.855469 1081.144531 174.460938 1081.066406 174.050781 C 1080.984375 173.644531 1080.941406 173.234375 1080.941406 172.816406 C 1080.941406 172.402344 1080.984375 171.992188 1081.066406 171.582031 C 1081.144531 171.175781 1081.265625 170.78125 1081.425781 170.398438 C 1081.585938 170.011719 1081.777344 169.648438 1082.011719 169.304688 C 1082.242188 168.957031 1082.503906 168.636719 1082.796875 168.34375 C 1083.089844 168.050781 1083.410156 167.789062 1083.757812 167.558594 C 1084.101562 167.328125 1084.46875 167.132812 1084.851562 166.972656 C 1085.234375 166.8125 1085.628906 166.695312 1086.039062 166.613281 C 1086.445312 166.53125 1086.859375 166.492188 1087.273438 166.492188 C 1087.6875 166.492188 1088.101562 166.53125 1088.507812 166.613281 C 1088.914062 166.695312 1089.3125 166.8125 1089.695312 166.972656 C 1090.078125 167.132812 1090.445312 167.328125 1090.789062 167.558594 C 1091.136719 167.789062 1091.457031 168.050781 1091.75 168.34375 C 1092.042969 168.636719 1092.304688 168.957031 1092.535156 169.304688 C 1092.769531 169.648438 1092.960938 170.011719 1093.121094 170.398438 C 1093.28125 170.78125 1093.402344 171.175781 1093.480469 171.582031 C 1093.5625 171.992188 1093.605469 172.402344 1093.605469 172.816406 Z M 1093.605469 172.816406 " fill-opacity="1" fill-rule="nonzero"/><g clip-path="url(#fa75c295b1)"><path fill="#1c75bc" d="M 1087.273438 181.617188 C 1082.417969 181.617188 1078.476562 177.671875 1078.476562 172.828125 C 1078.476562 167.976562 1082.429688 164.035156 1087.273438 164.035156 C 1092.128906 164.035156 1096.070312 167.984375 1096.070312 172.828125 C 1096.078125 177.671875 1092.128906 181.617188 1087.273438 181.617188 Z M 1087.273438 164.800781 C 1082.847656 164.800781 1079.253906 168.402344 1079.253906 172.816406 C 1079.253906 177.234375 1082.855469 180.835938 1087.273438 180.835938 C 1091.699219 180.835938 1095.292969 177.234375 1095.292969 172.816406 C 1095.292969 168.402344 1091.699219 164.800781 1087.273438 164.800781 Z M 1087.273438 164.800781 " fill-opacity="1" fill-rule="nonzero"/></g><path fill="#1c75bc" d="M 1025.792969 139.820312 C 1025.792969 140.234375 1025.75 140.644531 1025.671875 141.054688 C 1025.589844 141.460938 1025.46875 141.855469 1025.308594 142.242188 C 1025.152344 142.625 1024.957031 142.988281 1024.726562 143.335938 C 1024.492188 143.679688 1024.230469 144 1023.9375 144.292969 C 1023.644531 144.585938 1023.324219 144.847656 1022.976562 145.082031 C 1022.632812 145.3125 1022.269531 145.507812 1021.882812 145.664062 C 1021.5 145.824219 1021.105469 145.945312 1020.695312 146.023438 C 1020.289062 146.105469 1019.878906 146.148438 1019.460938 146.148438 C 1019.046875 146.148438 1018.632812 146.105469 1018.226562 146.023438 C 1017.820312 145.945312 1017.421875 145.824219 1017.039062 145.664062 C 1016.65625 145.507812 1016.289062 145.3125 1015.945312 145.082031 C 1015.597656 144.847656 1015.28125 144.585938 1014.984375 144.292969 C 1014.691406 144 1014.429688 143.679688 1014.199219 143.335938 C 1013.96875 142.988281 1013.773438 142.625 1013.613281 142.242188 C 1013.453125 141.855469 1013.335938 141.460938 1013.253906 141.054688 C 1013.171875 140.644531 1013.132812 140.234375 1013.132812 139.820312 C 1013.132812 139.402344 1013.171875 138.992188 1013.253906 138.585938 C 1013.335938 138.175781 1013.453125 137.78125 1013.613281 137.398438 C 1013.773438 137.015625 1013.96875 136.648438 1014.199219 136.304688 C 1014.429688 135.957031 1014.691406 135.640625 1014.984375 135.34375 C 1015.28125 135.050781 1015.597656 134.789062 1015.945312 134.558594 C 1016.289062 134.328125 1016.65625 134.132812 1017.039062 133.972656 C 1017.421875 133.816406 1017.820312 133.695312 1018.226562 133.613281 C 1018.632812 133.53125 1019.046875 133.492188 1019.460938 133.492188 C 1019.878906 133.492188 1020.289062 133.53125 1020.695312 133.613281 C 1021.105469 133.695312 1021.5 133.816406 1021.882812 133.972656 C 1022.269531 134.132812 1022.632812 134.328125 1022.980469 134.558594 C 1023.324219 134.789062 1023.644531 135.050781 1023.9375 135.34375 C 1024.230469 135.640625 1024.492188 135.957031 1024.726562 136.304688 C 1024.957031 136.648438 1025.152344 137.015625 1025.308594 137.398438 C 1025.46875 137.78125 1025.589844 138.175781 1025.671875 138.585938 C 1025.75 138.992188 1025.792969 139.402344 1025.792969 139.820312 Z M 1025.792969 139.820312 " fill-opacity="1" fill-rule="nonzero"/><path fill="#1c75bc" d="M 1019.460938 148.609375 C 1014.605469 148.609375 1010.667969 144.664062 1010.667969 139.820312 C 1010.667969 134.976562 1014.617188 131.027344 1019.460938 131.027344 C 1024.308594 131.027344 1028.257812 134.976562 1028.257812 139.820312 C 1028.257812 144.664062 1024.308594 148.609375 1019.460938 148.609375 Z M 1019.460938 131.804688 C 1015.035156 131.804688 1011.441406 135.40625 1011.441406 139.820312 C 1011.441406 144.234375 1015.046875 147.835938 1019.460938 147.835938 C 1023.878906 147.835938 1027.480469 144.234375 1027.480469 139.820312 C 1027.480469 135.40625 1023.886719 131.804688 1019.460938 131.804688 Z M 1019.460938 131.804688 " fill-opacity="1" fill-rule="nonzero"/><path fill="#1c75bc" d="M 793.066406 100.625 C 793.066406 101.039062 793.027344 101.449219 792.945312 101.859375 C 792.863281 102.265625 792.746094 102.660156 792.585938 103.046875 C 792.425781 103.429688 792.230469 103.792969 792 104.140625 C 791.769531 104.484375 791.507812 104.804688 791.214844 105.097656 C 790.917969 105.390625 790.601562 105.652344 790.253906 105.882812 C 789.910156 106.117188 789.542969 106.308594 789.160156 106.46875 C 788.777344 106.628906 788.378906 106.75 787.972656 106.828125 C 787.566406 106.910156 787.152344 106.949219 786.738281 106.949219 C 786.320312 106.949219 785.910156 106.910156 785.503906 106.828125 C 785.09375 106.75 784.699219 106.628906 784.316406 106.46875 C 783.929688 106.308594 783.566406 106.117188 783.21875 105.882812 C 782.875 105.652344 782.554688 105.390625 782.261719 105.097656 C 781.96875 104.804688 781.703125 104.484375 781.472656 104.140625 C 781.242188 103.792969 781.046875 103.429688 780.890625 103.046875 C 780.730469 102.660156 780.609375 102.265625 780.527344 101.859375 C 780.449219 101.449219 780.40625 101.039062 780.40625 100.625 C 780.40625 100.207031 780.449219 99.796875 780.527344 99.390625 C 780.609375 98.980469 780.730469 98.585938 780.890625 98.203125 C 781.046875 97.820312 781.242188 97.453125 781.472656 97.109375 C 781.703125 96.761719 781.96875 96.445312 782.261719 96.148438 C 782.554688 95.855469 782.875 95.59375 783.21875 95.363281 C 783.566406 95.132812 783.929688 94.9375 784.316406 94.777344 C 784.699219 94.617188 785.09375 94.5 785.503906 94.417969 C 785.910156 94.335938 786.320312 94.296875 786.738281 94.296875 C 787.152344 94.296875 787.566406 94.335938 787.972656 94.417969 C 788.378906 94.5 788.777344 94.617188 789.160156 94.777344 C 789.542969 94.9375 789.910156 95.132812 790.253906 95.363281 C 790.601562 95.59375 790.917969 95.855469 791.214844 96.148438 C 791.507812 96.445312 791.769531 96.761719 792 97.109375 C 792.230469 97.453125 792.425781 97.820312 792.585938 98.203125 C 792.746094 98.585938 792.863281 98.980469 792.945312 99.390625 C 793.027344 99.796875 793.066406 100.207031 793.066406 100.625 Z M 793.066406 100.625 " fill-opacity="1" fill-rule="nonzero"/><g clip-path="url(#45f3c0ee41)"><path fill="#1c75bc" d="M 786.738281 109.425781 C 781.882812 109.425781 777.941406 105.476562 777.941406 100.632812 C 777.941406 95.789062 781.890625 91.832031 786.738281 91.832031 C 791.59375 91.832031 795.53125 95.78125 795.53125 100.625 C 795.53125 105.46875 791.59375 109.425781 786.738281 109.425781 Z M 786.738281 92.605469 C 782.3125 92.605469 778.71875 96.210938 778.71875 100.625 C 778.71875 105.039062 782.320312 108.640625 786.738281 108.640625 C 791.164062 108.640625 794.757812 105.039062 794.757812 100.625 C 794.757812 96.210938 791.164062 92.605469 786.738281 92.605469 Z M 786.738281 92.605469 " fill-opacity="1" fill-rule="nonzero"/></g><path fill="#1c75bc" d="M 354.441406 300.410156 L 361.175781 300.410156 L 361.175781 322.171875 L 354.441406 322.171875 Z M 354.441406 300.410156 " fill-opacity="1" fill-rule="nonzero"/><path fill="#1c75bc" d="M 362.601562 300.410156 L 369.074219 300.410156 L 369.074219 322.171875 L 362.601562 322.171875 Z M 362.601562 300.410156 " fill-opacity="0.962" fill-rule="nonzero"/><path fill="#1c75bc" d="M 370.761719 300.410156 L 376.972656 300.410156 L 376.972656 322.171875 L 370.761719 322.171875 Z M 370.761719 300.410156 " fill-opacity="0.923" fill-rule="nonzero"/><path fill="#1c75bc" d="M 378.921875 300.410156 L 384.878906 300.410156 L 384.878906 322.171875 L 378.921875 322.171875 Z M 378.921875 300.410156 " fill-opacity="0.885" fill-rule="nonzero"/><path fill="#1c75bc" d="M 387.082031 300.410156 L 392.777344 300.410156 L 392.777344 322.171875 L 387.082031 322.171875 Z M 387.082031 300.410156 " fill-opacity="0.846" fill-rule="nonzero"/><path fill="#1c75bc" d="M 395.242188 300.410156 L 400.679688 300.410156 L 400.679688 322.171875 L 395.242188 322.171875 Z M 395.242188 300.410156 " fill-opacity="0.808" fill-rule="nonzero"/><path fill="#1c75bc" d="M 403.402344 300.410156 L 408.578125 300.410156 L 408.578125 322.171875 L 403.402344 322.171875 Z M 403.402344 300.410156 " fill-opacity="0.769" fill-rule="nonzero"/><path fill="#1c75bc" d="M 411.5625 300.410156 L 416.484375 300.410156 L 416.484375 322.171875 L 411.5625 322.171875 Z M 411.5625 300.410156 " fill-opacity="0.731" fill-rule="nonzero"/><path fill="#1c75bc" d="M 419.726562 300.410156 L 424.382812 300.410156 L 424.382812 322.171875 L 419.726562 322.171875 Z M 419.726562 300.410156 " fill-opacity="0.692" fill-rule="nonzero"/><path fill="#1c75bc" d="M 427.886719 300.410156 L 432.28125 300.410156 L 432.28125 322.171875 L 427.886719 322.171875 Z M 427.886719 300.410156 " fill-opacity="0.654" fill-rule="nonzero"/><path fill="#1c75bc" d="M 436.046875 300.410156 L 440.191406 300.410156 L 440.191406 322.171875 L 436.046875 322.171875 Z M 436.046875 300.410156 " fill-opacity="0.615" fill-rule="nonzero"/><path fill="#1c75bc" d="M 444.207031 300.410156 L 448.089844 300.410156 L 448.089844 322.171875 L 444.207031 322.171875 Z M 444.207031 300.410156 " fill-opacity="0.577" fill-rule="nonzero"/><path fill="#1c75bc" d="M 452.367188 300.410156 L 455.988281 300.410156 L 455.988281 322.171875 L 452.367188 322.171875 Z M 452.367188 300.410156 " fill-opacity="0.538" fill-rule="nonzero"/><path fill="#1c75bc" d="M 460.527344 300.410156 L 463.886719 300.410156 L 463.886719 322.171875 L 460.527344 322.171875 Z M 460.527344 300.410156 " fill-opacity="0.5" fill-rule="nonzero"/><path fill="#1c75bc" d="M 618.230469 341.519531 L 1065.789062 341.519531 L 1065.789062 342.292969 L 618.230469 342.292969 Z M 618.230469 341.519531 " fill-opacity="1" fill-rule="nonzero"/><path fill="#1c75bc" d="M 347.898438 139.4375 L 1087.28125 139.4375 L 1087.28125 140.210938 L 347.898438 140.210938 Z M 347.898438 139.4375 " fill-opacity="1" fill-rule="nonzero"/></svg>