<svg xmlns="http://www.w3.org/2000/svg" xmlns:xlink="http://www.w3.org/1999/xlink" width="1920" zoomAndPan="magnify" viewBox="0 0 1440 449.999984" height="600" preserveAspectRatio="xMidYMid meet" version="1.0"><defs><clipPath id="3bd9ada7b8"><path d="M 257 349 L 447 349 L 447 388.882812 L 257 388.882812 Z M 257 349 " clip-rule="nonzero"/></clipPath><clipPath id="590b58335d"><path d="M 1074 349 L 1177 349 L 1177 388.882812 L 1074 388.882812 Z M 1074 349 " clip-rule="nonzero"/></clipPath><clipPath id="8ded4de358"><path d="M 779 378 L 860 378 L 860 388.882812 L 779 388.882812 Z M 779 378 " clip-rule="nonzero"/></clipPath><clipPath id="af2283a56d"><path d="M 791 61.132812 L 813 61.132812 L 813 83 L 791 83 Z M 791 61.132812 " clip-rule="nonzero"/></clipPath></defs><rect x="-144" width="1728" fill="#ffffff" y="-44.999998" height="539.99998" fill-opacity="1"/><rect x="-144" width="1728" fill="#ffffff" y="-44.999998" height="539.99998" fill-opacity="1"/><path fill="#013494" d="M 769.273438 314.589844 C 760.253906 310.691406 755.722656 305.996094 753.304688 298.03125 C 752.292969 294.703125 752.296875 278.8125 753.308594 275.484375 C 756.085938 266.347656 763.421875 259.824219 772.601562 258.335938 C 777.144531 257.601562 783.566406 257.703125 787.695312 258.578125 C 797.769531 260.710938 805.046875 268.53125 806.421875 278.699219 C 807.117188 283.847656 806.714844 295.65625 805.742188 298.761719 C 803.851562 304.765625 798.808594 310.425781 792.773438 313.308594 C 789.402344 314.921875 789.320312 314.933594 779.980469 315.042969 C 774.140625 315.113281 770.085938 314.941406 769.273438 314.589844 Z M 784.21875 304.511719 C 787.546875 303.523438 790.871094 300.671875 792.660156 297.269531 C 794.015625 294.691406 794.070312 294.269531 794.074219 286.5 C 794.082031 279 793.988281 278.234375 792.820312 275.882812 C 790.085938 270.371094 785.449219 267.46875 779.457031 267.507812 C 773.46875 267.546875 769.296875 270.246094 766.460938 275.921875 C 765.179688 278.476562 765.097656 279.101562 765.097656 286.179688 C 765.097656 294.808594 765.773438 297.230469 769.175781 300.761719 C 773.242188 304.980469 778.34375 306.253906 784.21875 304.511719 Z M 530.097656 313.964844 C 530.097656 313.378906 534.984375 301.5 537.636719 295.628906 C 538.027344 294.769531 539.09375 292.1875 540.011719 289.894531 C 540.929688 287.597656 542.109375 284.78125 542.632812 283.632812 C 543.160156 282.484375 544.808594 278.613281 546.300781 275.023438 C 547.792969 271.4375 549.691406 266.9375 550.519531 265.027344 C 551.351562 263.113281 552.03125 261.324219 552.03125 261.054688 C 552.03125 260.78125 552.519531 259.941406 553.113281 259.183594 C 554.09375 257.941406 554.53125 257.8125 557.738281 257.8125 C 563.792969 257.8125 567.582031 258.371094 567.878906 259.316406 C 568.25 260.480469 573.308594 272.84375 574.199219 274.765625 C 574.601562 275.625 575.273438 277.269531 575.691406 278.417969 C 576.820312 281.492188 580.707031 291.191406 581.542969 293.011719 C 581.9375 293.878906 583.308594 297.167969 584.589844 300.324219 C 585.867188 303.480469 587.628906 307.804688 588.511719 309.929688 C 589.390625 312.058594 589.988281 313.996094 589.839844 314.234375 C 589.386719 314.964844 577.828125 314.769531 577.207031 314.019531 C 576.910156 313.660156 575.617188 310.785156 574.332031 307.628906 L 571.996094 301.890625 L 548.066406 301.609375 L 545.804688 307.488281 C 544.558594 310.722656 543.308594 313.660156 543.023438 314.019531 C 542.246094 314.992188 530.097656 314.941406 530.097656 313.964844 Z M 567.699219 290.953125 C 567.699219 290.816406 567.125 289.457031 566.429688 287.933594 C 565.730469 286.410156 564.816406 284.230469 564.394531 283.09375 C 562.625 278.289062 560.734375 273.691406 560.355469 273.269531 C 559.949219 272.816406 557.253906 278.121094 557.253906 279.371094 C 557.253906 279.734375 557.050781 280.257812 556.800781 280.527344 C 556.550781 280.800781 555.699219 282.785156 554.902344 284.9375 C 554.109375 287.089844 553.253906 289.074219 553.003906 289.34375 C 552.757812 289.617188 552.554688 290.144531 552.554688 290.519531 C 552.554688 291.042969 554.261719 291.195312 560.125 291.195312 C 564.289062 291.195312 567.699219 291.085938 567.699219 290.953125 Z M 612.609375 314.304688 C 605.621094 313.054688 599.945312 309.089844 596.476562 303.03125 C 594.15625 298.980469 593.644531 296.4375 593.429688 287.886719 C 593.261719 281.300781 593.398438 279.464844 594.34375 275.628906 C 596.691406 266.109375 602.734375 259.957031 611.289062 258.378906 C 614.851562 257.722656 636.5625 257.617188 637.566406 258.253906 C 638.054688 258.5625 638.199219 259.964844 638.089844 263.332031 L 637.9375 267.984375 L 626.449219 268.300781 C 620.128906 268.476562 614.371094 268.804688 613.652344 269.03125 C 610.347656 270.082031 607.675781 273.191406 606.445312 277.433594 C 605.082031 282.125 606.113281 293.644531 608.347656 298.691406 C 608.871094 299.878906 610.171875 301.609375 611.234375 302.542969 L 613.167969 304.238281 L 625.03125 304.246094 C 631.554688 304.25 637.195312 304.445312 637.566406 304.679688 C 638.054688 304.992188 638.199219 306.390625 638.089844 309.757812 L 637.9375 314.410156 L 625.925781 314.476562 C 619.320312 314.511719 613.328125 314.433594 612.609375 314.304688 Z M 661.957031 314.429688 C 661.671875 314.339844 660.054688 313.855469 658.367188 313.355469 C 652.484375 311.613281 647.566406 306.3125 645.371094 299.347656 C 644.347656 296.089844 644.203125 294.503906 644.203125 286.5 C 644.203125 278.230469 644.320312 277.027344 645.453125 273.722656 C 647.671875 267.257812 652.007812 262.230469 656.976562 260.375 C 658.566406 259.777344 662.335938 258.960938 665.351562 258.5625 C 671.300781 257.769531 686.085938 257.5625 687.175781 258.253906 C 687.664062 258.5625 687.808594 259.964844 687.699219 263.332031 L 687.546875 267.984375 L 675.273438 268.242188 C 666.972656 268.421875 662.640625 268.710938 661.882812 269.144531 C 658.964844 270.816406 656.164062 276.589844 656.570312 280.105469 L 656.734375 281.546875 L 672.140625 281.808594 L 687.546875 282.066406 L 687.546875 291.457031 L 672.253906 291.597656 C 659.140625 291.714844 656.914062 291.847656 656.652344 292.527344 C 656.179688 293.765625 657.542969 298.011719 659.199219 300.457031 C 661.675781 304.109375 662.21875 304.238281 675.117188 304.246094 C 681.378906 304.25 686.804688 304.445312 687.175781 304.679688 C 687.664062 304.992188 687.808594 306.390625 687.699219 309.757812 L 687.546875 314.410156 L 675.015625 314.503906 C 668.121094 314.554688 662.246094 314.523438 661.957031 314.429688 Z M 697.644531 314.019531 C 697.273438 312.78125 697.546875 258.007812 697.929688 257.390625 C 698.546875 256.394531 730.695312 256.527344 734.585938 257.539062 C 739.988281 258.941406 743.042969 261.339844 745.5625 266.15625 C 746.277344 267.523438 746.523438 269.167969 746.539062 272.679688 C 746.5625 277.996094 745.617188 280.488281 742.238281 284.003906 L 740.382812 285.9375 L 742.496094 288.226562 C 745.773438 291.785156 746.558594 293.871094 746.558594 299.058594 C 746.558594 304.304688 745.480469 306.949219 741.914062 310.441406 C 737.828125 314.449219 736.457031 314.671875 715.816406 314.671875 C 701.890625 314.671875 697.796875 314.523438 697.644531 314.019531 Z M 731.902344 302.707031 C 734.953125 299.839844 734.605469 294.675781 731.207031 292.390625 C 729.507812 291.25 728.988281 291.195312 719.324219 291.195312 L 709.21875 291.195312 L 709.21875 297.675781 C 709.21875 301.457031 709.433594 304.222656 709.734375 304.324219 C 710.015625 304.421875 714.816406 304.382812 720.398438 304.238281 C 730.265625 303.984375 730.589844 303.941406 731.902344 302.707031 Z M 730.070312 280.894531 C 733.9375 278.925781 735.191406 274.316406 732.78125 270.9375 C 731.074219 268.546875 729.007812 268.167969 718.621094 268.347656 L 709.480469 268.503906 L 709.332031 274.722656 C 709.222656 279.347656 709.355469 281.050781 709.855469 281.367188 C 710.222656 281.601562 714.519531 281.792969 719.402344 281.796875 C 726.832031 281.804688 728.574219 281.65625 730.070312 280.894531 Z M 828.078125 313.835938 C 827.894531 313.359375 827.757812 302.960938 827.777344 290.734375 L 827.808594 268.503906 L 818.890625 268.363281 L 809.972656 268.21875 L 810.269531 258.070312 L 857.792969 258.070312 L 857.792969 267.984375 L 848.789062 268.125 L 839.785156 268.269531 L 839.648438 291.339844 L 839.515625 314.410156 L 833.960938 314.558594 C 829.175781 314.683594 828.363281 314.585938 828.078125 313.835938 Z M 673.882812 237.851562 C 673.578125 237.355469 674.050781 235.84375 675.546875 232.511719 C 676.527344 230.320312 678.863281 225.023438 683.476562 214.511719 C 683.917969 213.507812 684.800781 211.511719 685.4375 210.078125 C 686.492188 207.710938 687.96875 204.355469 690.835938 197.820312 C 691.402344 196.527344 692.628906 193.710938 693.5625 191.558594 C 694.496094 189.410156 695.792969 186.472656 696.4375 185.039062 C 697.722656 182.1875 698.242188 181.011719 702.65625 170.953125 C 704.292969 167.226562 705.839844 163.703125 706.097656 163.128906 C 706.492188 162.242188 710.820312 152.429688 713.921875 145.394531 C 714.425781 144.246094 715.59375 141.546875 716.507812 139.394531 C 719.40625 132.601562 720.765625 130.003906 721.425781 130.003906 C 721.777344 130.003906 722.382812 130.882812 722.765625 131.960938 C 723.152344 133.035156 724.273438 135.675781 725.257812 137.828125 C 726.246094 139.980469 727.359375 142.445312 727.738281 143.308594 C 728.117188 144.167969 729.011719 146.164062 729.722656 147.742188 C 731.1875 151 732.824219 154.632812 734.53125 158.433594 C 741.042969 172.9375 742.449219 176.066406 743.679688 178.78125 C 744.457031 180.5 745.496094 182.847656 745.984375 183.996094 C 746.46875 185.144531 747.058594 186.433594 747.292969 186.863281 C 747.65625 187.535156 750.472656 187.667969 766.8125 187.785156 L 785.90625 187.921875 L 787.101562 186.242188 C 790.269531 181.796875 794.738281 179.738281 800.144531 180.226562 C 806.730469 180.824219 811.980469 186.15625 812.933594 193.207031 C 813.640625 198.460938 808.867188 205.761719 803.566406 207.539062 C 798.070312 209.382812 791.519531 207.828125 788.324219 203.921875 C 787.574219 203.003906 786.625 201.84375 786.214844 201.339844 C 785.539062 200.507812 784.097656 200.429688 769.832031 200.429688 C 761.230469 200.429688 754.085938 200.605469 753.953125 200.820312 C 753.820312 201.035156 755.511719 205.21875 757.707031 210.121094 C 759.90625 215.023438 762.152344 220.070312 762.703125 221.335938 C 763.726562 223.695312 765.292969 227.167969 768.171875 233.460938 C 769.066406 235.417969 769.796875 237.222656 769.796875 237.472656 C 769.796875 238.125 756.207031 238.367188 755.394531 237.726562 C 755.03125 237.441406 753.277344 233.917969 751.496094 229.902344 C 749.714844 225.886719 747.347656 220.648438 746.234375 218.265625 C 745.121094 215.878906 744.207031 213.832031 744.207031 213.710938 C 744.207031 213.59375 743.476562 211.90625 742.582031 209.960938 C 741.6875 208.019531 740.402344 205.175781 739.71875 203.644531 L 738.484375 200.863281 L 736.777344 202.0625 C 735.835938 202.722656 732.835938 204.933594 730.109375 206.972656 C 727.378906 209.015625 721.386719 213.460938 716.792969 216.855469 C 704.410156 225.996094 701.746094 227.96875 694.859375 233.078125 L 688.59375 237.726562 L 681.359375 237.988281 C 677.382812 238.132812 674.019531 238.070312 673.882812 237.851562 Z M 710.375 204.78125 C 719.53125 198.058594 726.796875 192.664062 732.148438 188.621094 C 732.832031 188.101562 732.789062 187.75 731.796875 185.753906 C 730.726562 183.601562 728.996094 179.828125 726.507812 174.214844 C 725.902344 172.851562 724.964844 170.738281 724.417969 169.519531 C 723.875 168.300781 723.0625 166.421875 722.617188 165.347656 C 722.171875 164.269531 721.589844 163.390625 721.324219 163.390625 C 721.058594 163.390625 719.71875 165.914062 718.347656 169 C 716.976562 172.082031 715.328125 175.78125 714.683594 177.214844 C 712.746094 181.535156 711.519531 184.320312 709.730469 188.429688 C 708.796875 190.582031 707.503906 193.515625 706.855469 194.949219 C 706.210938 196.386719 705.179688 198.671875 704.566406 200.035156 C 703.953125 201.398438 703.242188 203.039062 702.988281 203.6875 C 702.734375 204.332031 701.6875 206.683594 700.664062 208.90625 C 699.640625 211.128906 698.90625 212.949219 699.03125 212.949219 C 699.15625 212.949219 704.261719 209.273438 710.375 204.78125 Z M 801.703125 200.140625 C 803.691406 199.113281 805.304688 196.488281 805.304688 194.273438 C 805.3125 189.582031 800.140625 185.980469 796.265625 187.972656 C 792.613281 189.851562 791.167969 193.261719 792.550781 196.71875 C 794.039062 200.433594 798.15625 201.972656 801.703125 200.140625 Z M 820.980469 230.917969 C 817.757812 229.425781 816.003906 227.964844 814.90625 225.859375 L 814.160156 224.425781 L 793.085938 224.425781 C 776.835938 224.425781 771.902344 224.273438 771.527344 223.773438 C 771.257812 223.414062 770.601562 222.0625 770.066406 220.773438 C 769.53125 219.480469 768.535156 217.160156 767.851562 215.613281 C 767.167969 214.066406 766.730469 212.480469 766.882812 212.089844 C 767.105469 211.507812 771.34375 211.382812 790.617188 211.382812 L 814.082031 211.382812 L 815.125 209.621094 C 817.027344 206.398438 822.335938 203.570312 826.496094 203.5625 C 832.082031 203.550781 837.675781 207.589844 839.707031 213.097656 C 841.105469 216.894531 841.109375 218.921875 839.710938 222.648438 C 836.757812 230.535156 828.257812 234.289062 820.980469 230.917969 Z M 831.121094 222.667969 C 832.742188 221.140625 832.988281 220.59375 832.988281 218.46875 C 832.988281 214.03125 830.546875 211.382812 826.457031 211.382812 C 822.578125 211.382812 819.929688 214.03125 819.929688 217.914062 C 819.929688 221.917969 822.472656 224.417969 826.550781 224.421875 C 828.90625 224.425781 829.496094 224.199219 831.121094 222.667969 Z M 622.167969 225.417969 C 619.363281 224.75 615.164062 221.027344 613.617188 217.832031 C 611.125 212.6875 612.386719 205.851562 616.585938 201.773438 C 619.753906 198.691406 621.90625 197.816406 626.296875 197.832031 C 631.695312 197.847656 633.945312 199 638.332031 204.003906 L 639.773438 205.644531 L 659.613281 205.644531 C 679.8125 205.644531 680.585938 205.71875 679.015625 207.496094 C 678.773438 207.769531 678.269531 208.8125 677.890625 209.816406 C 677.515625 210.824219 676.542969 213.109375 675.734375 214.902344 L 674.265625 218.164062 L 639.40625 218.164062 L 637.195312 220.78125 C 635.980469 222.222656 634.011719 223.894531 632.820312 224.503906 C 630.320312 225.777344 625.4375 226.195312 622.167969 225.417969 Z M 629.367188 217.878906 C 631.507812 216.773438 632.972656 214.195312 632.972656 211.53125 C 632.976562 209.820312 632.621094 208.929688 631.367188 207.503906 C 627.753906 203.394531 621.480469 204.929688 619.863281 210.324219 C 619.367188 211.976562 619.441406 212.558594 620.40625 214.445312 C 622.332031 218.21875 625.996094 219.621094 629.367188 217.878906 Z M 603.476562 184.121094 C 600.675781 183.382812 595.828125 178.527344 594.964844 175.589844 C 592.023438 165.609375 598.328125 156.46875 608.167969 156.4375 C 612.996094 156.421875 616.378906 158.253906 620.308594 163.015625 L 621.480469 164.433594 L 659.605469 164.433594 C 680.59375 164.433594 697.730469 164.636719 697.730469 164.882812 C 697.730469 165.289062 696.253906 168.742188 693.515625 174.738281 L 692.503906 176.953125 L 621.460938 176.953125 L 618.46875 179.996094 C 614.136719 184.402344 609.445312 185.695312 603.476562 184.121094 Z M 612.03125 175.949219 C 614.222656 174.390625 615.320312 171.339844 614.570312 168.898438 C 613.089844 164.078125 607.652344 162.335938 604.023438 165.519531 C 597.527344 171.214844 605.003906 180.949219 612.03125 175.949219 Z M 828.679688 184.015625 C 826.019531 183 823.304688 180.855469 821.984375 178.722656 L 820.890625 176.953125 L 786.007812 176.953125 C 757.738281 176.953125 751.015625 176.824219 750.554688 176.265625 C 749.886719 175.460938 745.773438 165.734375 745.773438 164.957031 C 745.773438 164.613281 758.40625 164.433594 783.015625 164.433594 L 820.253906 164.433594 L 822.671875 161.636719 C 826.726562 156.941406 831.957031 155.390625 837.949219 157.101562 C 843.1875 158.601562 847.609375 164.855469 847.609375 170.769531 C 847.609375 175.53125 843.875 181.347656 839.453125 183.488281 C 836.859375 184.742188 831.300781 185.011719 828.679688 184.015625 Z M 837.03125 176.136719 C 838.597656 175.109375 840.292969 172.34375 840.296875 170.808594 C 840.300781 167.035156 837.066406 163.917969 833.132812 163.914062 C 831.320312 163.914062 830.617188 164.226562 829.136719 165.707031 C 826.128906 168.710938 826.019531 172.523438 828.855469 175.355469 C 831.105469 177.601562 834.320312 177.910156 837.03125 176.136719 Z M 837.03125 176.136719 " fill-opacity="1" fill-rule="nonzero"/><path fill="#013494" d="M 881.988281 313.84375 C 881.804688 313.363281 881.667969 302.96875 881.6875 290.742188 L 881.71875 268.511719 L 872.800781 268.367188 L 863.882812 268.226562 L 864.179688 258.078125 L 911.703125 258.078125 L 911.703125 267.988281 L 902.699219 268.132812 L 893.695312 268.273438 L 893.5625 291.34375 L 893.425781 314.417969 L 887.875 314.5625 C 883.089844 314.691406 882.277344 314.589844 881.988281 313.84375 Z M 881.988281 313.84375 " fill-opacity="1" fill-rule="nonzero"/><path fill="#1c75bc" d="M 1137.007812 71.964844 L 297.652344 71.964844 C 278.0625 71.964844 262.121094 87.898438 262.121094 107.496094 L 262.121094 349.050781 C 262.121094 349.363281 262.121094 349.683594 262.132812 349.996094 C 262.636719 369.15625 278.382812 384.585938 297.652344 384.585938 L 1137.007812 384.585938 C 1156.601562 384.585938 1172.539062 368.652344 1172.539062 349.050781 L 1172.539062 107.496094 C 1172.550781 87.898438 1156.613281 71.964844 1137.007812 71.964844 Z M 1171.597656 349.0625 C 1171.597656 368.132812 1156.082031 383.644531 1137.019531 383.644531 L 297.652344 383.644531 C 278.898438 383.644531 263.589844 368.652344 263.085938 350.007812 C 263.074219 349.695312 263.074219 349.375 263.074219 349.0625 L 263.074219 107.496094 C 263.074219 88.425781 278.589844 72.917969 297.652344 72.917969 L 1137.007812 72.917969 C 1156.070312 72.917969 1171.585938 88.425781 1171.585938 107.496094 L 1171.585938 349.0625 Z M 1171.597656 349.0625 " fill-opacity="1" fill-rule="nonzero"/><path fill="#1c75bc" d="M 581.089844 383.644531 C 580.574219 364.480469 564.839844 349.050781 545.570312 349.050781 L 262.121094 349.050781 L 262.121094 349.0625 C 262.121094 349.375 262.121094 349.695312 262.132812 350.007812 L 545.570312 350.007812 C 564.3125 350.007812 579.621094 365.007812 580.136719 383.644531 C 580.148438 383.953125 580.148438 384.273438 580.148438 384.597656 L 581.101562 384.597656 C 581.101562 384.285156 581.101562 383.953125 581.089844 383.644531 Z M 581.089844 383.644531 " fill-opacity="1" fill-rule="nonzero"/><g clip-path="url(#3bd9ada7b8)"><path fill="#1c75bc" d="M 297.652344 379.359375 L 446.148438 379.359375 L 446.148438 388.894531 L 297.652344 388.894531 C 275.695312 388.894531 257.824219 371.015625 257.824219 349.050781 L 267.355469 349.050781 C 267.367188 365.765625 280.953125 379.359375 297.652344 379.359375 Z M 297.652344 379.359375 " fill-opacity="1" fill-rule="nonzero"/></g><g clip-path="url(#590b58335d)"><path fill="#1c75bc" d="M 1176.835938 349.050781 C 1176.835938 371.015625 1158.964844 388.894531 1137.007812 388.894531 L 1074.199219 388.894531 L 1074.199219 379.359375 L 1137.007812 379.359375 C 1153.71875 379.359375 1167.304688 365.765625 1167.304688 349.050781 Z M 1176.835938 349.050781 " fill-opacity="1" fill-rule="nonzero"/></g><path fill="#1c75bc" d="M 1137.007812 77.203125 L 988.511719 77.203125 L 988.511719 67.667969 L 1137.007812 67.667969 C 1158.964844 67.667969 1176.835938 85.542969 1176.835938 107.507812 L 1167.304688 107.507812 C 1167.304688 90.792969 1153.71875 77.203125 1137.007812 77.203125 Z M 1137.007812 77.203125 " fill-opacity="1" fill-rule="nonzero"/><path fill="#1c75bc" d="M 257.824219 107.507812 C 257.824219 85.542969 275.695312 67.667969 297.652344 67.667969 L 360.460938 67.667969 L 360.460938 77.203125 L 297.652344 77.203125 C 280.945312 77.203125 267.355469 90.792969 267.355469 107.507812 Z M 257.824219 107.507812 " fill-opacity="1" fill-rule="nonzero"/><path fill="#1c75bc" d="M 533.890625 68.140625 L 718.800781 68.140625 L 718.800781 77.671875 L 533.890625 77.671875 Z M 533.890625 68.140625 " fill-opacity="1" fill-rule="nonzero"/><path fill="#1c75bc" d="M 292.898438 115.433594 L 477.808594 115.433594 L 477.808594 124.96875 L 292.898438 124.96875 Z M 292.898438 115.433594 " fill-opacity="1" fill-rule="nonzero"/><path fill="#1c75bc" d="M 834.058594 115.433594 L 913.382812 115.433594 L 913.382812 124.96875 L 834.058594 124.96875 Z M 834.058594 115.433594 " fill-opacity="1" fill-rule="nonzero"/><g clip-path="url(#8ded4de358)"><path fill="#1c75bc" d="M 779.816406 378.875 L 859.140625 378.875 L 859.140625 388.410156 L 779.816406 388.410156 Z M 779.816406 378.875 " fill-opacity="1" fill-rule="nonzero"/></g><path fill="#1c75bc" d="M 257.355469 247.558594 L 266.886719 247.558594 L 266.886719 305.167969 L 257.355469 305.167969 Z M 257.355469 247.558594 " fill-opacity="1" fill-rule="nonzero"/><path fill="#1c75bc" d="M 257.355469 201.203125 L 266.886719 201.203125 L 266.886719 222.363281 L 257.355469 222.363281 Z M 257.355469 201.203125 " fill-opacity="1" fill-rule="nonzero"/><path fill="#1c75bc" d="M 1167.304688 241.179688 L 1176.835938 241.179688 L 1176.835938 322.996094 L 1167.304688 322.996094 Z M 1167.304688 241.179688 " fill-opacity="1" fill-rule="nonzero"/><path fill="#1c75bc" d="M 1179.375 160.824219 C 1179.375 161.335938 1179.324219 161.839844 1179.222656 162.34375 C 1179.125 162.84375 1178.976562 163.332031 1178.78125 163.804688 C 1178.585938 164.277344 1178.34375 164.726562 1178.0625 165.148438 C 1177.777344 165.574219 1177.453125 165.96875 1177.09375 166.332031 C 1176.730469 166.691406 1176.339844 167.015625 1175.914062 167.300781 C 1175.488281 167.582031 1175.039062 167.824219 1174.566406 168.019531 C 1174.09375 168.214844 1173.609375 168.363281 1173.105469 168.460938 C 1172.605469 168.5625 1172.097656 168.613281 1171.585938 168.613281 C 1171.074219 168.613281 1170.570312 168.5625 1170.066406 168.460938 C 1169.566406 168.363281 1169.078125 168.214844 1168.605469 168.019531 C 1168.136719 167.824219 1167.6875 167.582031 1167.261719 167.300781 C 1166.835938 167.015625 1166.441406 166.691406 1166.082031 166.332031 C 1165.71875 165.96875 1165.398438 165.574219 1165.113281 165.148438 C 1164.828125 164.726562 1164.589844 164.277344 1164.394531 163.804688 C 1164.199219 163.332031 1164.050781 162.84375 1163.949219 162.34375 C 1163.851562 161.839844 1163.800781 161.335938 1163.800781 160.824219 C 1163.800781 160.3125 1163.851562 159.804688 1163.949219 159.304688 C 1164.050781 158.800781 1164.199219 158.316406 1164.394531 157.84375 C 1164.589844 157.371094 1164.828125 156.921875 1165.113281 156.496094 C 1165.398438 156.070312 1165.71875 155.675781 1166.082031 155.316406 C 1166.441406 154.953125 1166.835938 154.632812 1167.261719 154.347656 C 1167.6875 154.0625 1168.136719 153.824219 1168.605469 153.628906 C 1169.078125 153.429688 1169.566406 153.285156 1170.066406 153.183594 C 1170.570312 153.085938 1171.074219 153.035156 1171.585938 153.035156 C 1172.097656 153.035156 1172.605469 153.085938 1173.105469 153.183594 C 1173.605469 153.285156 1174.09375 153.429688 1174.566406 153.628906 C 1175.039062 153.824219 1175.488281 154.0625 1175.914062 154.347656 C 1176.339844 154.632812 1176.730469 154.953125 1177.09375 155.316406 C 1177.453125 155.675781 1177.777344 156.070312 1178.0625 156.496094 C 1178.34375 156.921875 1178.585938 157.371094 1178.78125 157.84375 C 1178.976562 158.316406 1179.125 158.800781 1179.222656 159.304688 C 1179.324219 159.804688 1179.375 160.3125 1179.375 160.824219 Z M 1179.375 160.824219 " fill-opacity="1" fill-rule="nonzero"/><path fill="#1c75bc" d="M 1171.585938 171.65625 C 1165.613281 171.65625 1160.769531 166.796875 1160.769531 160.835938 C 1160.769531 154.859375 1165.625 150.011719 1171.585938 150.011719 C 1177.558594 150.011719 1182.40625 154.871094 1182.40625 160.835938 C 1182.417969 166.796875 1177.558594 171.65625 1171.585938 171.65625 Z M 1171.585938 150.953125 C 1166.144531 150.953125 1161.722656 155.390625 1161.722656 160.824219 C 1161.722656 166.257812 1166.15625 170.691406 1171.585938 170.691406 C 1177.03125 170.691406 1181.453125 166.257812 1181.453125 160.824219 C 1181.453125 155.390625 1177.03125 150.953125 1171.585938 150.953125 Z M 1171.585938 150.953125 " fill-opacity="1" fill-rule="nonzero"/><path fill="#1c75bc" d="M 1095.960938 120.203125 C 1095.960938 120.714844 1095.910156 121.21875 1095.8125 121.722656 C 1095.710938 122.222656 1095.566406 122.710938 1095.367188 123.183594 C 1095.171875 123.65625 1094.933594 124.105469 1094.648438 124.527344 C 1094.367188 124.953125 1094.042969 125.347656 1093.679688 125.710938 C 1093.320312 126.070312 1092.925781 126.394531 1092.5 126.679688 C 1092.074219 126.960938 1091.628906 127.203125 1091.15625 127.398438 C 1090.683594 127.59375 1090.195312 127.742188 1089.695312 127.839844 C 1089.191406 127.941406 1088.6875 127.992188 1088.175781 127.992188 C 1087.664062 127.992188 1087.15625 127.941406 1086.65625 127.839844 C 1086.15625 127.742188 1085.667969 127.59375 1085.195312 127.398438 C 1084.722656 127.203125 1084.273438 126.960938 1083.847656 126.679688 C 1083.425781 126.394531 1083.03125 126.070312 1082.667969 125.710938 C 1082.308594 125.347656 1081.984375 124.953125 1081.699219 124.527344 C 1081.417969 124.105469 1081.175781 123.65625 1080.980469 123.183594 C 1080.785156 122.710938 1080.636719 122.222656 1080.539062 121.722656 C 1080.4375 121.21875 1080.390625 120.714844 1080.390625 120.203125 C 1080.390625 119.691406 1080.4375 119.183594 1080.539062 118.683594 C 1080.636719 118.179688 1080.785156 117.695312 1080.980469 117.222656 C 1081.175781 116.75 1081.417969 116.300781 1081.699219 115.875 C 1081.984375 115.449219 1082.308594 115.054688 1082.667969 114.695312 C 1083.03125 114.332031 1083.425781 114.011719 1083.847656 113.726562 C 1084.273438 113.441406 1084.722656 113.203125 1085.195312 113.007812 C 1085.667969 112.808594 1086.15625 112.664062 1086.65625 112.5625 C 1087.15625 112.464844 1087.664062 112.414062 1088.175781 112.414062 C 1088.6875 112.414062 1089.191406 112.464844 1089.695312 112.5625 C 1090.195312 112.664062 1090.683594 112.808594 1091.15625 113.007812 C 1091.628906 113.203125 1092.074219 113.441406 1092.5 113.726562 C 1092.925781 114.011719 1093.320312 114.332031 1093.679688 114.695312 C 1094.042969 115.054688 1094.367188 115.449219 1094.648438 115.875 C 1094.933594 116.300781 1095.171875 116.75 1095.367188 117.222656 C 1095.566406 117.695312 1095.710938 118.179688 1095.8125 118.683594 C 1095.910156 119.183594 1095.960938 119.691406 1095.960938 120.203125 Z M 1095.960938 120.203125 " fill-opacity="1" fill-rule="nonzero"/><path fill="#1c75bc" d="M 1088.175781 131.023438 C 1082.203125 131.023438 1077.355469 126.164062 1077.355469 120.203125 C 1077.355469 114.238281 1082.214844 109.378906 1088.175781 109.378906 C 1094.136719 109.378906 1098.992188 114.238281 1098.992188 120.203125 C 1098.992188 126.164062 1094.136719 131.023438 1088.175781 131.023438 Z M 1088.175781 110.332031 C 1082.730469 110.332031 1078.308594 114.769531 1078.308594 120.203125 C 1078.308594 125.636719 1082.742188 130.070312 1088.175781 130.070312 C 1093.609375 130.070312 1098.039062 125.636719 1098.039062 120.203125 C 1098.039062 114.769531 1093.617188 110.332031 1088.175781 110.332031 Z M 1088.175781 110.332031 " fill-opacity="1" fill-rule="nonzero"/><path fill="#1c75bc" d="M 809.699219 71.953125 C 809.699219 72.464844 809.648438 72.96875 809.550781 73.472656 C 809.449219 73.972656 809.304688 74.460938 809.105469 74.933594 C 808.910156 75.40625 808.671875 75.855469 808.386719 76.28125 C 808.105469 76.707031 807.78125 77.097656 807.417969 77.460938 C 807.058594 77.820312 806.664062 78.144531 806.238281 78.429688 C 805.8125 78.714844 805.367188 78.953125 804.894531 79.148438 C 804.421875 79.34375 803.933594 79.492188 803.433594 79.59375 C 802.929688 79.691406 802.425781 79.742188 801.914062 79.742188 C 801.402344 79.742188 800.894531 79.691406 800.394531 79.59375 C 799.894531 79.492188 799.40625 79.34375 798.933594 79.148438 C 798.460938 78.953125 798.011719 78.714844 797.585938 78.429688 C 797.164062 78.144531 796.769531 77.820312 796.40625 77.460938 C 796.046875 77.097656 795.722656 76.707031 795.4375 76.28125 C 795.15625 75.855469 794.914062 75.40625 794.71875 74.933594 C 794.523438 74.460938 794.375 73.972656 794.277344 73.472656 C 794.175781 72.96875 794.128906 72.464844 794.128906 71.953125 C 794.128906 71.441406 794.175781 70.933594 794.277344 70.433594 C 794.375 69.929688 794.523438 69.445312 794.71875 68.972656 C 794.914062 68.5 795.15625 68.050781 795.4375 67.625 C 795.722656 67.199219 796.046875 66.808594 796.40625 66.445312 C 796.769531 66.082031 797.164062 65.761719 797.585938 65.476562 C 798.011719 65.191406 798.460938 64.953125 798.933594 64.757812 C 799.40625 64.5625 799.894531 64.414062 800.394531 64.3125 C 800.894531 64.214844 801.402344 64.164062 801.914062 64.164062 C 802.425781 64.164062 802.929688 64.214844 803.433594 64.3125 C 803.933594 64.414062 804.421875 64.5625 804.894531 64.757812 C 805.367188 64.953125 805.8125 65.191406 806.238281 65.476562 C 806.664062 65.761719 807.058594 66.082031 807.417969 66.445312 C 807.78125 66.808594 808.105469 67.199219 808.386719 67.625 C 808.671875 68.050781 808.910156 68.5 809.105469 68.972656 C 809.304688 69.445312 809.449219 69.929688 809.550781 70.433594 C 809.648438 70.933594 809.699219 71.441406 809.699219 71.953125 Z M 809.699219 71.953125 " fill-opacity="1" fill-rule="nonzero"/><g clip-path="url(#af2283a56d)"><path fill="#1c75bc" d="M 801.914062 82.785156 C 795.941406 82.785156 791.09375 77.925781 791.09375 71.964844 C 791.09375 66.003906 795.953125 61.132812 801.914062 61.132812 C 807.886719 61.132812 812.730469 65.992188 812.730469 71.953125 C 812.730469 77.914062 807.886719 82.785156 801.914062 82.785156 Z M 801.914062 62.085938 C 796.46875 62.085938 792.046875 66.519531 792.046875 71.953125 C 792.046875 77.386719 796.480469 81.820312 801.914062 81.820312 C 807.355469 81.820312 811.777344 77.386719 811.777344 71.953125 C 811.777344 66.519531 807.355469 62.085938 801.914062 62.085938 Z M 801.914062 62.085938 " fill-opacity="1" fill-rule="nonzero"/></g><path fill="#1c75bc" d="M 270.171875 317.886719 L 278.453125 317.886719 L 278.453125 344.675781 L 270.171875 344.675781 Z M 270.171875 317.886719 " fill-opacity="1" fill-rule="nonzero"/><path fill="#1c75bc" d="M 280.207031 317.886719 L 288.167969 317.886719 L 288.167969 344.675781 L 280.207031 344.675781 Z M 280.207031 317.886719 " fill-opacity="0.962" fill-rule="nonzero"/><path fill="#1c75bc" d="M 290.246094 317.886719 L 297.882812 317.886719 L 297.882812 344.675781 L 290.246094 344.675781 Z M 290.246094 317.886719 " fill-opacity="0.923" fill-rule="nonzero"/><path fill="#1c75bc" d="M 300.285156 317.886719 L 307.609375 317.886719 L 307.609375 344.675781 L 300.285156 344.675781 Z M 300.285156 317.886719 " fill-opacity="0.885" fill-rule="nonzero"/><path fill="#1c75bc" d="M 310.320312 317.886719 L 317.328125 317.886719 L 317.328125 344.675781 L 310.320312 344.675781 Z M 310.320312 317.886719 " fill-opacity="0.846" fill-rule="nonzero"/><path fill="#1c75bc" d="M 320.359375 317.886719 L 327.042969 317.886719 L 327.042969 344.675781 L 320.359375 344.675781 Z M 320.359375 317.886719 " fill-opacity="0.808" fill-rule="nonzero"/><path fill="#1c75bc" d="M 330.394531 317.886719 L 336.757812 317.886719 L 336.757812 344.675781 L 330.394531 344.675781 Z M 330.394531 317.886719 " fill-opacity="0.769" fill-rule="nonzero"/><path fill="#1c75bc" d="M 340.433594 317.886719 L 346.484375 317.886719 L 346.484375 344.675781 L 340.433594 344.675781 Z M 340.433594 317.886719 " fill-opacity="0.731" fill-rule="nonzero"/><path fill="#1c75bc" d="M 350.46875 317.886719 L 356.203125 317.886719 L 356.203125 344.675781 L 350.46875 344.675781 Z M 350.46875 317.886719 " fill-opacity="0.692" fill-rule="nonzero"/><path fill="#1c75bc" d="M 360.507812 317.886719 L 365.917969 317.886719 L 365.917969 344.675781 L 360.507812 344.675781 Z M 360.507812 317.886719 " fill-opacity="0.654" fill-rule="nonzero"/><path fill="#1c75bc" d="M 370.546875 317.886719 L 375.644531 317.886719 L 375.644531 344.675781 L 370.546875 344.675781 Z M 370.546875 317.886719 " fill-opacity="0.615" fill-rule="nonzero"/><path fill="#1c75bc" d="M 380.582031 317.886719 L 385.359375 317.886719 L 385.359375 344.675781 L 380.582031 344.675781 Z M 380.582031 317.886719 " fill-opacity="0.577" fill-rule="nonzero"/><path fill="#1c75bc" d="M 390.621094 317.886719 L 395.074219 317.886719 L 395.074219 344.675781 L 390.621094 344.675781 Z M 390.621094 317.886719 " fill-opacity="0.538" fill-rule="nonzero"/><path fill="#1c75bc" d="M 400.65625 317.886719 L 404.792969 317.886719 L 404.792969 344.675781 L 400.65625 344.675781 Z M 400.65625 317.886719 " fill-opacity="0.5" fill-rule="nonzero"/><path fill="#1c75bc" d="M 594.640625 368.488281 L 1145.160156 368.488281 L 1145.160156 369.445312 L 594.640625 369.445312 Z M 594.640625 368.488281 " fill-opacity="1" fill-rule="nonzero"/><path fill="#1c75bc" d="M 262.121094 119.730469 L 1171.597656 119.730469 L 1171.597656 120.683594 L 262.121094 120.683594 Z M 262.121094 119.730469 " fill-opacity="1" fill-rule="nonzero"/></svg>