<svg xmlns="http://www.w3.org/2000/svg" xmlns:xlink="http://www.w3.org/1999/xlink" width="1920" zoomAndPan="magnify" viewBox="0 0 1440 449.999984" height="600" preserveAspectRatio="xMidYMid meet" version="1.0"><defs><clipPath id="c1de278894"><path d="M 335 328 L 493 328 L 493 361.613281 L 335 361.613281 Z M 335 328 " clip-rule="nonzero"/></clipPath><clipPath id="ba0dbb088c"><path d="M 1014 328 L 1101 328 L 1101 361.613281 L 1014 361.613281 Z M 1014 328 " clip-rule="nonzero"/></clipPath><clipPath id="b48a0d140b"><path d="M 769 353 L 836 353 L 836 361.613281 L 769 361.613281 Z M 769 353 " clip-rule="nonzero"/></clipPath><clipPath id="7660d3b6c4"><path d="M 334.453125 243 L 343 243 L 343 292 L 334.453125 292 Z M 334.453125 243 " clip-rule="nonzero"/></clipPath><clipPath id="0a4f1650d4"><path d="M 334.453125 205 L 343 205 L 343 223 L 334.453125 223 Z M 334.453125 205 " clip-rule="nonzero"/></clipPath><clipPath id="a46cb5ac89"><path d="M 779 88.613281 L 798 88.613281 L 798 107 L 779 107 Z M 779 88.613281 " clip-rule="nonzero"/></clipPath><clipPath id="94a87c8b79"><path d="M 1133.496094 87.132812 L 1440 87.132812 L 1440 361.632812 L 1133.496094 361.632812 Z M 1133.496094 87.132812 " clip-rule="nonzero"/></clipPath><clipPath id="e2b5922f00"><path d="M 308 187 L 326.957031 187 L 326.957031 206 L 308 206 Z M 308 187 " clip-rule="nonzero"/></clipPath><clipPath id="8630fa1c41"><path d="M 308 246 L 326.957031 246 L 326.957031 264 L 308 264 Z M 308 246 " clip-rule="nonzero"/></clipPath></defs><rect x="-144" width="1728" fill="#ffffff" y="-44.999998" height="539.99998" fill-opacity="1"/><rect x="-144" width="1728" fill="#ffffff" y="-44.999998" height="539.99998" fill-opacity="1"/><path fill="#013494" d="M 760.496094 299.773438 C 753 296.527344 749.234375 292.613281 747.222656 285.980469 C 746.382812 283.210938 746.382812 269.976562 747.222656 267.203125 C 749.53125 259.59375 755.628906 254.164062 763.261719 252.921875 C 767.035156 252.308594 772.371094 252.394531 775.804688 253.121094 C 784.175781 254.898438 790.222656 261.410156 791.367188 269.878906 C 791.945312 274.167969 791.613281 284 790.800781 286.589844 C 789.234375 291.589844 785.042969 296.300781 780.027344 298.703125 C 777.222656 300.046875 777.15625 300.054688 769.390625 300.148438 C 764.539062 300.207031 761.167969 300.0625 760.496094 299.773438 Z M 772.914062 291.375 C 775.679688 290.554688 778.441406 288.179688 779.929688 285.34375 C 781.054688 283.199219 781.101562 282.847656 781.105469 276.378906 C 781.109375 270.128906 781.035156 269.492188 780.066406 267.535156 C 777.789062 262.945312 773.9375 260.527344 768.957031 260.5625 C 763.980469 260.59375 760.515625 262.839844 758.15625 267.566406 C 757.089844 269.695312 757.023438 270.214844 757.023438 276.109375 C 757.023438 283.296875 757.585938 285.316406 760.414062 288.253906 C 763.792969 291.769531 768.035156 292.828125 772.914062 291.375 Z M 561.710938 299.25 C 561.710938 298.761719 565.769531 288.871094 567.976562 283.980469 C 568.300781 283.265625 569.1875 281.113281 569.949219 279.203125 C 570.710938 277.292969 571.691406 274.945312 572.128906 273.988281 C 572.566406 273.035156 573.9375 269.808594 575.175781 266.820312 C 576.414062 263.835938 577.996094 260.085938 578.683594 258.492188 C 579.375 256.902344 579.9375 255.410156 579.9375 255.1875 C 579.9375 254.960938 580.34375 254.257812 580.839844 253.628906 C 581.652344 252.59375 582.019531 252.484375 584.679688 252.484375 C 589.714844 252.484375 592.863281 252.953125 593.113281 253.738281 C 593.417969 254.707031 597.621094 265.003906 598.363281 266.605469 C 598.699219 267.320312 599.253906 268.6875 599.605469 269.644531 C 600.539062 272.207031 603.769531 280.285156 604.464844 281.800781 C 604.796875 282.523438 605.9375 285.261719 607 287.890625 C 608.058594 290.519531 609.527344 294.121094 610.257812 295.890625 C 610.988281 297.664062 611.484375 299.277344 611.363281 299.476562 C 610.988281 300.085938 601.378906 299.917969 600.863281 299.296875 C 600.617188 298.996094 599.542969 296.601562 598.472656 293.972656 L 596.53125 289.195312 L 586.589844 289.078125 L 576.644531 288.960938 L 574.761719 293.855469 C 573.730469 296.550781 572.6875 298.996094 572.453125 299.296875 C 571.808594 300.105469 561.710938 300.0625 561.710938 299.25 Z M 592.960938 280.085938 C 592.960938 279.972656 592.484375 278.839844 591.90625 277.570312 C 591.324219 276.300781 590.566406 274.488281 590.214844 273.539062 C 588.742188 269.539062 587.171875 265.710938 586.859375 265.359375 C 586.519531 264.980469 584.28125 269.398438 584.28125 270.441406 C 584.28125 270.742188 584.109375 271.175781 583.902344 271.40625 C 583.699219 271.632812 582.988281 273.285156 582.328125 275.074219 C 581.664062 276.867188 580.957031 278.519531 580.75 278.746094 C 580.542969 278.972656 580.375 279.414062 580.375 279.722656 C 580.375 280.160156 581.792969 280.289062 586.667969 280.289062 C 590.128906 280.289062 592.960938 280.195312 592.960938 280.085938 Z M 630.285156 299.535156 C 624.476562 298.492188 619.761719 295.1875 616.878906 290.144531 C 614.949219 286.769531 614.523438 284.652344 614.34375 277.53125 C 614.207031 272.046875 614.320312 270.519531 615.109375 267.324219 C 617.058594 259.394531 622.078125 254.273438 629.191406 252.957031 C 632.148438 252.410156 650.195312 252.324219 651.027344 252.855469 C 651.433594 253.113281 651.554688 254.277344 651.464844 257.082031 L 651.335938 260.957031 L 641.789062 261.21875 C 636.535156 261.367188 631.75 261.640625 631.15625 261.828125 C 628.40625 262.703125 626.1875 265.292969 625.164062 268.828125 C 624.03125 272.734375 624.886719 282.328125 626.746094 286.53125 C 627.179688 287.519531 628.261719 288.960938 629.144531 289.738281 L 630.75 291.148438 L 640.609375 291.15625 C 646.03125 291.160156 650.722656 291.324219 651.03125 291.519531 C 651.433594 291.777344 651.554688 292.941406 651.464844 295.75 L 651.335938 299.621094 L 641.355469 299.675781 C 635.863281 299.703125 630.882812 299.640625 630.285156 299.535156 Z M 671.300781 299.636719 C 671.0625 299.5625 669.71875 299.15625 668.316406 298.742188 C 663.425781 297.292969 659.339844 292.875 657.515625 287.074219 C 656.664062 284.363281 656.546875 283.042969 656.546875 276.378906 C 656.546875 269.492188 656.644531 268.488281 657.585938 265.734375 C 659.425781 260.351562 663.03125 256.164062 667.160156 254.617188 C 668.484375 254.125 671.617188 253.445312 674.125 253.109375 C 679.066406 252.449219 691.355469 252.277344 692.261719 252.855469 C 692.667969 253.113281 692.789062 254.277344 692.695312 257.082031 L 692.570312 260.957031 L 682.371094 261.171875 C 675.472656 261.320312 671.871094 261.5625 671.242188 261.925781 C 668.8125 263.316406 666.488281 268.121094 666.824219 271.050781 L 666.960938 272.25 L 692.570312 272.6875 L 692.570312 280.507812 L 679.859375 280.621094 C 668.957031 280.71875 667.109375 280.832031 666.894531 281.394531 C 666.5 282.429688 667.632812 285.964844 669.007812 288 C 671.066406 291.042969 671.519531 291.148438 682.238281 291.15625 C 687.445312 291.160156 691.953125 291.324219 692.261719 291.519531 C 692.667969 291.777344 692.789062 292.941406 692.695312 295.75 L 692.570312 299.621094 L 682.152344 299.699219 C 676.421875 299.742188 671.539062 299.714844 671.300781 299.636719 Z M 700.960938 299.296875 C 700.652344 298.261719 700.878906 252.648438 701.199219 252.132812 C 701.710938 251.304688 728.429688 251.414062 731.664062 252.257812 C 736.152344 253.429688 738.691406 255.425781 740.789062 259.4375 C 741.382812 260.574219 741.585938 261.945312 741.597656 264.867188 C 741.617188 269.296875 740.832031 271.371094 738.023438 274.296875 L 736.480469 275.910156 L 738.238281 277.816406 C 740.964844 280.777344 741.613281 282.515625 741.613281 286.835938 C 741.613281 291.203125 740.71875 293.40625 737.753906 296.316406 C 734.359375 299.652344 733.21875 299.839844 716.0625 299.839844 C 704.488281 299.839844 701.089844 299.714844 700.960938 299.296875 Z M 729.433594 289.875 C 731.96875 287.488281 731.679688 283.183594 728.855469 281.28125 C 727.445312 280.332031 727.011719 280.289062 718.980469 280.289062 L 710.582031 280.289062 L 710.582031 285.683594 C 710.582031 288.832031 710.757812 291.136719 711.007812 291.222656 C 711.242188 291.300781 715.234375 291.269531 719.871094 291.148438 C 728.074219 290.9375 728.339844 290.902344 729.433594 289.875 Z M 727.910156 271.707031 C 731.125 270.066406 732.167969 266.230469 730.164062 263.417969 C 728.746094 261.425781 727.027344 261.109375 718.394531 261.257812 L 710.796875 261.390625 L 710.675781 266.570312 C 710.585938 270.421875 710.695312 271.839844 711.109375 272.101562 C 711.417969 272.296875 714.988281 272.457031 719.046875 272.460938 C 725.222656 272.464844 726.667969 272.34375 727.910156 271.707031 Z M 809.367188 299.144531 C 809.214844 298.746094 809.101562 290.085938 809.117188 279.90625 L 809.144531 261.390625 L 801.730469 261.273438 L 794.316406 261.152344 L 794.441406 256.925781 L 794.566406 252.703125 L 834.0625 252.703125 L 834.0625 260.957031 L 826.582031 261.074219 L 819.097656 261.195312 L 818.984375 280.40625 L 818.871094 299.621094 L 814.257812 299.742188 C 810.28125 299.851562 809.605469 299.765625 809.367188 299.144531 Z M 681.214844 235.863281 C 680.960938 235.449219 681.351562 234.191406 682.59375 231.414062 C 683.410156 229.589844 685.351562 225.179688 689.1875 216.425781 C 689.550781 215.589844 690.285156 213.929688 690.816406 212.734375 C 691.695312 210.761719 692.921875 207.96875 695.300781 202.523438 C 695.773438 201.449219 696.792969 199.101562 697.570312 197.3125 C 698.347656 195.519531 699.421875 193.074219 699.957031 191.878906 C 701.027344 189.507812 701.457031 188.527344 705.125 180.148438 C 706.488281 177.042969 707.773438 174.113281 707.988281 173.632812 C 708.316406 172.894531 711.914062 164.722656 714.488281 158.863281 C 714.910156 157.90625 715.878906 155.660156 716.640625 153.867188 C 719.046875 148.210938 720.175781 146.046875 720.726562 146.046875 C 721.019531 146.046875 721.519531 146.78125 721.839844 147.675781 C 722.160156 148.570312 723.09375 150.769531 723.914062 152.5625 C 724.730469 154.355469 725.660156 156.40625 725.972656 157.125 C 726.289062 157.84375 727.03125 159.503906 727.621094 160.816406 C 728.839844 163.53125 730.199219 166.554688 731.617188 169.722656 C 737.027344 181.800781 738.199219 184.40625 739.21875 186.667969 C 739.867188 188.101562 740.730469 190.054688 741.136719 191.011719 C 741.542969 191.96875 742.03125 193.042969 742.226562 193.402344 C 742.527344 193.957031 744.867188 194.070312 758.445312 194.167969 L 774.316406 194.28125 L 775.3125 192.882812 C 777.945312 189.179688 781.65625 187.464844 786.152344 187.875 C 791.625 188.371094 795.988281 192.808594 796.777344 198.683594 C 797.367188 203.054688 793.402344 209.136719 788.992188 210.617188 C 784.425781 212.152344 778.984375 210.859375 776.328125 207.605469 C 775.703125 206.84375 774.914062 205.875 774.574219 205.457031 C 774.011719 204.761719 772.816406 204.695312 760.957031 204.695312 C 753.808594 204.695312 747.871094 204.84375 747.757812 205.023438 C 747.648438 205.203125 749.054688 208.6875 750.878906 212.769531 C 752.707031 216.851562 754.574219 221.054688 755.03125 222.109375 C 755.882812 224.074219 757.183594 226.964844 759.578125 232.203125 C 760.320312 233.835938 760.929688 235.339844 760.929688 235.546875 C 760.929688 236.089844 749.632812 236.289062 748.960938 235.757812 C 748.65625 235.519531 747.199219 232.585938 745.71875 229.242188 C 744.238281 225.898438 742.269531 221.535156 741.34375 219.550781 C 740.417969 217.566406 739.660156 215.859375 739.660156 215.757812 C 739.660156 215.660156 739.054688 214.253906 738.308594 212.636719 C 737.566406 211.015625 736.496094 208.648438 735.929688 207.375 L 734.902344 205.058594 L 733.484375 206.058594 C 732.703125 206.609375 730.210938 208.449219 727.941406 210.148438 C 725.675781 211.847656 720.695312 215.550781 716.875 218.375 C 706.585938 225.992188 704.367188 227.632812 698.644531 231.886719 L 693.4375 235.757812 L 687.425781 235.976562 C 684.121094 236.09375 681.324219 236.042969 681.214844 235.863281 Z M 711.542969 208.320312 C 719.152344 202.722656 725.191406 198.230469 729.636719 194.863281 C 730.207031 194.433594 730.171875 194.136719 729.34375 192.472656 C 728.457031 190.683594 727.019531 187.542969 724.949219 182.867188 C 724.449219 181.730469 723.667969 179.972656 723.214844 178.957031 C 722.761719 177.941406 722.085938 176.375 721.714844 175.480469 C 721.347656 174.585938 720.863281 173.851562 720.640625 173.851562 C 720.421875 173.851562 719.308594 175.953125 718.167969 178.519531 C 717.027344 181.089844 715.65625 184.167969 715.121094 185.363281 C 713.511719 188.960938 712.492188 191.28125 711.007812 194.703125 C 710.230469 196.496094 709.15625 198.941406 708.617188 200.132812 C 708.082031 201.328125 707.222656 203.234375 706.714844 204.367188 C 706.203125 205.503906 705.613281 206.871094 705.402344 207.410156 C 705.191406 207.949219 704.320312 209.902344 703.46875 211.753906 C 702.617188 213.609375 702.007812 215.121094 702.113281 215.121094 C 702.21875 215.121094 706.460938 212.0625 711.542969 208.320312 Z M 787.445312 204.457031 C 789.097656 203.601562 790.4375 201.414062 790.441406 199.570312 C 790.445312 195.664062 786.148438 192.664062 782.925781 194.324219 C 779.890625 195.886719 778.6875 198.726562 779.839844 201.609375 C 781.078125 204.699219 784.5 205.984375 787.445312 204.457031 Z M 803.46875 230.089844 C 800.789062 228.84375 799.332031 227.628906 798.417969 225.875 L 797.800781 224.679688 L 780.285156 224.679688 C 766.777344 224.679688 762.679688 224.554688 762.367188 224.136719 C 762.144531 223.839844 761.597656 222.714844 761.152344 221.640625 C 760.707031 220.5625 759.878906 218.628906 759.3125 217.339844 C 758.742188 216.050781 758.382812 214.734375 758.503906 214.410156 C 758.691406 213.925781 762.214844 213.820312 778.234375 213.820312 L 797.734375 213.820312 L 798.601562 212.351562 C 800.183594 209.667969 804.59375 207.3125 808.050781 207.304688 C 812.695312 207.296875 817.34375 210.660156 819.03125 215.246094 C 820.195312 218.410156 820.195312 220.097656 819.035156 223.199219 C 816.582031 229.769531 809.515625 232.894531 803.46875 230.089844 Z M 811.894531 223.21875 C 813.246094 221.945312 813.445312 221.488281 813.445312 219.71875 C 813.445312 216.023438 811.417969 213.820312 808.019531 213.820312 C 804.796875 213.820312 802.59375 216.023438 802.59375 219.257812 C 802.59375 222.59375 804.710938 224.675781 808.097656 224.679688 C 810.054688 224.679688 810.546875 224.492188 811.894531 223.21875 Z M 638.230469 225.507812 C 635.902344 224.953125 632.410156 221.851562 631.125 219.191406 C 629.054688 214.90625 630.101562 209.214844 633.589844 205.816406 C 636.226562 203.25 638.015625 202.523438 641.664062 202.535156 C 646.148438 202.546875 648.019531 203.507812 651.664062 207.671875 L 652.863281 209.039062 L 669.351562 209.039062 C 686.140625 209.039062 686.785156 209.101562 685.476562 210.582031 C 685.277344 210.808594 684.855469 211.679688 684.542969 212.515625 C 684.230469 213.351562 683.425781 215.257812 682.753906 216.75 L 681.53125 219.46875 L 652.558594 219.46875 L 650.722656 221.648438 C 649.710938 222.847656 648.074219 224.242188 647.085938 224.746094 C 645.007812 225.808594 640.949219 226.15625 638.230469 225.507812 Z M 644.214844 219.230469 C 645.992188 218.308594 647.210938 216.164062 647.210938 213.941406 C 647.214844 212.515625 646.917969 211.777344 645.878906 210.589844 C 642.875 207.164062 637.660156 208.445312 636.316406 212.9375 C 635.902344 214.316406 635.964844 214.796875 636.769531 216.367188 C 638.371094 219.511719 641.414062 220.679688 644.214844 219.230469 Z M 622.699219 191.117188 C 620.367188 190.5 616.339844 186.457031 615.621094 184.011719 C 613.179688 175.699219 618.417969 168.085938 626.597656 168.058594 C 630.609375 168.046875 633.417969 169.574219 636.6875 173.539062 L 637.660156 174.71875 L 669.347656 174.71875 C 686.789062 174.71875 701.03125 174.886719 701.03125 175.09375 C 701.03125 175.433594 699.804688 178.308594 697.53125 183.300781 L 696.6875 185.144531 L 637.644531 185.144531 L 635.160156 187.679688 C 631.558594 191.351562 627.65625 192.425781 622.699219 191.117188 Z M 629.808594 184.308594 C 631.628906 183.011719 632.539062 180.472656 631.917969 178.4375 C 630.6875 174.425781 626.167969 172.972656 623.152344 175.625 C 617.753906 180.367188 623.964844 188.472656 629.808594 184.308594 Z M 809.867188 191.027344 C 807.65625 190.183594 805.398438 188.394531 804.304688 186.621094 L 803.394531 185.144531 L 774.402344 185.144531 C 750.90625 185.144531 745.320312 185.039062 744.933594 184.574219 C 744.378906 183.902344 740.964844 175.800781 740.964844 175.15625 C 740.964844 174.867188 751.460938 174.71875 771.914062 174.71875 L 802.863281 174.71875 L 804.871094 172.390625 C 808.246094 168.480469 812.589844 167.1875 817.570312 168.613281 C 821.925781 169.863281 825.597656 175.070312 825.597656 179.996094 C 825.597656 183.960938 822.496094 188.808594 818.820312 190.585938 C 816.664062 191.632812 812.046875 191.859375 809.867188 191.027344 Z M 816.808594 184.464844 C 818.113281 183.609375 819.519531 181.308594 819.519531 180.027344 C 819.527344 176.886719 816.835938 174.289062 813.570312 174.285156 C 812.0625 174.285156 811.476562 174.546875 810.246094 175.78125 C 807.746094 178.28125 807.65625 181.457031 810.011719 183.816406 C 811.882812 185.6875 814.554688 185.941406 816.808594 184.464844 Z M 816.808594 184.464844 " fill-opacity="1" fill-rule="nonzero"/><path fill="#013494" d="M 854.171875 299.148438 C 854.019531 298.75 853.90625 290.09375 853.921875 279.910156 L 853.949219 261.394531 L 846.535156 261.277344 L 839.125 261.15625 L 839.25 256.933594 L 839.371094 252.707031 L 878.867188 252.707031 L 878.867188 260.960938 L 871.386719 261.078125 L 863.902344 261.199219 L 863.789062 280.414062 L 863.679688 299.625 L 859.0625 299.75 C 855.085938 299.855469 854.410156 299.773438 854.171875 299.148438 Z M 854.171875 299.148438 " fill-opacity="1" fill-rule="nonzero"/><path fill="#1c75bc" d="M 1067.160156 97.636719 L 368.484375 97.636719 C 352.175781 97.636719 338.90625 110.910156 338.90625 127.234375 L 338.90625 328.4375 C 338.90625 328.695312 338.90625 328.964844 338.917969 329.222656 C 339.335938 345.183594 352.445312 358.035156 368.484375 358.035156 L 1067.160156 358.035156 C 1083.46875 358.035156 1096.738281 344.761719 1096.738281 328.4375 L 1096.738281 127.234375 C 1096.746094 110.910156 1083.480469 97.636719 1067.160156 97.636719 Z M 1095.953125 328.449219 C 1095.953125 344.332031 1083.039062 357.25 1067.171875 357.25 L 368.484375 357.25 C 352.875 357.25 340.128906 344.761719 339.710938 329.230469 C 339.699219 328.972656 339.699219 328.707031 339.699219 328.449219 L 339.699219 127.234375 C 339.699219 111.347656 352.617188 98.429688 368.484375 98.429688 L 1067.160156 98.429688 C 1083.03125 98.429688 1095.945312 111.347656 1095.945312 127.234375 L 1095.945312 328.449219 Z M 1095.953125 328.449219 " fill-opacity="1" fill-rule="nonzero"/><path fill="#1c75bc" d="M 604.417969 357.25 C 603.988281 341.289062 590.890625 328.4375 574.847656 328.4375 L 338.90625 328.4375 L 338.90625 328.449219 C 338.90625 328.707031 338.90625 328.972656 338.917969 329.230469 L 574.847656 329.230469 C 590.449219 329.230469 603.191406 341.730469 603.625 357.25 C 603.632812 357.507812 603.632812 357.777344 603.632812 358.042969 L 604.425781 358.042969 C 604.425781 357.785156 604.425781 357.507812 604.417969 357.25 Z M 604.417969 357.25 " fill-opacity="1" fill-rule="nonzero"/><g clip-path="url(#c1de278894)"><path fill="#1c75bc" d="M 368.484375 353.679688 L 492.089844 353.679688 L 492.089844 361.621094 L 368.484375 361.621094 C 350.207031 361.621094 335.332031 346.734375 335.332031 328.4375 L 343.265625 328.4375 C 343.277344 342.359375 354.585938 353.679688 368.484375 353.679688 Z M 368.484375 353.679688 " fill-opacity="1" fill-rule="nonzero"/></g><g clip-path="url(#ba0dbb088c)"><path fill="#1c75bc" d="M 1100.3125 328.4375 C 1100.3125 346.734375 1085.4375 361.621094 1067.160156 361.621094 L 1014.878906 361.621094 L 1014.878906 353.679688 L 1067.160156 353.679688 C 1081.070312 353.679688 1092.378906 342.359375 1092.378906 328.4375 Z M 1100.3125 328.4375 " fill-opacity="1" fill-rule="nonzero"/></g><path fill="#1c75bc" d="M 1067.160156 102 L 943.554688 102 L 943.554688 94.058594 L 1067.160156 94.058594 C 1085.4375 94.058594 1100.3125 108.945312 1100.3125 127.242188 L 1092.378906 127.242188 C 1092.378906 113.320312 1081.070312 102 1067.160156 102 Z M 1067.160156 102 " fill-opacity="1" fill-rule="nonzero"/><path fill="#1c75bc" d="M 335.332031 127.242188 C 335.332031 108.945312 350.207031 94.058594 368.484375 94.058594 L 420.765625 94.058594 L 420.765625 102 L 368.484375 102 C 354.574219 102 343.265625 113.320312 343.265625 127.242188 Z M 335.332031 127.242188 " fill-opacity="1" fill-rule="nonzero"/><path fill="#1c75bc" d="M 565.125 94.449219 L 719.046875 94.449219 L 719.046875 102.390625 L 565.125 102.390625 Z M 565.125 94.449219 " fill-opacity="1" fill-rule="nonzero"/><path fill="#1c75bc" d="M 364.527344 133.84375 L 518.445312 133.84375 L 518.445312 141.789062 L 364.527344 141.789062 Z M 364.527344 133.84375 " fill-opacity="1" fill-rule="nonzero"/><path fill="#1c75bc" d="M 814.988281 133.84375 L 881.015625 133.84375 L 881.015625 141.789062 L 814.988281 141.789062 Z M 814.988281 133.84375 " fill-opacity="1" fill-rule="nonzero"/><g clip-path="url(#b48a0d140b)"><path fill="#1c75bc" d="M 769.835938 353.277344 L 835.863281 353.277344 L 835.863281 361.222656 L 769.835938 361.222656 Z M 769.835938 353.277344 " fill-opacity="1" fill-rule="nonzero"/></g><g clip-path="url(#7660d3b6c4)"><path fill="#1c75bc" d="M 334.941406 243.898438 L 342.875 243.898438 L 342.875 291.886719 L 334.941406 291.886719 Z M 334.941406 243.898438 " fill-opacity="1" fill-rule="nonzero"/></g><g clip-path="url(#0a4f1650d4)"><path fill="#1c75bc" d="M 334.941406 205.285156 L 342.875 205.285156 L 342.875 222.914062 L 334.941406 222.914062 Z M 334.941406 205.285156 " fill-opacity="1" fill-rule="nonzero"/></g><path fill="#1c75bc" d="M 1092.378906 238.585938 L 1100.3125 238.585938 L 1100.3125 306.734375 L 1092.378906 306.734375 Z M 1092.378906 238.585938 " fill-opacity="1" fill-rule="nonzero"/><path fill="#1c75bc" d="M 1102.425781 171.652344 C 1102.425781 172.078125 1102.382812 172.5 1102.300781 172.917969 C 1102.21875 173.335938 1102.09375 173.742188 1101.933594 174.132812 C 1101.769531 174.527344 1101.570312 174.902344 1101.332031 175.257812 C 1101.097656 175.609375 1100.828125 175.9375 1100.527344 176.238281 C 1100.226562 176.539062 1099.898438 176.808594 1099.546875 177.046875 C 1099.191406 177.28125 1098.816406 177.484375 1098.425781 177.644531 C 1098.03125 177.808594 1097.625 177.933594 1097.210938 178.015625 C 1096.792969 178.097656 1096.371094 178.140625 1095.945312 178.140625 C 1095.519531 178.140625 1095.097656 178.097656 1094.679688 178.015625 C 1094.261719 177.933594 1093.859375 177.808594 1093.464844 177.644531 C 1093.070312 177.484375 1092.699219 177.28125 1092.34375 177.046875 C 1091.988281 176.808594 1091.664062 176.539062 1091.363281 176.238281 C 1091.0625 175.9375 1090.792969 175.609375 1090.554688 175.257812 C 1090.320312 174.902344 1090.121094 174.527344 1089.957031 174.132812 C 1089.792969 173.742188 1089.671875 173.335938 1089.589844 172.917969 C 1089.503906 172.5 1089.464844 172.078125 1089.464844 171.652344 C 1089.464844 171.226562 1089.503906 170.804688 1089.585938 170.386719 C 1089.671875 169.96875 1089.792969 169.5625 1089.957031 169.167969 C 1090.121094 168.777344 1090.320312 168.402344 1090.554688 168.046875 C 1090.792969 167.695312 1091.0625 167.367188 1091.363281 167.066406 C 1091.664062 166.761719 1091.988281 166.496094 1092.34375 166.257812 C 1092.699219 166.019531 1093.070312 165.820312 1093.464844 165.65625 C 1093.859375 165.496094 1094.261719 165.371094 1094.679688 165.289062 C 1095.097656 165.207031 1095.519531 165.164062 1095.945312 165.164062 C 1096.371094 165.164062 1096.792969 165.207031 1097.210938 165.289062 C 1097.625 165.371094 1098.03125 165.496094 1098.425781 165.65625 C 1098.816406 165.820312 1099.191406 166.019531 1099.546875 166.257812 C 1099.898438 166.496094 1100.226562 166.761719 1100.527344 167.066406 C 1100.828125 167.367188 1101.097656 167.695312 1101.332031 168.046875 C 1101.570312 168.402344 1101.769531 168.777344 1101.933594 169.167969 C 1102.09375 169.5625 1102.21875 169.96875 1102.300781 170.386719 C 1102.382812 170.804688 1102.425781 171.226562 1102.425781 171.652344 Z M 1102.425781 171.652344 " fill-opacity="1" fill-rule="nonzero"/><path fill="#1c75bc" d="M 1095.945312 180.675781 C 1090.972656 180.675781 1086.941406 176.628906 1086.941406 171.660156 C 1086.941406 166.6875 1090.984375 162.648438 1095.945312 162.648438 C 1100.914062 162.648438 1104.949219 166.695312 1104.949219 171.660156 C 1104.960938 176.628906 1100.914062 180.675781 1095.945312 180.675781 Z M 1095.945312 163.433594 C 1091.414062 163.433594 1087.734375 167.125 1087.734375 171.652344 C 1087.734375 176.179688 1091.421875 179.871094 1095.945312 179.871094 C 1100.476562 179.871094 1104.15625 176.179688 1104.15625 171.652344 C 1104.15625 167.125 1100.476562 163.433594 1095.945312 163.433594 Z M 1095.945312 163.433594 " fill-opacity="1" fill-rule="nonzero"/><path fill="#1c75bc" d="M 1032.996094 137.816406 C 1032.996094 138.242188 1032.953125 138.664062 1032.871094 139.082031 C 1032.785156 139.5 1032.664062 139.90625 1032.5 140.300781 C 1032.339844 140.691406 1032.136719 141.066406 1031.902344 141.421875 C 1031.664062 141.773438 1031.398438 142.101562 1031.097656 142.402344 C 1030.796875 142.707031 1030.46875 142.972656 1030.113281 143.210938 C 1029.761719 143.449219 1029.386719 143.648438 1028.992188 143.808594 C 1028.601562 143.972656 1028.195312 144.097656 1027.777344 144.179688 C 1027.359375 144.261719 1026.9375 144.304688 1026.511719 144.304688 C 1026.085938 144.304688 1025.667969 144.261719 1025.25 144.179688 C 1024.832031 144.097656 1024.425781 143.972656 1024.03125 143.808594 C 1023.640625 143.648438 1023.265625 143.449219 1022.914062 143.210938 C 1022.558594 142.972656 1022.230469 142.707031 1021.929688 142.402344 C 1021.628906 142.101562 1021.359375 141.773438 1021.125 141.421875 C 1020.886719 141.066406 1020.6875 140.691406 1020.523438 140.300781 C 1020.363281 139.90625 1020.238281 139.5 1020.15625 139.082031 C 1020.074219 138.664062 1020.03125 138.242188 1020.03125 137.816406 C 1020.03125 137.390625 1020.074219 136.96875 1020.15625 136.550781 C 1020.238281 136.132812 1020.363281 135.726562 1020.523438 135.332031 C 1020.6875 134.941406 1020.886719 134.566406 1021.125 134.210938 C 1021.359375 133.859375 1021.628906 133.53125 1021.929688 133.230469 C 1022.230469 132.929688 1022.558594 132.660156 1022.914062 132.421875 C 1023.265625 132.183594 1023.640625 131.984375 1024.03125 131.824219 C 1024.425781 131.660156 1024.832031 131.535156 1025.25 131.453125 C 1025.667969 131.371094 1026.085938 131.328125 1026.511719 131.328125 C 1026.9375 131.328125 1027.359375 131.371094 1027.777344 131.453125 C 1028.195312 131.535156 1028.601562 131.660156 1028.992188 131.824219 C 1029.386719 131.984375 1029.761719 132.183594 1030.113281 132.421875 C 1030.46875 132.660156 1030.796875 132.929688 1031.097656 133.230469 C 1031.398438 133.53125 1031.664062 133.859375 1031.902344 134.210938 C 1032.136719 134.566406 1032.339844 134.941406 1032.5 135.332031 C 1032.664062 135.726562 1032.785156 136.132812 1032.871094 136.550781 C 1032.953125 136.96875 1032.996094 137.390625 1032.996094 137.816406 Z M 1032.996094 137.816406 " fill-opacity="1" fill-rule="nonzero"/><path fill="#1c75bc" d="M 1026.511719 146.832031 C 1021.542969 146.832031 1017.507812 142.78125 1017.507812 137.816406 C 1017.507812 132.851562 1021.550781 128.800781 1026.511719 128.800781 C 1031.476562 128.800781 1035.519531 132.851562 1035.519531 137.816406 C 1035.519531 142.78125 1031.476562 146.832031 1026.511719 146.832031 Z M 1026.511719 129.597656 C 1021.980469 129.597656 1018.300781 133.289062 1018.300781 137.816406 C 1018.300781 142.34375 1021.992188 146.035156 1026.511719 146.035156 C 1031.035156 146.035156 1034.726562 142.34375 1034.726562 137.816406 C 1034.726562 133.289062 1031.042969 129.597656 1026.511719 129.597656 Z M 1026.511719 129.597656 " fill-opacity="1" fill-rule="nonzero"/><path fill="#1c75bc" d="M 794.710938 97.628906 C 794.710938 98.054688 794.667969 98.476562 794.585938 98.894531 C 794.503906 99.3125 794.378906 99.714844 794.21875 100.109375 C 794.054688 100.503906 793.855469 100.878906 793.617188 101.230469 C 793.382812 101.585938 793.113281 101.914062 792.8125 102.214844 C 792.511719 102.515625 792.183594 102.785156 791.832031 103.023438 C 791.476562 103.257812 791.101562 103.457031 790.710938 103.621094 C 790.316406 103.785156 789.910156 103.90625 789.492188 103.988281 C 789.078125 104.074219 788.65625 104.113281 788.230469 104.113281 C 787.804688 104.113281 787.382812 104.074219 786.964844 103.988281 C 786.546875 103.90625 786.140625 103.785156 785.75 103.621094 C 785.355469 103.457031 784.984375 103.257812 784.628906 103.023438 C 784.273438 102.785156 783.949219 102.515625 783.644531 102.214844 C 783.34375 101.914062 783.078125 101.585938 782.839844 101.230469 C 782.605469 100.878906 782.402344 100.503906 782.242188 100.109375 C 782.078125 99.714844 781.957031 99.3125 781.871094 98.894531 C 781.789062 98.476562 781.75 98.054688 781.75 97.628906 C 781.75 97.203125 781.789062 96.78125 781.871094 96.363281 C 781.957031 95.945312 782.078125 95.539062 782.242188 95.144531 C 782.402344 94.75 782.605469 94.378906 782.839844 94.023438 C 783.078125 93.667969 783.34375 93.339844 783.644531 93.039062 C 783.949219 92.738281 784.273438 92.46875 784.628906 92.234375 C 784.984375 91.996094 785.355469 91.796875 785.75 91.632812 C 786.140625 91.46875 786.546875 91.347656 786.964844 91.265625 C 787.382812 91.179688 787.804688 91.140625 788.230469 91.140625 C 788.65625 91.140625 789.078125 91.179688 789.492188 91.265625 C 789.910156 91.347656 790.316406 91.46875 790.710938 91.632812 C 791.101562 91.796875 791.476562 91.996094 791.832031 92.234375 C 792.183594 92.46875 792.511719 92.738281 792.8125 93.039062 C 793.113281 93.339844 793.382812 93.667969 793.617188 94.023438 C 793.855469 94.378906 794.054688 94.75 794.21875 95.144531 C 794.378906 95.539062 794.503906 95.945312 794.585938 96.363281 C 794.667969 96.78125 794.710938 97.203125 794.710938 97.628906 Z M 794.710938 97.628906 " fill-opacity="1" fill-rule="nonzero"/><g clip-path="url(#a46cb5ac89)"><path fill="#1c75bc" d="M 788.230469 106.652344 C 783.257812 106.652344 779.222656 102.601562 779.222656 97.636719 C 779.222656 92.671875 783.269531 88.613281 788.230469 88.613281 C 793.199219 88.613281 797.234375 92.660156 797.234375 97.628906 C 797.234375 102.59375 793.199219 106.652344 788.230469 106.652344 Z M 788.230469 89.40625 C 783.699219 89.40625 780.019531 93.101562 780.019531 97.628906 C 780.019531 102.152344 783.707031 105.847656 788.230469 105.847656 C 792.761719 105.847656 796.441406 102.152344 796.441406 97.628906 C 796.441406 93.101562 792.761719 89.40625 788.230469 89.40625 Z M 788.230469 89.40625 " fill-opacity="1" fill-rule="nonzero"/></g><path fill="#1c75bc" d="M 345.609375 302.476562 L 352.5 302.476562 L 352.5 324.792969 L 345.609375 324.792969 Z M 345.609375 302.476562 " fill-opacity="1" fill-rule="nonzero"/><path fill="#1c75bc" d="M 353.964844 302.476562 L 360.589844 302.476562 L 360.589844 324.792969 L 353.964844 324.792969 Z M 353.964844 302.476562 " fill-opacity="0.962" fill-rule="nonzero"/><path fill="#1c75bc" d="M 362.320312 302.476562 L 368.675781 302.476562 L 368.675781 324.792969 L 362.320312 324.792969 Z M 362.320312 302.476562 " fill-opacity="0.923" fill-rule="nonzero"/><path fill="#1c75bc" d="M 370.675781 302.476562 L 376.773438 302.476562 L 376.773438 324.792969 L 370.675781 324.792969 Z M 370.675781 302.476562 " fill-opacity="0.885" fill-rule="nonzero"/><path fill="#1c75bc" d="M 379.027344 302.476562 L 384.859375 302.476562 L 384.859375 324.792969 L 379.027344 324.792969 Z M 379.027344 302.476562 " fill-opacity="0.846" fill-rule="nonzero"/><path fill="#1c75bc" d="M 387.382812 302.476562 L 392.949219 302.476562 L 392.949219 324.792969 L 387.382812 324.792969 Z M 387.382812 302.476562 " fill-opacity="0.808" fill-rule="nonzero"/><path fill="#1c75bc" d="M 395.738281 302.476562 L 401.035156 302.476562 L 401.035156 324.792969 L 395.738281 324.792969 Z M 395.738281 302.476562 " fill-opacity="0.769" fill-rule="nonzero"/><path fill="#1c75bc" d="M 404.09375 302.476562 L 409.132812 302.476562 L 409.132812 324.792969 L 404.09375 324.792969 Z M 404.09375 302.476562 " fill-opacity="0.731" fill-rule="nonzero"/><path fill="#1c75bc" d="M 412.449219 302.476562 L 417.21875 302.476562 L 417.21875 324.792969 L 412.449219 324.792969 Z M 412.449219 302.476562 " fill-opacity="0.692" fill-rule="nonzero"/><path fill="#1c75bc" d="M 420.804688 302.476562 L 425.308594 302.476562 L 425.308594 324.792969 L 420.804688 324.792969 Z M 420.804688 302.476562 " fill-opacity="0.654" fill-rule="nonzero"/><path fill="#1c75bc" d="M 429.160156 302.476562 L 433.402344 302.476562 L 433.402344 324.792969 L 429.160156 324.792969 Z M 429.160156 302.476562 " fill-opacity="0.615" fill-rule="nonzero"/><path fill="#1c75bc" d="M 437.515625 302.476562 L 441.492188 302.476562 L 441.492188 324.792969 L 437.515625 324.792969 Z M 437.515625 302.476562 " fill-opacity="0.577" fill-rule="nonzero"/><path fill="#1c75bc" d="M 445.871094 302.476562 L 449.578125 302.476562 L 449.578125 324.792969 L 445.871094 324.792969 Z M 445.871094 302.476562 " fill-opacity="0.538" fill-rule="nonzero"/><path fill="#1c75bc" d="M 454.226562 302.476562 L 457.667969 302.476562 L 457.667969 324.792969 L 454.226562 324.792969 Z M 454.226562 302.476562 " fill-opacity="0.5" fill-rule="nonzero"/><path fill="#1c75bc" d="M 615.695312 344.628906 L 1073.949219 344.628906 L 1073.949219 345.421875 L 615.695312 345.421875 Z M 615.695312 344.628906 " fill-opacity="1" fill-rule="nonzero"/><path fill="#1c75bc" d="M 338.90625 137.425781 L 1095.953125 137.425781 L 1095.953125 138.21875 L 338.90625 138.21875 Z M 338.90625 137.425781 " fill-opacity="1" fill-rule="nonzero"/><path fill="#1c75bc" d="M 1289.984375 273.261719 C 1289.933594 273.011719 1289.871094 272.761719 1289.789062 272.519531 C 1289.707031 272.273438 1289.613281 272.035156 1289.503906 271.804688 C 1289.394531 271.570312 1289.269531 271.347656 1289.132812 271.128906 C 1288.996094 270.910156 1288.84375 270.703125 1288.679688 270.503906 C 1288.519531 270.304688 1288.34375 270.117188 1288.15625 269.941406 C 1287.972656 269.761719 1287.773438 269.597656 1287.570312 269.445312 C 1287.363281 269.292969 1287.148438 269.152344 1286.921875 269.023438 C 1286.699219 268.898438 1286.46875 268.785156 1286.230469 268.6875 C 1285.992188 268.589844 1285.75 268.503906 1285.503906 268.4375 C 1285.253906 268.367188 1285.003906 268.3125 1284.75 268.277344 C 1284.496094 268.238281 1284.242188 268.214844 1283.984375 268.210938 C 1283.726562 268.203125 1283.46875 268.214844 1283.214844 268.238281 C 1282.957031 268.261719 1282.703125 268.304688 1282.453125 268.359375 C 1282.203125 268.417969 1281.957031 268.488281 1281.714844 268.574219 C 1281.472656 268.660156 1281.234375 268.761719 1281.007812 268.878906 C 1280.777344 268.992188 1280.554688 269.121094 1280.339844 269.265625 C 1280.128906 269.410156 1279.921875 269.5625 1279.730469 269.730469 C 1279.535156 269.898438 1279.351562 270.078125 1279.175781 270.269531 C 1279.003906 270.460938 1278.84375 270.660156 1278.695312 270.871094 C 1278.546875 271.082031 1278.414062 271.300781 1278.292969 271.527344 C 1278.171875 271.753906 1278.0625 271.984375 1277.972656 272.226562 C 1277.878906 272.464844 1277.800781 272.710938 1277.738281 272.960938 C 1277.675781 273.210938 1277.628906 273.460938 1277.597656 273.71875 C 1277.566406 273.972656 1277.550781 274.226562 1277.550781 274.484375 C 1277.550781 274.742188 1277.566406 275 1277.597656 275.253906 C 1277.628906 275.507812 1277.675781 275.761719 1277.738281 276.011719 C 1277.800781 276.261719 1277.878906 276.503906 1277.972656 276.746094 C 1278.0625 276.984375 1278.171875 277.21875 1278.292969 277.445312 C 1278.414062 277.671875 1278.546875 277.890625 1278.695312 278.101562 C 1278.84375 278.308594 1279.003906 278.511719 1279.175781 278.699219 C 1279.351562 278.890625 1279.535156 279.070312 1279.730469 279.238281 C 1279.921875 279.40625 1280.128906 279.5625 1280.339844 279.703125 C 1280.554688 279.847656 1280.777344 279.976562 1281.007812 280.09375 C 1281.234375 280.207031 1281.472656 280.308594 1281.714844 280.394531 C 1281.957031 280.480469 1282.203125 280.554688 1282.453125 280.609375 C 1282.703125 280.667969 1282.957031 280.707031 1283.214844 280.730469 C 1283.46875 280.757812 1283.726562 280.765625 1283.984375 280.761719 C 1284.242188 280.753906 1284.496094 280.730469 1284.75 280.695312 C 1285.003906 280.65625 1285.253906 280.601562 1285.503906 280.535156 C 1285.75 280.464844 1285.992188 280.382812 1286.230469 280.285156 C 1286.46875 280.1875 1286.699219 280.074219 1286.921875 279.945312 C 1287.148438 279.820312 1287.363281 279.679688 1287.570312 279.527344 C 1287.773438 279.375 1287.972656 279.207031 1288.15625 279.03125 C 1288.34375 278.851562 1288.519531 278.664062 1288.679688 278.464844 C 1288.84375 278.265625 1288.996094 278.058594 1289.132812 277.84375 C 1289.269531 277.625 1289.394531 277.398438 1289.503906 277.167969 C 1289.613281 276.933594 1289.707031 276.695312 1289.789062 276.453125 C 1289.871094 276.207031 1289.933594 275.960938 1289.984375 275.707031 L 1372.511719 275.707031 L 1372.511719 261.15625 L 1350.050781 261.15625 C 1350.003906 260.90625 1349.9375 260.65625 1349.855469 260.414062 C 1349.777344 260.167969 1349.679688 259.929688 1349.570312 259.699219 C 1349.460938 259.464844 1349.335938 259.238281 1349.199219 259.023438 C 1349.0625 258.804688 1348.910156 258.597656 1348.746094 258.398438 C 1348.585938 258.199219 1348.410156 258.011719 1348.222656 257.835938 C 1348.039062 257.65625 1347.839844 257.492188 1347.632812 257.339844 C 1347.429688 257.183594 1347.210938 257.046875 1346.988281 256.917969 C 1346.765625 256.792969 1346.535156 256.679688 1346.296875 256.582031 C 1346.058594 256.480469 1345.816406 256.398438 1345.570312 256.328125 C 1345.320312 256.261719 1345.070312 256.207031 1344.816406 256.171875 C 1344.5625 256.132812 1344.304688 256.109375 1344.046875 256.105469 C 1343.789062 256.097656 1343.535156 256.105469 1343.277344 256.132812 C 1343.023438 256.15625 1342.769531 256.199219 1342.515625 256.253906 C 1342.265625 256.3125 1342.019531 256.382812 1341.777344 256.46875 C 1341.535156 256.554688 1341.300781 256.65625 1341.070312 256.773438 C 1340.839844 256.886719 1340.617188 257.015625 1340.40625 257.160156 C 1340.191406 257.304688 1339.984375 257.457031 1339.792969 257.625 C 1339.597656 257.792969 1339.414062 257.972656 1339.238281 258.164062 C 1339.066406 258.355469 1338.90625 258.554688 1338.757812 258.765625 C 1338.609375 258.976562 1338.476562 259.195312 1338.355469 259.421875 C 1338.234375 259.648438 1338.125 259.882812 1338.035156 260.121094 C 1337.941406 260.363281 1337.863281 260.605469 1337.800781 260.855469 C 1337.738281 261.105469 1337.691406 261.359375 1337.660156 261.613281 C 1337.628906 261.867188 1337.613281 262.125 1337.613281 262.382812 C 1337.613281 262.640625 1337.628906 262.894531 1337.660156 263.152344 C 1337.691406 263.40625 1337.738281 263.660156 1337.800781 263.90625 C 1337.863281 264.15625 1337.941406 264.402344 1338.035156 264.640625 C 1338.125 264.882812 1338.234375 265.117188 1338.355469 265.34375 C 1338.476562 265.570312 1338.609375 265.789062 1338.757812 265.996094 C 1338.90625 266.207031 1339.066406 266.410156 1339.238281 266.597656 C 1339.414062 266.789062 1339.597656 266.96875 1339.792969 267.136719 C 1339.984375 267.304688 1340.191406 267.460938 1340.40625 267.601562 C 1340.617188 267.746094 1340.839844 267.875 1341.070312 267.992188 C 1341.300781 268.105469 1341.535156 268.207031 1341.777344 268.292969 C 1342.019531 268.382812 1342.265625 268.453125 1342.519531 268.507812 C 1342.769531 268.566406 1343.023438 268.605469 1343.277344 268.632812 C 1343.535156 268.65625 1343.789062 268.667969 1344.046875 268.660156 C 1344.304688 268.652344 1344.5625 268.632812 1344.816406 268.59375 C 1345.070312 268.554688 1345.320312 268.503906 1345.570312 268.433594 C 1345.816406 268.367188 1346.058594 268.28125 1346.296875 268.183594 C 1346.535156 268.085938 1346.765625 267.972656 1346.988281 267.84375 C 1347.210938 267.71875 1347.429688 267.578125 1347.632812 267.425781 C 1347.839844 267.273438 1348.039062 267.105469 1348.222656 266.929688 C 1348.410156 266.753906 1348.585938 266.5625 1348.746094 266.363281 C 1348.910156 266.167969 1349.0625 265.957031 1349.199219 265.742188 C 1349.335938 265.523438 1349.460938 265.296875 1349.570312 265.066406 C 1349.679688 264.832031 1349.777344 264.59375 1349.855469 264.351562 C 1349.9375 264.105469 1350.003906 263.859375 1350.050781 263.605469 L 1370.054688 263.605469 L 1370.054688 273.261719 Z M 1289.984375 273.261719 " fill-opacity="1" fill-rule="nonzero"/><g clip-path="url(#94a87c8b79)"><path fill="#1c75bc" d="M 1459.160156 168.871094 L 1459.160156 170.652344 L 1443.59375 170.652344 L 1443.59375 174.757812 L 1406.09375 174.757812 L 1406.09375 170.652344 L 1385.714844 170.652344 L 1385.714844 181.308594 L 1406.09375 181.308594 L 1406.09375 177.203125 L 1443.605469 177.203125 L 1443.605469 181.308594 L 1459.171875 181.308594 L 1459.171875 193.0625 L 1444.425781 193.0625 L 1444.425781 197.164062 L 1362.699219 197.164062 L 1258.09375 92.558594 L 1190.6875 92.558594 C 1190.636719 92.304688 1190.574219 92.058594 1190.492188 91.8125 C 1190.414062 91.570312 1190.316406 91.332031 1190.207031 91.097656 C 1190.097656 90.867188 1189.972656 90.640625 1189.835938 90.425781 C 1189.699219 90.207031 1189.546875 90 1189.386719 89.800781 C 1189.222656 89.601562 1189.046875 89.414062 1188.859375 89.238281 C 1188.675781 89.058594 1188.480469 88.894531 1188.273438 88.742188 C 1188.066406 88.585938 1187.851562 88.449219 1187.628906 88.320312 C 1187.402344 88.195312 1187.171875 88.082031 1186.933594 87.984375 C 1186.699219 87.882812 1186.453125 87.800781 1186.207031 87.730469 C 1185.960938 87.664062 1185.707031 87.609375 1185.453125 87.574219 C 1185.199219 87.535156 1184.945312 87.511719 1184.6875 87.507812 C 1184.429688 87.5 1184.171875 87.507812 1183.917969 87.535156 C 1183.660156 87.558594 1183.410156 87.601562 1183.15625 87.65625 C 1182.90625 87.714844 1182.660156 87.785156 1182.417969 87.871094 C 1182.175781 87.957031 1181.941406 88.058594 1181.710938 88.175781 C 1181.480469 88.289062 1181.257812 88.417969 1181.046875 88.5625 C 1180.832031 88.703125 1180.628906 88.859375 1180.433594 89.027344 C 1180.238281 89.195312 1180.054688 89.375 1179.882812 89.566406 C 1179.707031 89.757812 1179.546875 89.957031 1179.398438 90.167969 C 1179.253906 90.375 1179.117188 90.59375 1178.996094 90.820312 C 1178.875 91.050781 1178.769531 91.28125 1178.675781 91.523438 C 1178.582031 91.761719 1178.503906 92.007812 1178.441406 92.257812 C 1178.378906 92.503906 1178.332031 92.757812 1178.300781 93.011719 C 1178.269531 93.269531 1178.253906 93.523438 1178.253906 93.78125 C 1178.253906 94.039062 1178.269531 94.292969 1178.300781 94.550781 C 1178.332031 94.804688 1178.378906 95.058594 1178.441406 95.308594 C 1178.503906 95.554688 1178.582031 95.800781 1178.675781 96.039062 C 1178.769531 96.28125 1178.875 96.515625 1178.996094 96.742188 C 1179.117188 96.96875 1179.253906 97.1875 1179.398438 97.394531 C 1179.546875 97.605469 1179.707031 97.808594 1179.882812 97.996094 C 1180.054688 98.1875 1180.238281 98.367188 1180.433594 98.535156 C 1180.628906 98.703125 1180.832031 98.859375 1181.046875 99 C 1181.257812 99.144531 1181.480469 99.273438 1181.710938 99.386719 C 1181.941406 99.503906 1182.175781 99.605469 1182.417969 99.691406 C 1182.660156 99.777344 1182.90625 99.851562 1183.15625 99.90625 C 1183.410156 99.960938 1183.660156 100.003906 1183.917969 100.027344 C 1184.171875 100.054688 1184.429688 100.0625 1184.6875 100.054688 C 1184.945312 100.050781 1185.199219 100.027344 1185.453125 99.992188 C 1185.707031 99.953125 1185.960938 99.898438 1186.207031 99.832031 C 1186.453125 99.761719 1186.699219 99.679688 1186.933594 99.582031 C 1187.171875 99.480469 1187.402344 99.367188 1187.628906 99.242188 C 1187.851562 99.117188 1188.066406 98.976562 1188.273438 98.824219 C 1188.480469 98.667969 1188.675781 98.503906 1188.859375 98.328125 C 1189.046875 98.148438 1189.222656 97.960938 1189.386719 97.761719 C 1189.546875 97.5625 1189.699219 97.355469 1189.835938 97.136719 C 1189.972656 96.921875 1190.097656 96.695312 1190.207031 96.464844 C 1190.316406 96.230469 1190.414062 95.992188 1190.492188 95.75 C 1190.574219 95.503906 1190.636719 95.257812 1190.6875 95.003906 L 1257.082031 95.003906 L 1361.328125 199.253906 L 1361.6875 199.613281 L 1444.414062 199.613281 L 1444.414062 203.714844 L 1459.160156 203.714844 L 1459.160156 215.46875 L 1443.59375 215.46875 L 1443.59375 219.570312 L 1356.8125 219.570312 L 1265.527344 128.292969 C 1265.664062 128.078125 1265.792969 127.855469 1265.90625 127.625 C 1266.019531 127.390625 1266.117188 127.15625 1266.199219 126.910156 C 1266.285156 126.667969 1266.351562 126.417969 1266.40625 126.167969 C 1266.460938 125.914062 1266.496094 125.660156 1266.519531 125.40625 C 1266.539062 125.148438 1266.546875 124.890625 1266.539062 124.632812 C 1266.527344 124.378906 1266.503906 124.121094 1266.460938 123.867188 C 1266.421875 123.613281 1266.363281 123.363281 1266.292969 123.113281 C 1266.222656 122.867188 1266.132812 122.625 1266.03125 122.390625 C 1265.929688 122.152344 1265.816406 121.921875 1265.6875 121.699219 C 1265.554688 121.476562 1265.414062 121.265625 1265.257812 121.058594 C 1265.101562 120.855469 1264.933594 120.660156 1264.753906 120.476562 C 1264.574219 120.292969 1264.382812 120.121094 1264.183594 119.957031 C 1263.980469 119.796875 1263.769531 119.648438 1263.550781 119.515625 C 1263.332031 119.378906 1263.105469 119.257812 1262.871094 119.152344 C 1262.636719 119.042969 1262.398438 118.953125 1262.152344 118.875 C 1261.90625 118.796875 1261.65625 118.734375 1261.40625 118.6875 C 1261.152344 118.640625 1260.894531 118.609375 1260.640625 118.59375 C 1260.382812 118.578125 1260.125 118.578125 1259.867188 118.59375 C 1259.613281 118.609375 1259.355469 118.640625 1259.101562 118.6875 C 1258.851562 118.734375 1258.601562 118.796875 1258.355469 118.875 C 1258.109375 118.953125 1257.871094 119.046875 1257.636719 119.152344 C 1257.402344 119.261719 1257.175781 119.382812 1256.957031 119.519531 C 1256.738281 119.652344 1256.527344 119.800781 1256.328125 119.960938 C 1256.125 120.121094 1255.933594 120.296875 1255.753906 120.480469 C 1255.574219 120.664062 1255.40625 120.859375 1255.253906 121.0625 C 1255.097656 121.269531 1254.953125 121.484375 1254.824219 121.707031 C 1254.695312 121.929688 1254.578125 122.15625 1254.476562 122.394531 C 1254.375 122.632812 1254.289062 122.871094 1254.21875 123.121094 C 1254.148438 123.367188 1254.089844 123.617188 1254.050781 123.871094 C 1254.007812 124.125 1253.984375 124.382812 1253.976562 124.640625 C 1253.964844 124.898438 1253.972656 125.152344 1253.996094 125.410156 C 1254.015625 125.667969 1254.054688 125.921875 1254.109375 126.171875 C 1254.160156 126.425781 1254.230469 126.671875 1254.316406 126.917969 C 1254.398438 127.160156 1254.496094 127.398438 1254.609375 127.628906 C 1254.722656 127.859375 1254.851562 128.082031 1254.992188 128.296875 C 1255.132812 128.515625 1255.285156 128.71875 1255.449219 128.917969 C 1255.617188 129.113281 1255.792969 129.300781 1255.980469 129.476562 C 1256.171875 129.652344 1256.371094 129.8125 1256.578125 129.964844 C 1256.789062 130.113281 1257.003906 130.253906 1257.230469 130.375 C 1257.457031 130.5 1257.6875 130.609375 1257.925781 130.707031 C 1258.167969 130.800781 1258.410156 130.882812 1258.660156 130.945312 C 1258.910156 131.011719 1259.160156 131.0625 1259.417969 131.097656 C 1259.671875 131.128906 1259.925781 131.148438 1260.183594 131.152344 C 1260.441406 131.15625 1260.699219 131.140625 1260.957031 131.113281 C 1261.210938 131.085938 1261.464844 131.039062 1261.714844 130.980469 C 1261.964844 130.921875 1262.210938 130.847656 1262.453125 130.757812 C 1262.695312 130.667969 1262.929688 130.5625 1263.15625 130.445312 C 1263.386719 130.324219 1263.605469 130.191406 1263.816406 130.046875 L 1313.769531 179.996094 L 1289.738281 179.996094 L 1268.894531 159.148438 C 1269.082031 158.96875 1269.257812 158.78125 1269.417969 158.578125 C 1269.582031 158.378906 1269.734375 158.167969 1269.871094 157.949219 C 1270.007812 157.730469 1270.132812 157.5 1270.242188 157.265625 C 1270.351562 157.03125 1270.449219 156.792969 1270.527344 156.546875 C 1270.609375 156.300781 1270.671875 156.046875 1270.722656 155.792969 C 1270.773438 155.539062 1270.804688 155.285156 1270.824219 155.023438 C 1270.839844 154.765625 1270.84375 154.507812 1270.832031 154.25 C 1270.816406 153.992188 1270.785156 153.734375 1270.742188 153.476562 C 1270.695312 153.222656 1270.636719 152.972656 1270.558594 152.722656 C 1270.484375 152.476562 1270.394531 152.234375 1270.285156 151.996094 C 1270.179688 151.761719 1270.0625 151.53125 1269.925781 151.308594 C 1269.792969 151.089844 1269.648438 150.875 1269.488281 150.671875 C 1269.328125 150.46875 1269.15625 150.273438 1268.972656 150.09375 C 1268.785156 149.910156 1268.59375 149.738281 1268.386719 149.582031 C 1268.183594 149.421875 1267.96875 149.277344 1267.746094 149.144531 C 1267.523438 149.011719 1267.292969 148.890625 1267.058594 148.789062 C 1266.820312 148.683594 1266.578125 148.59375 1266.328125 148.519531 C 1266.082031 148.445312 1265.828125 148.386719 1265.574219 148.34375 C 1265.320312 148.296875 1265.0625 148.269531 1264.800781 148.257812 C 1264.542969 148.246094 1264.285156 148.25 1264.027344 148.269531 C 1263.769531 148.289062 1263.511719 148.324219 1263.257812 148.375 C 1263.003906 148.425781 1262.753906 148.492188 1262.507812 148.574219 C 1262.261719 148.65625 1262.023438 148.753906 1261.789062 148.863281 C 1261.554688 148.976562 1261.328125 149.101562 1261.109375 149.238281 C 1260.890625 149.378906 1260.679688 149.53125 1260.480469 149.695312 C 1260.28125 149.859375 1260.09375 150.035156 1259.914062 150.222656 C 1259.734375 150.410156 1259.570312 150.609375 1259.414062 150.816406 C 1259.261719 151.027344 1259.121094 151.242188 1258.992188 151.46875 C 1258.867188 151.695312 1258.753906 151.925781 1258.652344 152.167969 C 1258.554688 152.40625 1258.46875 152.652344 1258.402344 152.902344 C 1258.332031 153.152344 1258.28125 153.402344 1258.242188 153.660156 C 1258.203125 153.917969 1258.183594 154.175781 1258.175781 154.433594 C 1258.167969 154.691406 1258.179688 154.949219 1258.203125 155.207031 C 1258.230469 155.464844 1258.273438 155.722656 1258.328125 155.972656 C 1258.386719 156.226562 1258.457031 156.476562 1258.546875 156.71875 C 1258.632812 156.964844 1258.734375 157.199219 1258.851562 157.433594 C 1258.96875 157.664062 1259.097656 157.886719 1259.242188 158.101562 C 1259.386719 158.316406 1259.542969 158.523438 1259.710938 158.71875 C 1259.882812 158.917969 1260.0625 159.101562 1260.253906 159.277344 C 1260.445312 159.449219 1260.648438 159.609375 1260.859375 159.761719 C 1261.070312 159.910156 1261.292969 160.046875 1261.519531 160.167969 C 1261.75 160.289062 1261.984375 160.398438 1262.226562 160.492188 C 1262.464844 160.585938 1262.714844 160.664062 1262.964844 160.726562 C 1263.214844 160.789062 1263.46875 160.835938 1263.726562 160.867188 C 1263.984375 160.898438 1264.242188 160.917969 1264.5 160.917969 C 1264.761719 160.917969 1265.019531 160.902344 1265.277344 160.871094 C 1265.53125 160.835938 1265.789062 160.789062 1266.039062 160.726562 C 1266.289062 160.664062 1266.535156 160.585938 1266.777344 160.496094 L 1288.722656 182.441406 L 1316.222656 182.441406 L 1355.4375 221.660156 L 1355.796875 222.019531 L 1443.59375 222.019531 L 1443.59375 226.125 L 1459.160156 226.125 L 1459.160156 237.625 L 1443.59375 237.625 L 1443.59375 241.722656 L 1433.085938 241.722656 C 1433.039062 241.46875 1432.972656 241.222656 1432.890625 240.976562 C 1432.8125 240.734375 1432.714844 240.496094 1432.605469 240.261719 C 1432.496094 240.03125 1432.371094 239.804688 1432.234375 239.589844 C 1432.097656 239.371094 1431.945312 239.164062 1431.785156 238.964844 C 1431.621094 238.765625 1431.445312 238.578125 1431.261719 238.398438 C 1431.074219 238.222656 1430.878906 238.058594 1430.671875 237.902344 C 1430.464844 237.75 1430.25 237.609375 1430.027344 237.484375 C 1429.800781 237.355469 1429.570312 237.246094 1429.335938 237.144531 C 1429.097656 237.046875 1428.855469 236.964844 1428.605469 236.894531 C 1428.359375 236.828125 1428.105469 236.773438 1427.851562 236.734375 C 1427.597656 236.699219 1427.34375 236.675781 1427.085938 236.667969 C 1426.828125 236.664062 1426.574219 236.671875 1426.316406 236.699219 C 1426.058594 236.722656 1425.808594 236.765625 1425.554688 236.820312 C 1425.304688 236.875 1425.058594 236.949219 1424.816406 237.035156 C 1424.574219 237.121094 1424.339844 237.222656 1424.109375 237.335938 C 1423.878906 237.453125 1423.65625 237.582031 1423.445312 237.726562 C 1423.230469 237.867188 1423.027344 238.023438 1422.832031 238.191406 C 1422.636719 238.359375 1422.453125 238.539062 1422.28125 238.730469 C 1422.105469 238.917969 1421.945312 239.121094 1421.800781 239.332031 C 1421.652344 239.539062 1421.515625 239.757812 1421.394531 239.984375 C 1421.273438 240.210938 1421.167969 240.445312 1421.074219 240.683594 C 1420.980469 240.925781 1420.90625 241.171875 1420.84375 241.417969 C 1420.78125 241.667969 1420.730469 241.921875 1420.699219 242.175781 C 1420.667969 242.429688 1420.652344 242.6875 1420.652344 242.945312 C 1420.652344 243.203125 1420.667969 243.457031 1420.699219 243.714844 C 1420.730469 243.96875 1420.78125 244.222656 1420.84375 244.46875 C 1420.90625 244.71875 1420.980469 244.964844 1421.074219 245.203125 C 1421.167969 245.445312 1421.273438 245.675781 1421.394531 245.902344 C 1421.515625 246.128906 1421.652344 246.347656 1421.800781 246.558594 C 1421.945312 246.769531 1422.105469 246.96875 1422.28125 247.160156 C 1422.453125 247.351562 1422.636719 247.53125 1422.832031 247.699219 C 1423.027344 247.867188 1423.230469 248.023438 1423.445312 248.164062 C 1423.65625 248.308594 1423.878906 248.4375 1424.109375 248.550781 C 1424.339844 248.667969 1424.574219 248.769531 1424.816406 248.855469 C 1425.058594 248.941406 1425.304688 249.011719 1425.554688 249.070312 C 1425.808594 249.125 1426.0625 249.167969 1426.316406 249.191406 C 1426.574219 249.21875 1426.828125 249.226562 1427.085938 249.21875 C 1427.34375 249.214844 1427.597656 249.191406 1427.851562 249.152344 C 1428.105469 249.117188 1428.359375 249.0625 1428.605469 248.996094 C 1428.855469 248.925781 1429.097656 248.84375 1429.335938 248.742188 C 1429.570312 248.644531 1429.800781 248.53125 1430.027344 248.40625 C 1430.25 248.277344 1430.464844 248.140625 1430.671875 247.984375 C 1430.878906 247.832031 1431.074219 247.667969 1431.261719 247.488281 C 1431.445312 247.3125 1431.621094 247.125 1431.785156 246.925781 C 1431.945312 246.726562 1432.097656 246.519531 1432.234375 246.300781 C 1432.371094 246.085938 1432.496094 245.859375 1432.605469 245.625 C 1432.714844 245.394531 1432.8125 245.15625 1432.890625 244.910156 C 1432.972656 244.667969 1433.039062 244.417969 1433.085938 244.167969 L 1443.59375 244.167969 L 1443.59375 248.273438 L 1459.160156 248.273438 L 1459.160156 259.773438 L 1443.59375 259.773438 L 1443.59375 263.878906 L 1391.164062 263.878906 L 1369.773438 242.5 L 1308.714844 242.5 L 1243.472656 177.261719 L 1243.113281 176.902344 L 1160.066406 176.902344 C 1160.015625 176.339844 1159.925781 175.785156 1159.804688 175.234375 C 1159.679688 174.683594 1159.523438 174.140625 1159.332031 173.609375 C 1159.140625 173.078125 1158.917969 172.5625 1158.660156 172.058594 C 1158.402344 171.558594 1158.113281 171.074219 1157.796875 170.609375 C 1157.476562 170.140625 1157.128906 169.699219 1156.753906 169.277344 C 1156.378906 168.855469 1155.980469 168.460938 1155.554688 168.089844 C 1155.128906 167.71875 1154.679688 167.375 1154.210938 167.0625 C 1153.742188 166.75 1153.253906 166.464844 1152.75 166.214844 C 1152.242188 165.960938 1151.726562 165.742188 1151.191406 165.558594 C 1150.660156 165.371094 1150.117188 165.222656 1149.5625 165.105469 C 1149.011719 164.988281 1148.453125 164.90625 1147.890625 164.859375 C 1147.328125 164.816406 1146.765625 164.804688 1146.203125 164.832031 C 1145.636719 164.855469 1145.078125 164.917969 1144.523438 165.015625 C 1143.964844 165.113281 1143.417969 165.246094 1142.878906 165.410156 C 1142.339844 165.578125 1141.8125 165.777344 1141.300781 166.011719 C 1140.785156 166.246094 1140.289062 166.511719 1139.808594 166.808594 C 1139.328125 167.105469 1138.871094 167.433594 1138.433594 167.789062 C 1137.992188 168.144531 1137.578125 168.527344 1137.191406 168.933594 C 1136.800781 169.34375 1136.4375 169.773438 1136.101562 170.226562 C 1135.765625 170.683594 1135.460938 171.15625 1135.1875 171.648438 C 1134.914062 172.140625 1134.671875 172.648438 1134.460938 173.175781 C 1134.25 173.699219 1134.074219 174.234375 1133.933594 174.78125 C 1133.792969 175.324219 1133.683594 175.878906 1133.613281 176.4375 C 1133.542969 177 1133.503906 177.5625 1133.503906 178.125 C 1133.503906 178.691406 1133.542969 179.25 1133.613281 179.8125 C 1133.683594 180.371094 1133.792969 180.925781 1133.933594 181.472656 C 1134.074219 182.015625 1134.25 182.550781 1134.460938 183.078125 C 1134.671875 183.601562 1134.914062 184.109375 1135.1875 184.601562 C 1135.460938 185.09375 1135.765625 185.570312 1136.101562 186.023438 C 1136.4375 186.476562 1136.800781 186.910156 1137.191406 187.316406 C 1137.578125 187.726562 1137.992188 188.105469 1138.433594 188.460938 C 1138.871094 188.816406 1139.328125 189.144531 1139.808594 189.441406 C 1140.289062 189.738281 1140.785156 190.003906 1141.300781 190.238281 C 1141.8125 190.472656 1142.339844 190.671875 1142.878906 190.839844 C 1143.417969 191.003906 1143.964844 191.136719 1144.523438 191.234375 C 1145.078125 191.332031 1145.636719 191.394531 1146.203125 191.417969 C 1146.765625 191.445312 1147.328125 191.433594 1147.890625 191.390625 C 1148.453125 191.34375 1149.011719 191.261719 1149.5625 191.144531 C 1150.117188 191.03125 1150.660156 190.878906 1151.191406 190.691406 C 1151.726562 190.507812 1152.242188 190.289062 1152.75 190.035156 C 1153.253906 189.785156 1153.742188 189.503906 1154.210938 189.1875 C 1154.679688 188.875 1155.128906 188.53125 1155.554688 188.160156 C 1155.980469 187.792969 1156.378906 187.394531 1156.753906 186.972656 C 1157.128906 186.550781 1157.476562 186.109375 1157.796875 185.644531 C 1158.113281 185.175781 1158.402344 184.691406 1158.660156 184.191406 C 1158.917969 183.6875 1159.140625 183.171875 1159.332031 182.640625 C 1159.523438 182.109375 1159.679688 181.570312 1159.804688 181.015625 C 1159.925781 180.464844 1160.015625 179.910156 1160.066406 179.347656 L 1242.101562 179.347656 L 1291.03125 228.269531 L 1269.460938 228.269531 L 1247.589844 206.398438 C 1247.734375 206.183594 1247.863281 205.960938 1247.976562 205.730469 C 1248.09375 205.5 1248.195312 205.265625 1248.28125 205.023438 C 1248.367188 204.78125 1248.441406 204.535156 1248.496094 204.285156 C 1248.550781 204.03125 1248.59375 203.78125 1248.617188 203.523438 C 1248.644531 203.269531 1248.652344 203.011719 1248.648438 202.753906 C 1248.640625 202.496094 1248.617188 202.242188 1248.582031 201.988281 C 1248.542969 201.730469 1248.492188 201.480469 1248.421875 201.234375 C 1248.351562 200.984375 1248.269531 200.742188 1248.171875 200.503906 C 1248.074219 200.265625 1247.960938 200.035156 1247.832031 199.8125 C 1247.707031 199.589844 1247.566406 199.375 1247.414062 199.167969 C 1247.261719 198.960938 1247.09375 198.761719 1246.917969 198.578125 C 1246.742188 198.390625 1246.554688 198.214844 1246.355469 198.054688 C 1246.15625 197.890625 1245.945312 197.738281 1245.730469 197.601562 C 1245.511719 197.464844 1245.289062 197.339844 1245.054688 197.230469 C 1244.824219 197.121094 1244.585938 197.023438 1244.339844 196.945312 C 1244.09375 196.863281 1243.847656 196.796875 1243.59375 196.746094 C 1243.34375 196.699219 1243.089844 196.664062 1242.832031 196.644531 C 1242.574219 196.625 1242.320312 196.621094 1242.0625 196.632812 C 1241.804688 196.648438 1241.550781 196.675781 1241.296875 196.71875 C 1241.042969 196.761719 1240.792969 196.824219 1240.546875 196.898438 C 1240.300781 196.972656 1240.058594 197.0625 1239.824219 197.164062 C 1239.589844 197.269531 1239.363281 197.386719 1239.140625 197.519531 C 1238.921875 197.652344 1238.707031 197.796875 1238.507812 197.957031 C 1238.304688 198.113281 1238.109375 198.285156 1237.929688 198.464844 C 1237.746094 198.648438 1237.578125 198.839844 1237.417969 199.042969 C 1237.261719 199.246094 1237.113281 199.457031 1236.984375 199.679688 C 1236.851562 199.898438 1236.734375 200.125 1236.628906 200.363281 C 1236.523438 200.597656 1236.433594 200.835938 1236.359375 201.082031 C 1236.285156 201.332031 1236.226562 201.578125 1236.183594 201.832031 C 1236.136719 202.085938 1236.109375 202.34375 1236.097656 202.597656 C 1236.085938 202.855469 1236.085938 203.113281 1236.105469 203.367188 C 1236.125 203.625 1236.160156 203.878906 1236.210938 204.132812 C 1236.261719 204.382812 1236.324219 204.632812 1236.40625 204.878906 C 1236.488281 205.121094 1236.582031 205.359375 1236.691406 205.59375 C 1236.804688 205.824219 1236.925781 206.050781 1237.0625 206.265625 C 1237.203125 206.484375 1237.351562 206.691406 1237.515625 206.890625 C 1237.679688 207.089844 1237.855469 207.277344 1238.039062 207.457031 C 1238.226562 207.632812 1238.421875 207.796875 1238.628906 207.953125 C 1238.835938 208.105469 1239.050781 208.246094 1239.273438 208.371094 C 1239.5 208.496094 1239.730469 208.609375 1239.96875 208.707031 C 1240.203125 208.808594 1240.449219 208.890625 1240.695312 208.960938 C 1240.945312 209.027344 1241.195312 209.082031 1241.449219 209.117188 C 1241.703125 209.15625 1241.960938 209.179688 1242.214844 209.183594 C 1242.472656 209.191406 1242.730469 209.179688 1242.988281 209.15625 C 1243.242188 209.128906 1243.496094 209.089844 1243.746094 209.035156 C 1243.996094 208.976562 1244.246094 208.90625 1244.488281 208.820312 C 1244.730469 208.730469 1244.964844 208.628906 1245.195312 208.515625 C 1245.425781 208.398438 1245.644531 208.269531 1245.859375 208.128906 L 1268.449219 230.714844 L 1293.476562 230.714844 L 1307.355469 244.578125 L 1307.710938 244.933594 L 1368.777344 244.933594 L 1390.164062 266.320312 L 1443.605469 266.320312 L 1443.605469 270.421875 L 1459.171875 270.421875 L 1459.171875 281.925781 L 1442.167969 281.925781 L 1442.167969 286.03125 L 1372.824219 286.03125 L 1342.246094 316.609375 L 1328.359375 316.609375 L 1305.53125 293.78125 L 1256.335938 293.78125 L 1256.335938 287.695312 L 1228.390625 287.695312 L 1228.390625 302.3125 L 1256.335938 302.3125 L 1256.335938 296.226562 L 1304.503906 296.226562 L 1324.886719 316.609375 L 1290.6875 316.609375 L 1290.6875 310.710938 L 1262.753906 310.710938 L 1262.753906 325.324219 L 1290.6875 325.324219 L 1290.6875 319.078125 L 1343.246094 319.078125 L 1373.824219 288.5 L 1442.15625 288.5 L 1442.15625 292.605469 L 1459.160156 292.605469 L 1459.160156 302.054688 L 1442.15625 302.054688 L 1442.15625 306.160156 L 1389.824219 306.160156 L 1342.472656 353.515625 L 1304.550781 353.515625 C 1304.5 353.261719 1304.433594 353.015625 1304.351562 352.769531 C 1304.273438 352.527344 1304.175781 352.289062 1304.066406 352.054688 C 1303.957031 351.820312 1303.832031 351.597656 1303.695312 351.378906 C 1303.558594 351.164062 1303.410156 350.953125 1303.246094 350.757812 C 1303.082031 350.558594 1302.90625 350.371094 1302.722656 350.191406 C 1302.535156 350.015625 1302.339844 349.847656 1302.132812 349.695312 C 1301.925781 349.542969 1301.710938 349.402344 1301.488281 349.277344 C 1301.265625 349.148438 1301.03125 349.035156 1300.796875 348.9375 C 1300.558594 348.839844 1300.316406 348.757812 1300.066406 348.6875 C 1299.820312 348.617188 1299.570312 348.566406 1299.316406 348.527344 C 1299.058594 348.488281 1298.804688 348.46875 1298.546875 348.460938 C 1298.289062 348.457031 1298.035156 348.464844 1297.777344 348.488281 C 1297.523438 348.515625 1297.269531 348.554688 1297.019531 348.613281 C 1296.765625 348.667969 1296.519531 348.738281 1296.277344 348.828125 C 1296.035156 348.914062 1295.800781 349.015625 1295.570312 349.128906 C 1295.339844 349.246094 1295.121094 349.375 1294.90625 349.515625 C 1294.691406 349.660156 1294.488281 349.816406 1294.292969 349.984375 C 1294.097656 350.152344 1293.914062 350.332031 1293.742188 350.519531 C 1293.570312 350.710938 1293.410156 350.910156 1293.261719 351.121094 C 1293.113281 351.332031 1292.976562 351.550781 1292.855469 351.777344 C 1292.734375 352.003906 1292.628906 352.238281 1292.535156 352.476562 C 1292.445312 352.71875 1292.367188 352.960938 1292.304688 353.210938 C 1292.242188 353.460938 1292.195312 353.714844 1292.164062 353.96875 C 1292.132812 354.222656 1292.117188 354.480469 1292.117188 354.738281 C 1292.117188 354.992188 1292.132812 355.25 1292.164062 355.503906 C 1292.195312 355.761719 1292.242188 356.011719 1292.304688 356.261719 C 1292.367188 356.511719 1292.445312 356.757812 1292.535156 356.996094 C 1292.628906 357.234375 1292.734375 357.46875 1292.855469 357.695312 C 1292.976562 357.921875 1293.113281 358.140625 1293.261719 358.351562 C 1293.410156 358.5625 1293.570312 358.761719 1293.742188 358.953125 C 1293.914062 359.144531 1294.097656 359.324219 1294.292969 359.492188 C 1294.488281 359.660156 1294.691406 359.8125 1294.90625 359.957031 C 1295.121094 360.097656 1295.339844 360.226562 1295.570312 360.34375 C 1295.800781 360.460938 1296.035156 360.5625 1296.277344 360.648438 C 1296.519531 360.734375 1296.765625 360.804688 1297.019531 360.863281 C 1297.269531 360.917969 1297.523438 360.957031 1297.777344 360.984375 C 1298.035156 361.007812 1298.289062 361.019531 1298.546875 361.011719 C 1298.804688 361.003906 1299.058594 360.984375 1299.316406 360.945312 C 1299.570312 360.90625 1299.820312 360.855469 1300.066406 360.785156 C 1300.316406 360.71875 1300.558594 360.632812 1300.796875 360.535156 C 1301.03125 360.4375 1301.265625 360.324219 1301.488281 360.199219 C 1301.710938 360.070312 1301.925781 359.929688 1302.132812 359.777344 C 1302.339844 359.625 1302.535156 359.460938 1302.722656 359.28125 C 1302.90625 359.105469 1303.082031 358.917969 1303.246094 358.71875 C 1303.410156 358.519531 1303.558594 358.3125 1303.695312 358.09375 C 1303.832031 357.875 1303.957031 357.652344 1304.066406 357.417969 C 1304.175781 357.1875 1304.273438 356.949219 1304.351562 356.703125 C 1304.433594 356.460938 1304.5 356.210938 1304.550781 355.960938 L 1343.484375 355.960938 L 1390.84375 308.597656 L 1442.164062 308.597656 L 1442.164062 312.699219 L 1459.167969 312.699219 L 1459.167969 321.628906 L 1467.945312 321.628906 L 1467.945312 168.859375 Z M 1146.828125 183.960938 C 1146.449219 183.960938 1146.070312 183.921875 1145.695312 183.847656 C 1145.320312 183.773438 1144.957031 183.660156 1144.605469 183.511719 C 1144.25 183.367188 1143.917969 183.1875 1143.597656 182.972656 C 1143.28125 182.761719 1142.988281 182.519531 1142.71875 182.246094 C 1142.449219 181.976562 1142.207031 181.683594 1141.996094 181.363281 C 1141.785156 181.046875 1141.605469 180.710938 1141.460938 180.359375 C 1141.316406 180.003906 1141.207031 179.640625 1141.132812 179.265625 C 1141.058594 178.890625 1141.019531 178.511719 1141.019531 178.128906 C 1141.023438 177.746094 1141.058594 177.371094 1141.136719 176.996094 C 1141.210938 176.621094 1141.320312 176.257812 1141.46875 175.902344 C 1141.613281 175.550781 1141.792969 175.214844 1142.007812 174.898438 C 1142.21875 174.582031 1142.460938 174.285156 1142.730469 174.015625 C 1143.003906 173.746094 1143.296875 173.507812 1143.613281 173.292969 C 1143.933594 173.082031 1144.269531 172.902344 1144.621094 172.757812 C 1144.972656 172.613281 1145.339844 172.5 1145.710938 172.425781 C 1146.085938 172.351562 1146.464844 172.316406 1146.847656 172.316406 C 1147.230469 172.316406 1147.609375 172.355469 1147.984375 172.429688 C 1148.359375 172.503906 1148.722656 172.613281 1149.074219 172.761719 C 1149.429688 172.90625 1149.761719 173.085938 1150.082031 173.300781 C 1150.398438 173.511719 1150.691406 173.753906 1150.960938 174.023438 C 1151.230469 174.292969 1151.472656 174.589844 1151.6875 174.90625 C 1151.898438 175.222656 1152.078125 175.558594 1152.222656 175.910156 C 1152.371094 176.265625 1152.480469 176.628906 1152.554688 177.003906 C 1152.628906 177.378906 1152.664062 177.757812 1152.664062 178.140625 C 1152.664062 178.523438 1152.625 178.898438 1152.550781 179.273438 C 1152.476562 179.648438 1152.363281 180.015625 1152.214844 180.367188 C 1152.070312 180.71875 1151.890625 181.054688 1151.675781 181.375 C 1151.460938 181.691406 1151.222656 181.984375 1150.949219 182.253906 C 1150.679688 182.527344 1150.382812 182.765625 1150.066406 182.980469 C 1149.75 183.191406 1149.414062 183.371094 1149.058594 183.515625 C 1148.707031 183.664062 1148.339844 183.773438 1147.964844 183.847656 C 1147.589844 183.921875 1147.210938 183.960938 1146.828125 183.960938 Z M 1146.828125 183.960938 " fill-opacity="1" fill-rule="nonzero"/></g><path fill="#1c75bc" d="M 237.230469 116.535156 C 232.347656 116.535156 228.375 112.5625 228.375 107.679688 C 228.375 102.792969 232.347656 98.824219 237.230469 98.824219 C 242.113281 98.824219 246.085938 102.792969 246.085938 107.679688 C 246.085938 112.5625 242.113281 116.535156 237.230469 116.535156 Z M 237.230469 102.375 C 234.304688 102.375 231.925781 104.753906 231.925781 107.679688 C 231.925781 110.601562 234.304688 112.984375 237.230469 112.984375 C 240.15625 112.984375 242.535156 110.601562 242.535156 107.679688 C 242.535156 104.753906 240.15625 102.375 237.230469 102.375 Z M 237.230469 102.375 " fill-opacity="1" fill-rule="nonzero"/><path fill="#1c75bc" d="M 271.941406 159.097656 C 271.941406 159.5625 271.898438 160.023438 271.804688 160.480469 C 271.714844 160.933594 271.582031 161.375 271.402344 161.804688 C 271.226562 162.234375 271.007812 162.644531 270.75 163.03125 C 270.492188 163.417969 270.199219 163.773438 269.867188 164.101562 C 269.539062 164.429688 269.183594 164.726562 268.796875 164.984375 C 268.410156 165.242188 268 165.460938 267.574219 165.636719 C 267.144531 165.816406 266.699219 165.949219 266.246094 166.039062 C 265.789062 166.128906 265.328125 166.175781 264.863281 166.175781 C 264.398438 166.175781 263.9375 166.128906 263.484375 166.039062 C 263.027344 165.949219 262.585938 165.816406 262.15625 165.636719 C 261.726562 165.460938 261.316406 165.242188 260.929688 164.984375 C 260.546875 164.726562 260.1875 164.429688 259.859375 164.101562 C 259.53125 163.773438 259.238281 163.417969 258.980469 163.03125 C 258.71875 162.644531 258.503906 162.234375 258.324219 161.804688 C 258.148438 161.375 258.011719 160.933594 257.921875 160.480469 C 257.832031 160.023438 257.785156 159.5625 257.785156 159.097656 C 257.785156 158.632812 257.832031 158.171875 257.921875 157.71875 C 258.011719 157.261719 258.148438 156.820312 258.324219 156.390625 C 258.503906 155.960938 258.71875 155.550781 258.980469 155.164062 C 259.238281 154.777344 259.53125 154.421875 259.859375 154.09375 C 260.1875 153.765625 260.546875 153.472656 260.929688 153.210938 C 261.316406 152.953125 261.726562 152.738281 262.15625 152.558594 C 262.585938 152.378906 263.027344 152.246094 263.484375 152.15625 C 263.9375 152.066406 264.398438 152.019531 264.863281 152.019531 C 265.328125 152.019531 265.789062 152.066406 266.246094 152.15625 C 266.699219 152.246094 267.144531 152.378906 267.574219 152.558594 C 268 152.738281 268.410156 152.953125 268.796875 153.210938 C 269.183594 153.472656 269.539062 153.765625 269.867188 154.09375 C 270.199219 154.421875 270.492188 154.777344 270.75 155.164062 C 271.007812 155.550781 271.226562 155.960938 271.402344 156.390625 C 271.582031 156.820312 271.714844 157.261719 271.804688 157.71875 C 271.898438 158.171875 271.941406 158.632812 271.941406 159.097656 Z M 271.941406 159.097656 " fill-opacity="1" fill-rule="nonzero"/><path fill="#1c75bc" d="M 173.066406 212.230469 C 173.066406 212.695312 173.019531 213.15625 172.929688 213.613281 C 172.835938 214.070312 172.703125 214.511719 172.527344 214.941406 C 172.347656 215.371094 172.128906 215.777344 171.871094 216.164062 C 171.613281 216.550781 171.320312 216.910156 170.992188 217.238281 C 170.664062 217.566406 170.304688 217.859375 169.917969 218.117188 C 169.53125 218.375 169.125 218.59375 168.695312 218.769531 C 168.265625 218.949219 167.824219 219.082031 167.367188 219.175781 C 166.910156 219.265625 166.453125 219.308594 165.988281 219.308594 C 165.523438 219.308594 165.0625 219.265625 164.605469 219.175781 C 164.148438 219.082031 163.707031 218.949219 163.277344 218.769531 C 162.847656 218.59375 162.441406 218.375 162.054688 218.117188 C 161.667969 217.859375 161.308594 217.566406 160.980469 217.238281 C 160.652344 216.910156 160.359375 216.550781 160.101562 216.164062 C 159.84375 215.777344 159.625 215.371094 159.449219 214.941406 C 159.269531 214.511719 159.136719 214.070312 159.042969 213.613281 C 158.953125 213.15625 158.910156 212.695312 158.910156 212.230469 C 158.910156 211.765625 158.953125 211.308594 159.042969 210.851562 C 159.136719 210.394531 159.269531 209.953125 159.449219 209.523438 C 159.625 209.09375 159.84375 208.6875 160.101562 208.300781 C 160.359375 207.914062 160.652344 207.554688 160.980469 207.226562 C 161.308594 206.898438 161.667969 206.605469 162.054688 206.347656 C 162.441406 206.089844 162.847656 205.871094 163.277344 205.691406 C 163.707031 205.515625 164.148438 205.378906 164.605469 205.289062 C 165.0625 205.199219 165.523438 205.152344 165.988281 205.152344 C 166.453125 205.152344 166.910156 205.199219 167.367188 205.289062 C 167.824219 205.378906 168.265625 205.515625 168.695312 205.691406 C 169.125 205.871094 169.53125 206.089844 169.917969 206.347656 C 170.304688 206.605469 170.664062 206.898438 170.992188 207.226562 C 171.320312 207.554688 171.613281 207.914062 171.871094 208.300781 C 172.128906 208.6875 172.347656 209.09375 172.527344 209.523438 C 172.703125 209.953125 172.835938 210.394531 172.929688 210.851562 C 173.019531 211.308594 173.066406 211.765625 173.066406 212.230469 Z M 173.066406 212.230469 " fill-opacity="1" fill-rule="nonzero"/><g clip-path="url(#e2b5922f00)"><path fill="#1c75bc" d="M 317.613281 205.425781 C 312.726562 205.425781 308.757812 201.457031 308.757812 196.570312 C 308.757812 191.6875 312.726562 187.714844 317.613281 187.714844 C 322.496094 187.714844 326.46875 191.6875 326.46875 196.570312 C 326.46875 201.457031 322.492188 205.425781 317.613281 205.425781 Z M 317.613281 191.269531 C 314.6875 191.269531 312.308594 193.652344 312.308594 196.574219 C 312.308594 199.5 314.6875 201.878906 317.613281 201.878906 C 320.535156 201.878906 322.917969 199.5 322.917969 196.574219 C 322.914062 193.648438 320.535156 191.269531 317.613281 191.269531 Z M 317.613281 191.269531 " fill-opacity="1" fill-rule="nonzero"/></g><path fill="#1c75bc" d="M -2.941406 160.871094 L -115.464844 160.871094 L -115.988281 160.351562 L -154.207031 122.128906 L -601.039062 122.128906 L -601.039062 118.578125 L -152.738281 118.578125 L -113.996094 157.320312 L -4.410156 157.320312 L 47.003906 105.902344 L 230.152344 105.902344 L 230.152344 109.457031 L 48.476562 109.457031 Z M -2.941406 160.871094 " fill-opacity="1" fill-rule="nonzero"/><path fill="#1c75bc" d="M 23.453125 132.449219 L -96.691406 132.449219 L -141.421875 87.722656 L -601.039062 87.722656 L -601.039062 84.171875 L -139.949219 84.171875 L -95.222656 128.898438 L 23.453125 128.898438 Z M 23.453125 132.449219 " fill-opacity="1" fill-rule="nonzero"/><path fill="#1c75bc" d="M 310.53125 198.347656 L -138.789062 198.347656 L -186.175781 150.957031 L -601.039062 150.957031 L -601.039062 147.40625 L -184.707031 147.40625 L -137.3125 194.796875 L 310.53125 194.796875 Z M 310.53125 198.347656 " fill-opacity="1" fill-rule="nonzero"/><path fill="#1c75bc" d="M -149.800781 183.046875 L 215.539062 183.046875 L 215.539062 186.597656 L -149.800781 186.597656 Z M -149.800781 183.046875 " fill-opacity="1" fill-rule="nonzero"/><path fill="#1c75bc" d="M 20.78125 183.523438 L 98.542969 105.773438 L 101.054688 108.285156 L 23.292969 186.035156 Z M 20.78125 183.523438 " fill-opacity="1" fill-rule="nonzero"/><path fill="#1c75bc" d="M 50.054688 183.523438 L 127.820312 105.773438 L 130.328125 108.285156 L 52.566406 186.035156 Z M 50.054688 183.523438 " fill-opacity="1" fill-rule="nonzero"/><path fill="#1c75bc" d="M 79.332031 183.523438 L 157.09375 105.773438 L 159.605469 108.28125 L 81.84375 186.035156 Z M 79.332031 183.523438 " fill-opacity="1" fill-rule="nonzero"/><path fill="#1c75bc" d="M 108.609375 183.519531 L 186.371094 105.769531 L 188.878906 108.28125 L 111.117188 186.03125 Z M 108.609375 183.519531 " fill-opacity="1" fill-rule="nonzero"/><path fill="#1c75bc" d="M 135.585938 157.320312 L 264.859375 157.320312 L 264.859375 160.871094 L 135.585938 160.871094 Z M 135.585938 157.320312 " fill-opacity="1" fill-rule="nonzero"/><path fill="#1c75bc" d="M 164.847656 214.007812 L -151.6875 214.007812 L -186.175781 179.519531 L -601.039062 179.519531 L -601.039062 175.96875 L -184.707031 175.96875 L -150.214844 210.457031 L 164.847656 210.457031 Z M 164.847656 214.007812 " fill-opacity="1" fill-rule="nonzero"/><path fill="#1c75bc" d="M 237.230469 352.617188 C 232.347656 352.617188 228.375 348.644531 228.375 343.761719 C 228.375 338.875 232.347656 334.90625 237.230469 334.90625 C 242.113281 334.90625 246.085938 338.875 246.085938 343.761719 C 246.085938 348.644531 242.113281 352.617188 237.230469 352.617188 Z M 237.230469 338.457031 C 234.304688 338.457031 231.925781 340.835938 231.925781 343.761719 C 231.925781 346.683594 234.304688 349.066406 237.230469 349.066406 C 240.15625 349.066406 242.535156 346.683594 242.535156 343.761719 C 242.535156 340.835938 240.15625 338.457031 237.230469 338.457031 Z M 237.230469 338.457031 " fill-opacity="1" fill-rule="nonzero"/><path fill="#1c75bc" d="M 271.941406 292.339844 C 271.941406 292.804688 271.898438 293.265625 271.804688 293.722656 C 271.714844 294.179688 271.582031 294.621094 271.402344 295.050781 C 271.226562 295.480469 271.007812 295.886719 270.75 296.273438 C 270.492188 296.660156 270.199219 297.019531 269.867188 297.347656 C 269.539062 297.675781 269.183594 297.96875 268.796875 298.226562 C 268.410156 298.484375 268 298.703125 267.574219 298.878906 C 267.144531 299.058594 266.699219 299.191406 266.246094 299.285156 C 265.789062 299.375 265.328125 299.417969 264.863281 299.417969 C 264.398438 299.417969 263.9375 299.375 263.484375 299.285156 C 263.027344 299.191406 262.585938 299.058594 262.15625 298.878906 C 261.726562 298.703125 261.316406 298.484375 260.929688 298.226562 C 260.546875 297.96875 260.1875 297.675781 259.859375 297.347656 C 259.53125 297.019531 259.238281 296.660156 258.980469 296.273438 C 258.71875 295.886719 258.503906 295.480469 258.324219 295.050781 C 258.148438 294.621094 258.011719 294.179688 257.921875 293.722656 C 257.832031 293.265625 257.785156 292.804688 257.785156 292.339844 C 257.785156 291.875 257.832031 291.417969 257.921875 290.960938 C 258.011719 290.503906 258.148438 290.0625 258.324219 289.632812 C 258.503906 289.203125 258.71875 288.796875 258.980469 288.410156 C 259.238281 288.023438 259.53125 287.664062 259.859375 287.335938 C 260.1875 287.007812 260.546875 286.714844 260.929688 286.457031 C 261.316406 286.199219 261.726562 285.980469 262.15625 285.800781 C 262.585938 285.625 263.027344 285.492188 263.484375 285.398438 C 263.9375 285.308594 264.398438 285.265625 264.863281 285.265625 C 265.328125 285.265625 265.789062 285.308594 266.246094 285.398438 C 266.699219 285.492188 267.144531 285.625 267.574219 285.800781 C 268 285.980469 268.410156 286.199219 268.796875 286.457031 C 269.183594 286.714844 269.539062 287.007812 269.867188 287.335938 C 270.199219 287.664062 270.492188 288.023438 270.75 288.410156 C 271.007812 288.796875 271.226562 289.203125 271.402344 289.632812 C 271.582031 290.0625 271.714844 290.503906 271.804688 290.960938 C 271.898438 291.417969 271.941406 291.875 271.941406 292.339844 Z M 271.941406 292.339844 " fill-opacity="1" fill-rule="nonzero"/><path fill="#1c75bc" d="M 173.066406 239.207031 C 173.066406 239.671875 173.019531 240.132812 172.929688 240.589844 C 172.835938 241.042969 172.703125 241.488281 172.527344 241.914062 C 172.347656 242.34375 172.128906 242.753906 171.871094 243.140625 C 171.613281 243.527344 171.320312 243.882812 170.992188 244.210938 C 170.664062 244.539062 170.304688 244.835938 169.917969 245.09375 C 169.53125 245.351562 169.125 245.570312 168.695312 245.746094 C 168.265625 245.925781 167.824219 246.058594 167.367188 246.148438 C 166.910156 246.238281 166.453125 246.285156 165.988281 246.285156 C 165.523438 246.285156 165.0625 246.238281 164.605469 246.148438 C 164.148438 246.058594 163.707031 245.925781 163.277344 245.746094 C 162.847656 245.570312 162.441406 245.351562 162.054688 245.09375 C 161.667969 244.835938 161.308594 244.539062 160.980469 244.210938 C 160.652344 243.882812 160.359375 243.527344 160.101562 243.140625 C 159.84375 242.753906 159.625 242.34375 159.449219 241.914062 C 159.269531 241.488281 159.136719 241.042969 159.042969 240.589844 C 158.953125 240.132812 158.910156 239.671875 158.910156 239.207031 C 158.910156 238.742188 158.953125 238.28125 159.042969 237.828125 C 159.136719 237.371094 159.269531 236.929688 159.449219 236.5 C 159.625 236.070312 159.84375 235.660156 160.101562 235.273438 C 160.359375 234.886719 160.652344 234.53125 160.980469 234.203125 C 161.308594 233.875 161.667969 233.582031 162.054688 233.320312 C 162.441406 233.0625 162.847656 232.847656 163.277344 232.667969 C 163.707031 232.492188 164.148438 232.355469 164.605469 232.265625 C 165.0625 232.175781 165.523438 232.128906 165.988281 232.128906 C 166.453125 232.128906 166.910156 232.175781 167.367188 232.265625 C 167.824219 232.355469 168.265625 232.492188 168.695312 232.667969 C 169.125 232.847656 169.53125 233.0625 169.917969 233.324219 C 170.304688 233.582031 170.664062 233.875 170.992188 234.203125 C 171.320312 234.53125 171.613281 234.890625 171.871094 235.273438 C 172.128906 235.660156 172.347656 236.070312 172.527344 236.5 C 172.703125 236.929688 172.835938 237.371094 172.929688 237.828125 C 173.019531 238.28125 173.066406 238.742188 173.066406 239.207031 Z M 173.066406 239.207031 " fill-opacity="1" fill-rule="nonzero"/><g clip-path="url(#8630fa1c41)"><path fill="#1c75bc" d="M 317.613281 263.722656 C 312.726562 263.722656 308.757812 259.753906 308.757812 254.867188 C 308.757812 249.984375 312.726562 246.011719 317.613281 246.011719 C 322.496094 246.011719 326.46875 249.984375 326.46875 254.867188 C 326.46875 259.75 322.492188 263.722656 317.613281 263.722656 Z M 317.613281 249.5625 C 314.6875 249.5625 312.308594 251.945312 312.308594 254.867188 C 312.308594 257.792969 314.6875 260.171875 317.613281 260.171875 C 320.535156 260.171875 322.917969 257.792969 322.917969 254.867188 C 322.914062 251.945312 320.535156 249.5625 317.613281 249.5625 Z M 317.613281 249.5625 " fill-opacity="1" fill-rule="nonzero"/></g><path fill="#1c75bc" d="M 230.152344 345.539062 L 47.003906 345.539062 L -4.410156 294.117188 L -113.996094 294.117188 L -152.738281 332.859375 L -601.039062 332.859375 L -601.039062 329.308594 L -154.207031 329.308594 L -115.464844 290.566406 L -2.941406 290.566406 L 48.476562 341.984375 L 230.152344 341.984375 Z M 230.152344 345.539062 " fill-opacity="1" fill-rule="nonzero"/><path fill="#1c75bc" d="M -139.949219 367.269531 L -601.039062 367.269531 L -601.039062 363.714844 L -141.421875 363.714844 L -96.691406 318.988281 L 23.453125 318.988281 L 23.453125 322.539062 L -95.222656 322.539062 Z M -139.949219 367.269531 " fill-opacity="1" fill-rule="nonzero"/><path fill="#1c75bc" d="M -184.707031 304.035156 L -601.039062 304.035156 L -601.039062 300.484375 L -186.175781 300.484375 L -138.789062 253.089844 L 310.53125 253.089844 L 310.53125 256.640625 L -137.3125 256.640625 Z M -184.707031 304.035156 " fill-opacity="1" fill-rule="nonzero"/><path fill="#1c75bc" d="M -149.800781 264.84375 L 215.539062 264.84375 L 215.539062 268.394531 L -149.800781 268.394531 Z M -149.800781 264.84375 " fill-opacity="1" fill-rule="nonzero"/><path fill="#1c75bc" d="M 20.769531 267.875 L 23.28125 265.367188 L 101.039062 343.121094 L 98.527344 345.632812 Z M 20.769531 267.875 " fill-opacity="1" fill-rule="nonzero"/><path fill="#1c75bc" d="M 50.042969 267.875 L 52.554688 265.363281 L 130.3125 343.117188 L 127.800781 345.628906 Z M 50.042969 267.875 " fill-opacity="1" fill-rule="nonzero"/><path fill="#1c75bc" d="M 79.320312 267.875 L 81.832031 265.367188 L 159.589844 343.121094 L 157.078125 345.632812 Z M 79.320312 267.875 " fill-opacity="1" fill-rule="nonzero"/><path fill="#1c75bc" d="M 108.597656 267.875 L 111.105469 265.367188 L 188.863281 343.121094 L 186.355469 345.632812 Z M 108.597656 267.875 " fill-opacity="1" fill-rule="nonzero"/><path fill="#1c75bc" d="M 135.585938 290.566406 L 264.859375 290.566406 L 264.859375 294.117188 L 135.585938 294.117188 Z M 135.585938 290.566406 " fill-opacity="1" fill-rule="nonzero"/><path fill="#1c75bc" d="M -184.707031 275.472656 L -601.039062 275.472656 L -601.039062 271.921875 L -186.175781 271.921875 L -151.6875 237.429688 L 164.847656 237.429688 L 164.847656 240.980469 L -150.214844 240.980469 Z M -184.707031 275.472656 " fill-opacity="1" fill-rule="nonzero"/></svg>